G04 (created by PCBNEW (2013-07-07 BZR 4022)-stable) date 16.5.2014 14:16:54*
%MOIN*%
G04 Gerber Fmt 3.4, Leading zero omitted, Abs format*
%FSLAX34Y34*%
G01*
G70*
G90*
G04 APERTURE LIST*
%ADD10C,0.00590551*%
%ADD11R,0.06X0.06*%
%ADD12C,0.06*%
%ADD13R,0.0787X0.0787*%
%ADD14C,0.0787*%
G04 APERTURE END LIST*
G54D10*
G54D11*
X28838Y-23629D03*
G54D12*
X28838Y-22629D03*
G54D11*
X38181Y-17531D03*
G54D12*
X39181Y-17531D03*
X38181Y-18531D03*
X39181Y-18531D03*
X38181Y-19531D03*
X39181Y-19531D03*
X38181Y-20531D03*
X39181Y-20531D03*
X38181Y-21531D03*
X39181Y-21531D03*
X38181Y-22531D03*
X39181Y-22531D03*
X38181Y-23531D03*
X39181Y-23531D03*
X38181Y-24531D03*
X39181Y-24531D03*
X38181Y-25531D03*
X39181Y-25531D03*
X38181Y-26531D03*
X39181Y-26531D03*
X38181Y-27531D03*
X39181Y-27531D03*
X38181Y-28531D03*
X39181Y-28531D03*
G54D13*
X35728Y-16527D03*
G54D14*
X35728Y-17527D03*
G54D13*
X35039Y-21350D03*
G54D14*
X35039Y-22350D03*
G54D13*
X33169Y-24909D03*
G54D14*
X33169Y-23909D03*
G54D13*
X35728Y-27763D03*
G54D14*
X35728Y-26763D03*
G54D13*
X42314Y-28641D03*
G54D14*
X43314Y-28641D03*
G54D13*
X30905Y-28846D03*
G54D14*
X30905Y-27846D03*
G54D13*
X30905Y-22629D03*
G54D14*
X30905Y-23629D03*
G54D13*
X30905Y-25188D03*
G54D14*
X30905Y-26188D03*
G54D13*
X32669Y-26968D03*
G54D14*
X33669Y-26968D03*
G54D13*
X35728Y-23909D03*
G54D14*
X35728Y-24909D03*
G54D13*
X29996Y-18700D03*
G54D14*
X32996Y-18700D03*
M02*
