G04 (created by PCBNEW (2013-07-07 BZR 4022)-stable) date 16.5.2014 14:16:54*
%MOIN*%
G04 Gerber Fmt 3.4, Leading zero omitted, Abs format*
%FSLAX34Y34*%
G01*
G70*
G90*
G04 APERTURE LIST*
%ADD10C,0.00590551*%
%ADD11R,0.06X0.06*%
%ADD12C,0.06*%
%ADD13R,0.0787X0.0787*%
%ADD14C,0.0787*%
%ADD15C,0.035*%
%ADD16C,0.01*%
G04 APERTURE END LIST*
G54D10*
G54D11*
X28838Y-23629D03*
G54D12*
X28838Y-22629D03*
G54D11*
X38181Y-17531D03*
G54D12*
X39181Y-17531D03*
X38181Y-18531D03*
X39181Y-18531D03*
X38181Y-19531D03*
X39181Y-19531D03*
X38181Y-20531D03*
X39181Y-20531D03*
X38181Y-21531D03*
X39181Y-21531D03*
X38181Y-22531D03*
X39181Y-22531D03*
X38181Y-23531D03*
X39181Y-23531D03*
X38181Y-24531D03*
X39181Y-24531D03*
X38181Y-25531D03*
X39181Y-25531D03*
X38181Y-26531D03*
X39181Y-26531D03*
X38181Y-27531D03*
X39181Y-27531D03*
X38181Y-28531D03*
X39181Y-28531D03*
G54D13*
X35728Y-16527D03*
G54D14*
X35728Y-17527D03*
G54D13*
X35039Y-21350D03*
G54D14*
X35039Y-22350D03*
G54D13*
X33169Y-24909D03*
G54D14*
X33169Y-23909D03*
G54D13*
X35728Y-27763D03*
G54D14*
X35728Y-26763D03*
G54D13*
X42314Y-28641D03*
G54D14*
X43314Y-28641D03*
G54D13*
X30905Y-28846D03*
G54D14*
X30905Y-27846D03*
G54D13*
X30905Y-22629D03*
G54D14*
X30905Y-23629D03*
G54D13*
X30905Y-25188D03*
G54D14*
X30905Y-26188D03*
G54D13*
X32669Y-26968D03*
G54D14*
X33669Y-26968D03*
G54D13*
X35728Y-23909D03*
G54D14*
X35728Y-24909D03*
G54D13*
X29996Y-18700D03*
G54D14*
X32996Y-18700D03*
G54D15*
X36712Y-19291D03*
G54D16*
X39181Y-17232D02*
X39181Y-17531D01*
X38877Y-16929D02*
X39181Y-17232D01*
X37106Y-16929D02*
X38877Y-16929D01*
X37106Y-18897D02*
X37106Y-16929D01*
X36712Y-19291D02*
X37106Y-18897D01*
X30905Y-22629D02*
X33358Y-22629D01*
X37720Y-24531D02*
X38181Y-24531D01*
X37696Y-24507D02*
X37720Y-24531D01*
X37696Y-23917D02*
X37696Y-24507D01*
X36909Y-23129D02*
X37696Y-23917D01*
X33858Y-23129D02*
X36909Y-23129D01*
X33358Y-22629D02*
X33858Y-23129D01*
X39181Y-24531D02*
X38181Y-24531D01*
X39181Y-25531D02*
X39114Y-25531D01*
X33850Y-25590D02*
X33169Y-24909D01*
X36515Y-25590D02*
X33850Y-25590D01*
X37106Y-25000D02*
X36515Y-25590D01*
X38582Y-25000D02*
X37106Y-25000D01*
X39114Y-25531D02*
X38582Y-25000D01*
X39181Y-18531D02*
X39342Y-18531D01*
X39460Y-16527D02*
X35728Y-16527D01*
X39763Y-16830D02*
X39460Y-16527D01*
X39763Y-18110D02*
X39763Y-16830D01*
X39342Y-18531D02*
X39763Y-18110D01*
X35728Y-27763D02*
X36803Y-27763D01*
X38645Y-27066D02*
X39181Y-26531D01*
X37500Y-27066D02*
X38645Y-27066D01*
X36803Y-27763D02*
X37500Y-27066D01*
X39181Y-27531D02*
X41204Y-27531D01*
X41204Y-27531D02*
X42314Y-28641D01*
X35039Y-22350D02*
X34358Y-22350D01*
X34751Y-18503D02*
X35728Y-17527D01*
X34448Y-18503D02*
X34751Y-18503D01*
X33661Y-19291D02*
X34448Y-18503D01*
X33661Y-21653D02*
X33661Y-19291D01*
X34358Y-22350D02*
X33661Y-21653D01*
X43314Y-28641D02*
X43314Y-29322D01*
X35145Y-26763D02*
X35728Y-26763D01*
X34645Y-27263D02*
X35145Y-26763D01*
X34645Y-28346D02*
X34645Y-27263D01*
X35826Y-29527D02*
X34645Y-28346D01*
X43110Y-29527D02*
X35826Y-29527D01*
X43314Y-29322D02*
X43110Y-29527D01*
X30905Y-27846D02*
X31791Y-27846D01*
X31791Y-27846D02*
X32669Y-26968D01*
X43314Y-28937D02*
X43314Y-28551D01*
X30905Y-23629D02*
X32889Y-23629D01*
X32889Y-23629D02*
X33169Y-23909D01*
X28838Y-23629D02*
X30905Y-23629D01*
X38181Y-25531D02*
X37165Y-25531D01*
X35933Y-26763D02*
X35728Y-26763D01*
X37165Y-25531D02*
X35933Y-26763D01*
G54D10*
G36*
X35804Y-24915D02*
X35733Y-24985D01*
X35728Y-24980D01*
X35722Y-24985D01*
X35652Y-24915D01*
X35657Y-24909D01*
X35652Y-24903D01*
X35722Y-24833D01*
X35728Y-24838D01*
X35733Y-24833D01*
X35804Y-24903D01*
X35799Y-24909D01*
X35804Y-24915D01*
X35804Y-24915D01*
G37*
G54D16*
X35804Y-24915D02*
X35733Y-24985D01*
X35728Y-24980D01*
X35722Y-24985D01*
X35652Y-24915D01*
X35657Y-24909D01*
X35652Y-24903D01*
X35722Y-24833D01*
X35728Y-24838D01*
X35733Y-24833D01*
X35804Y-24903D01*
X35799Y-24909D01*
X35804Y-24915D01*
G54D10*
G36*
X36957Y-29477D02*
X34312Y-29477D01*
X34312Y-26841D01*
X34215Y-26604D01*
X34034Y-26423D01*
X33797Y-26325D01*
X33541Y-26324D01*
X33305Y-26422D01*
X33280Y-26447D01*
X33274Y-26433D01*
X33204Y-26363D01*
X33112Y-26325D01*
X33013Y-26324D01*
X32781Y-26325D01*
X32719Y-26387D01*
X32719Y-26918D01*
X32727Y-26918D01*
X32727Y-27018D01*
X32719Y-27018D01*
X32719Y-27549D01*
X32781Y-27612D01*
X33013Y-27612D01*
X33112Y-27611D01*
X33204Y-27573D01*
X33274Y-27503D01*
X33280Y-27489D01*
X33304Y-27513D01*
X33540Y-27611D01*
X33796Y-27612D01*
X34033Y-27514D01*
X34214Y-27333D01*
X34312Y-27097D01*
X34312Y-26841D01*
X34312Y-29477D01*
X32619Y-29477D01*
X32619Y-27549D01*
X32619Y-27018D01*
X32619Y-26918D01*
X32619Y-26387D01*
X32556Y-26325D01*
X32325Y-26324D01*
X32225Y-26325D01*
X32133Y-26363D01*
X32063Y-26433D01*
X32025Y-26525D01*
X32025Y-26856D01*
X32088Y-26918D01*
X32619Y-26918D01*
X32619Y-27018D01*
X32088Y-27018D01*
X32025Y-27081D01*
X32025Y-27411D01*
X32063Y-27503D01*
X32133Y-27573D01*
X32225Y-27611D01*
X32325Y-27612D01*
X32556Y-27612D01*
X32619Y-27549D01*
X32619Y-29477D01*
X31378Y-29477D01*
X31440Y-29452D01*
X31510Y-29381D01*
X31548Y-29289D01*
X31549Y-29190D01*
X31549Y-28403D01*
X31511Y-28311D01*
X31440Y-28241D01*
X31387Y-28218D01*
X31464Y-28190D01*
X31553Y-27950D01*
X31549Y-27837D01*
X31549Y-26061D01*
X31451Y-25824D01*
X31426Y-25800D01*
X31440Y-25794D01*
X31510Y-25724D01*
X31548Y-25632D01*
X31549Y-25532D01*
X31549Y-24745D01*
X31511Y-24654D01*
X31440Y-24583D01*
X31348Y-24545D01*
X31288Y-24545D01*
X31288Y-24083D01*
X30905Y-23700D01*
X30522Y-24083D01*
X30561Y-24188D01*
X30801Y-24277D01*
X31057Y-24268D01*
X31249Y-24188D01*
X31288Y-24083D01*
X31288Y-24545D01*
X31249Y-24545D01*
X30462Y-24545D01*
X30370Y-24583D01*
X30300Y-24653D01*
X30262Y-24745D01*
X30261Y-24844D01*
X30261Y-25631D01*
X30299Y-25723D01*
X30370Y-25794D01*
X30384Y-25800D01*
X30360Y-25823D01*
X30262Y-26060D01*
X30261Y-26316D01*
X30359Y-26553D01*
X30540Y-26734D01*
X30776Y-26832D01*
X31032Y-26832D01*
X31269Y-26734D01*
X31450Y-26553D01*
X31548Y-26317D01*
X31549Y-26061D01*
X31549Y-27837D01*
X31543Y-27694D01*
X31464Y-27502D01*
X31359Y-27463D01*
X31288Y-27534D01*
X31288Y-27392D01*
X31249Y-27287D01*
X31009Y-27198D01*
X30753Y-27208D01*
X30561Y-27287D01*
X30522Y-27392D01*
X30905Y-27775D01*
X31288Y-27392D01*
X31288Y-27534D01*
X30976Y-27846D01*
X30981Y-27852D01*
X30911Y-27922D01*
X30905Y-27917D01*
X30899Y-27922D01*
X30829Y-27852D01*
X30834Y-27846D01*
X30451Y-27463D01*
X30346Y-27502D01*
X30257Y-27742D01*
X30267Y-27998D01*
X30346Y-28190D01*
X30423Y-28218D01*
X30370Y-28240D01*
X30300Y-28311D01*
X30262Y-28403D01*
X30261Y-28502D01*
X30261Y-29289D01*
X30299Y-29381D01*
X30370Y-29451D01*
X30432Y-29477D01*
X29388Y-29477D01*
X29388Y-22520D01*
X29305Y-22318D01*
X29150Y-22163D01*
X28948Y-22080D01*
X28729Y-22079D01*
X28527Y-22163D01*
X28372Y-22317D01*
X28288Y-22520D01*
X28288Y-22738D01*
X28372Y-22941D01*
X28510Y-23079D01*
X28488Y-23079D01*
X28396Y-23118D01*
X28326Y-23188D01*
X28288Y-23280D01*
X28288Y-23517D01*
X28351Y-23579D01*
X28788Y-23579D01*
X28788Y-23572D01*
X28888Y-23572D01*
X28888Y-23579D01*
X29326Y-23579D01*
X29388Y-23517D01*
X29388Y-23280D01*
X29350Y-23188D01*
X29280Y-23118D01*
X29188Y-23079D01*
X29166Y-23079D01*
X29304Y-22941D01*
X29388Y-22739D01*
X29388Y-22520D01*
X29388Y-29477D01*
X29388Y-29477D01*
X29388Y-23979D01*
X29388Y-23742D01*
X29326Y-23679D01*
X28888Y-23679D01*
X28888Y-24117D01*
X28951Y-24179D01*
X29089Y-24179D01*
X29188Y-24179D01*
X29280Y-24141D01*
X29350Y-24071D01*
X29388Y-23979D01*
X29388Y-29477D01*
X28788Y-29477D01*
X28788Y-24117D01*
X28788Y-23679D01*
X28351Y-23679D01*
X28288Y-23742D01*
X28288Y-23979D01*
X28326Y-24071D01*
X28396Y-24141D01*
X28488Y-24179D01*
X28588Y-24179D01*
X28726Y-24179D01*
X28788Y-24117D01*
X28788Y-29477D01*
X28199Y-29477D01*
X28199Y-15798D01*
X36957Y-15798D01*
X36957Y-16227D01*
X36371Y-16227D01*
X36371Y-16084D01*
X36333Y-15992D01*
X36263Y-15922D01*
X36171Y-15884D01*
X36072Y-15884D01*
X35285Y-15884D01*
X35193Y-15921D01*
X35123Y-15992D01*
X35084Y-16084D01*
X35084Y-16183D01*
X35084Y-16970D01*
X35122Y-17062D01*
X35193Y-17132D01*
X35246Y-17155D01*
X35169Y-17183D01*
X35080Y-17423D01*
X35090Y-17679D01*
X35169Y-17871D01*
X35274Y-17910D01*
X35657Y-17527D01*
X35652Y-17521D01*
X35722Y-17451D01*
X35728Y-17456D01*
X35733Y-17451D01*
X35804Y-17521D01*
X35799Y-17527D01*
X36181Y-17910D01*
X36286Y-17871D01*
X36376Y-17631D01*
X36366Y-17375D01*
X36286Y-17183D01*
X36210Y-17155D01*
X36263Y-17133D01*
X36333Y-17062D01*
X36371Y-16971D01*
X36371Y-16871D01*
X36371Y-16827D01*
X36826Y-16827D01*
X36806Y-16929D01*
X36806Y-18773D01*
X36713Y-18866D01*
X36628Y-18866D01*
X36472Y-18930D01*
X36352Y-19050D01*
X36287Y-19206D01*
X36287Y-19375D01*
X36352Y-19531D01*
X36471Y-19651D01*
X36627Y-19716D01*
X36796Y-19716D01*
X36953Y-19651D01*
X36957Y-19647D01*
X36957Y-22839D01*
X36909Y-22829D01*
X36111Y-22829D01*
X36111Y-17981D01*
X35728Y-17598D01*
X35345Y-17981D01*
X35384Y-18086D01*
X35624Y-18175D01*
X35880Y-18165D01*
X36072Y-18086D01*
X36111Y-17981D01*
X36111Y-22829D01*
X35687Y-22829D01*
X35687Y-22454D01*
X35677Y-22198D01*
X35598Y-22006D01*
X35521Y-21977D01*
X35574Y-21955D01*
X35644Y-21885D01*
X35682Y-21793D01*
X35682Y-21694D01*
X35682Y-20907D01*
X35644Y-20815D01*
X35574Y-20745D01*
X35482Y-20706D01*
X35383Y-20706D01*
X34596Y-20706D01*
X34504Y-20744D01*
X34434Y-20815D01*
X34395Y-20906D01*
X34395Y-21006D01*
X34395Y-21793D01*
X34433Y-21885D01*
X34504Y-21955D01*
X34557Y-21977D01*
X34480Y-22006D01*
X34391Y-22246D01*
X34401Y-22502D01*
X34480Y-22694D01*
X34585Y-22733D01*
X34968Y-22350D01*
X34963Y-22344D01*
X35033Y-22274D01*
X35039Y-22279D01*
X35044Y-22274D01*
X35115Y-22344D01*
X35110Y-22350D01*
X35492Y-22733D01*
X35598Y-22694D01*
X35687Y-22454D01*
X35687Y-22829D01*
X35412Y-22829D01*
X35422Y-22804D01*
X35039Y-22421D01*
X34656Y-22804D01*
X34666Y-22829D01*
X33982Y-22829D01*
X33639Y-22487D01*
X33639Y-18573D01*
X33541Y-18336D01*
X33361Y-18155D01*
X33124Y-18057D01*
X32868Y-18057D01*
X32632Y-18154D01*
X32450Y-18335D01*
X32352Y-18572D01*
X32352Y-18828D01*
X32450Y-19064D01*
X32631Y-19246D01*
X32867Y-19344D01*
X33123Y-19344D01*
X33360Y-19246D01*
X33541Y-19065D01*
X33639Y-18829D01*
X33639Y-18573D01*
X33639Y-22487D01*
X33570Y-22417D01*
X33473Y-22352D01*
X33358Y-22329D01*
X31549Y-22329D01*
X31549Y-22186D01*
X31511Y-22094D01*
X31440Y-22024D01*
X31348Y-21986D01*
X31249Y-21986D01*
X30639Y-21986D01*
X30639Y-19044D01*
X30639Y-18257D01*
X30601Y-18165D01*
X30531Y-18095D01*
X30439Y-18057D01*
X30340Y-18057D01*
X29553Y-18057D01*
X29461Y-18095D01*
X29390Y-18165D01*
X29352Y-18257D01*
X29352Y-18356D01*
X29352Y-19143D01*
X29390Y-19235D01*
X29460Y-19306D01*
X29552Y-19344D01*
X29652Y-19344D01*
X30439Y-19344D01*
X30530Y-19306D01*
X30601Y-19236D01*
X30639Y-19144D01*
X30639Y-19044D01*
X30639Y-21986D01*
X30462Y-21986D01*
X30370Y-22024D01*
X30300Y-22094D01*
X30262Y-22186D01*
X30261Y-22285D01*
X30261Y-23072D01*
X30299Y-23164D01*
X30370Y-23235D01*
X30423Y-23257D01*
X30346Y-23285D01*
X30257Y-23525D01*
X30267Y-23781D01*
X30346Y-23973D01*
X30451Y-24012D01*
X30834Y-23629D01*
X30829Y-23624D01*
X30899Y-23553D01*
X30905Y-23559D01*
X30911Y-23553D01*
X30981Y-23624D01*
X30976Y-23629D01*
X31359Y-24012D01*
X31464Y-23973D01*
X31553Y-23734D01*
X31543Y-23478D01*
X31464Y-23285D01*
X31387Y-23257D01*
X31440Y-23235D01*
X31510Y-23165D01*
X31548Y-23073D01*
X31549Y-22973D01*
X31549Y-22929D01*
X33234Y-22929D01*
X33646Y-23342D01*
X33646Y-23342D01*
X33743Y-23407D01*
X33858Y-23429D01*
X35099Y-23429D01*
X35084Y-23466D01*
X35084Y-23565D01*
X35084Y-24352D01*
X35122Y-24444D01*
X35193Y-24514D01*
X35246Y-24536D01*
X35169Y-24565D01*
X35080Y-24805D01*
X35090Y-25061D01*
X35169Y-25253D01*
X35269Y-25290D01*
X33974Y-25290D01*
X33812Y-25128D01*
X33812Y-24466D01*
X33774Y-24374D01*
X33704Y-24304D01*
X33651Y-24281D01*
X33727Y-24253D01*
X33817Y-24013D01*
X33807Y-23757D01*
X33727Y-23565D01*
X33622Y-23526D01*
X33552Y-23597D01*
X33552Y-23455D01*
X33513Y-23350D01*
X33273Y-23261D01*
X33017Y-23271D01*
X32825Y-23350D01*
X32786Y-23455D01*
X33169Y-23838D01*
X33552Y-23455D01*
X33552Y-23597D01*
X33240Y-23909D01*
X33245Y-23915D01*
X33174Y-23985D01*
X33169Y-23980D01*
X33163Y-23985D01*
X33093Y-23915D01*
X33098Y-23909D01*
X32715Y-23526D01*
X32610Y-23565D01*
X32521Y-23805D01*
X32530Y-24061D01*
X32610Y-24253D01*
X32687Y-24281D01*
X32634Y-24303D01*
X32563Y-24374D01*
X32525Y-24466D01*
X32525Y-24565D01*
X32525Y-25352D01*
X32563Y-25444D01*
X32633Y-25514D01*
X32725Y-25552D01*
X32825Y-25552D01*
X33388Y-25552D01*
X33638Y-25802D01*
X33638Y-25802D01*
X33735Y-25867D01*
X33850Y-25890D01*
X36515Y-25890D01*
X36515Y-25890D01*
X36630Y-25867D01*
X36630Y-25867D01*
X36727Y-25802D01*
X36957Y-25572D01*
X36957Y-27184D01*
X36678Y-27463D01*
X36371Y-27463D01*
X36371Y-27320D01*
X36333Y-27228D01*
X36263Y-27158D01*
X36210Y-27136D01*
X36286Y-27107D01*
X36376Y-26867D01*
X36366Y-26612D01*
X36286Y-26419D01*
X36181Y-26380D01*
X36111Y-26451D01*
X36111Y-26310D01*
X36072Y-26205D01*
X35832Y-26115D01*
X35576Y-26125D01*
X35384Y-26205D01*
X35345Y-26310D01*
X35728Y-26693D01*
X36111Y-26310D01*
X36111Y-26451D01*
X35799Y-26763D01*
X35804Y-26769D01*
X35733Y-26840D01*
X35728Y-26834D01*
X35722Y-26840D01*
X35652Y-26769D01*
X35657Y-26763D01*
X35274Y-26380D01*
X35169Y-26419D01*
X35080Y-26659D01*
X35090Y-26915D01*
X35169Y-27107D01*
X35246Y-27136D01*
X35193Y-27158D01*
X35123Y-27228D01*
X35084Y-27320D01*
X35084Y-27419D01*
X35084Y-28206D01*
X35122Y-28298D01*
X35193Y-28369D01*
X35284Y-28407D01*
X35384Y-28407D01*
X36171Y-28407D01*
X36263Y-28369D01*
X36333Y-28299D01*
X36371Y-28207D01*
X36371Y-28107D01*
X36371Y-28063D01*
X36803Y-28063D01*
X36803Y-28063D01*
X36917Y-28040D01*
X36917Y-28040D01*
X36957Y-28014D01*
X36957Y-29477D01*
X36957Y-29477D01*
G37*
G54D16*
X36957Y-29477D02*
X34312Y-29477D01*
X34312Y-26841D01*
X34215Y-26604D01*
X34034Y-26423D01*
X33797Y-26325D01*
X33541Y-26324D01*
X33305Y-26422D01*
X33280Y-26447D01*
X33274Y-26433D01*
X33204Y-26363D01*
X33112Y-26325D01*
X33013Y-26324D01*
X32781Y-26325D01*
X32719Y-26387D01*
X32719Y-26918D01*
X32727Y-26918D01*
X32727Y-27018D01*
X32719Y-27018D01*
X32719Y-27549D01*
X32781Y-27612D01*
X33013Y-27612D01*
X33112Y-27611D01*
X33204Y-27573D01*
X33274Y-27503D01*
X33280Y-27489D01*
X33304Y-27513D01*
X33540Y-27611D01*
X33796Y-27612D01*
X34033Y-27514D01*
X34214Y-27333D01*
X34312Y-27097D01*
X34312Y-26841D01*
X34312Y-29477D01*
X32619Y-29477D01*
X32619Y-27549D01*
X32619Y-27018D01*
X32619Y-26918D01*
X32619Y-26387D01*
X32556Y-26325D01*
X32325Y-26324D01*
X32225Y-26325D01*
X32133Y-26363D01*
X32063Y-26433D01*
X32025Y-26525D01*
X32025Y-26856D01*
X32088Y-26918D01*
X32619Y-26918D01*
X32619Y-27018D01*
X32088Y-27018D01*
X32025Y-27081D01*
X32025Y-27411D01*
X32063Y-27503D01*
X32133Y-27573D01*
X32225Y-27611D01*
X32325Y-27612D01*
X32556Y-27612D01*
X32619Y-27549D01*
X32619Y-29477D01*
X31378Y-29477D01*
X31440Y-29452D01*
X31510Y-29381D01*
X31548Y-29289D01*
X31549Y-29190D01*
X31549Y-28403D01*
X31511Y-28311D01*
X31440Y-28241D01*
X31387Y-28218D01*
X31464Y-28190D01*
X31553Y-27950D01*
X31549Y-27837D01*
X31549Y-26061D01*
X31451Y-25824D01*
X31426Y-25800D01*
X31440Y-25794D01*
X31510Y-25724D01*
X31548Y-25632D01*
X31549Y-25532D01*
X31549Y-24745D01*
X31511Y-24654D01*
X31440Y-24583D01*
X31348Y-24545D01*
X31288Y-24545D01*
X31288Y-24083D01*
X30905Y-23700D01*
X30522Y-24083D01*
X30561Y-24188D01*
X30801Y-24277D01*
X31057Y-24268D01*
X31249Y-24188D01*
X31288Y-24083D01*
X31288Y-24545D01*
X31249Y-24545D01*
X30462Y-24545D01*
X30370Y-24583D01*
X30300Y-24653D01*
X30262Y-24745D01*
X30261Y-24844D01*
X30261Y-25631D01*
X30299Y-25723D01*
X30370Y-25794D01*
X30384Y-25800D01*
X30360Y-25823D01*
X30262Y-26060D01*
X30261Y-26316D01*
X30359Y-26553D01*
X30540Y-26734D01*
X30776Y-26832D01*
X31032Y-26832D01*
X31269Y-26734D01*
X31450Y-26553D01*
X31548Y-26317D01*
X31549Y-26061D01*
X31549Y-27837D01*
X31543Y-27694D01*
X31464Y-27502D01*
X31359Y-27463D01*
X31288Y-27534D01*
X31288Y-27392D01*
X31249Y-27287D01*
X31009Y-27198D01*
X30753Y-27208D01*
X30561Y-27287D01*
X30522Y-27392D01*
X30905Y-27775D01*
X31288Y-27392D01*
X31288Y-27534D01*
X30976Y-27846D01*
X30981Y-27852D01*
X30911Y-27922D01*
X30905Y-27917D01*
X30899Y-27922D01*
X30829Y-27852D01*
X30834Y-27846D01*
X30451Y-27463D01*
X30346Y-27502D01*
X30257Y-27742D01*
X30267Y-27998D01*
X30346Y-28190D01*
X30423Y-28218D01*
X30370Y-28240D01*
X30300Y-28311D01*
X30262Y-28403D01*
X30261Y-28502D01*
X30261Y-29289D01*
X30299Y-29381D01*
X30370Y-29451D01*
X30432Y-29477D01*
X29388Y-29477D01*
X29388Y-22520D01*
X29305Y-22318D01*
X29150Y-22163D01*
X28948Y-22080D01*
X28729Y-22079D01*
X28527Y-22163D01*
X28372Y-22317D01*
X28288Y-22520D01*
X28288Y-22738D01*
X28372Y-22941D01*
X28510Y-23079D01*
X28488Y-23079D01*
X28396Y-23118D01*
X28326Y-23188D01*
X28288Y-23280D01*
X28288Y-23517D01*
X28351Y-23579D01*
X28788Y-23579D01*
X28788Y-23572D01*
X28888Y-23572D01*
X28888Y-23579D01*
X29326Y-23579D01*
X29388Y-23517D01*
X29388Y-23280D01*
X29350Y-23188D01*
X29280Y-23118D01*
X29188Y-23079D01*
X29166Y-23079D01*
X29304Y-22941D01*
X29388Y-22739D01*
X29388Y-22520D01*
X29388Y-29477D01*
X29388Y-29477D01*
X29388Y-23979D01*
X29388Y-23742D01*
X29326Y-23679D01*
X28888Y-23679D01*
X28888Y-24117D01*
X28951Y-24179D01*
X29089Y-24179D01*
X29188Y-24179D01*
X29280Y-24141D01*
X29350Y-24071D01*
X29388Y-23979D01*
X29388Y-29477D01*
X28788Y-29477D01*
X28788Y-24117D01*
X28788Y-23679D01*
X28351Y-23679D01*
X28288Y-23742D01*
X28288Y-23979D01*
X28326Y-24071D01*
X28396Y-24141D01*
X28488Y-24179D01*
X28588Y-24179D01*
X28726Y-24179D01*
X28788Y-24117D01*
X28788Y-29477D01*
X28199Y-29477D01*
X28199Y-15798D01*
X36957Y-15798D01*
X36957Y-16227D01*
X36371Y-16227D01*
X36371Y-16084D01*
X36333Y-15992D01*
X36263Y-15922D01*
X36171Y-15884D01*
X36072Y-15884D01*
X35285Y-15884D01*
X35193Y-15921D01*
X35123Y-15992D01*
X35084Y-16084D01*
X35084Y-16183D01*
X35084Y-16970D01*
X35122Y-17062D01*
X35193Y-17132D01*
X35246Y-17155D01*
X35169Y-17183D01*
X35080Y-17423D01*
X35090Y-17679D01*
X35169Y-17871D01*
X35274Y-17910D01*
X35657Y-17527D01*
X35652Y-17521D01*
X35722Y-17451D01*
X35728Y-17456D01*
X35733Y-17451D01*
X35804Y-17521D01*
X35799Y-17527D01*
X36181Y-17910D01*
X36286Y-17871D01*
X36376Y-17631D01*
X36366Y-17375D01*
X36286Y-17183D01*
X36210Y-17155D01*
X36263Y-17133D01*
X36333Y-17062D01*
X36371Y-16971D01*
X36371Y-16871D01*
X36371Y-16827D01*
X36826Y-16827D01*
X36806Y-16929D01*
X36806Y-18773D01*
X36713Y-18866D01*
X36628Y-18866D01*
X36472Y-18930D01*
X36352Y-19050D01*
X36287Y-19206D01*
X36287Y-19375D01*
X36352Y-19531D01*
X36471Y-19651D01*
X36627Y-19716D01*
X36796Y-19716D01*
X36953Y-19651D01*
X36957Y-19647D01*
X36957Y-22839D01*
X36909Y-22829D01*
X36111Y-22829D01*
X36111Y-17981D01*
X35728Y-17598D01*
X35345Y-17981D01*
X35384Y-18086D01*
X35624Y-18175D01*
X35880Y-18165D01*
X36072Y-18086D01*
X36111Y-17981D01*
X36111Y-22829D01*
X35687Y-22829D01*
X35687Y-22454D01*
X35677Y-22198D01*
X35598Y-22006D01*
X35521Y-21977D01*
X35574Y-21955D01*
X35644Y-21885D01*
X35682Y-21793D01*
X35682Y-21694D01*
X35682Y-20907D01*
X35644Y-20815D01*
X35574Y-20745D01*
X35482Y-20706D01*
X35383Y-20706D01*
X34596Y-20706D01*
X34504Y-20744D01*
X34434Y-20815D01*
X34395Y-20906D01*
X34395Y-21006D01*
X34395Y-21793D01*
X34433Y-21885D01*
X34504Y-21955D01*
X34557Y-21977D01*
X34480Y-22006D01*
X34391Y-22246D01*
X34401Y-22502D01*
X34480Y-22694D01*
X34585Y-22733D01*
X34968Y-22350D01*
X34963Y-22344D01*
X35033Y-22274D01*
X35039Y-22279D01*
X35044Y-22274D01*
X35115Y-22344D01*
X35110Y-22350D01*
X35492Y-22733D01*
X35598Y-22694D01*
X35687Y-22454D01*
X35687Y-22829D01*
X35412Y-22829D01*
X35422Y-22804D01*
X35039Y-22421D01*
X34656Y-22804D01*
X34666Y-22829D01*
X33982Y-22829D01*
X33639Y-22487D01*
X33639Y-18573D01*
X33541Y-18336D01*
X33361Y-18155D01*
X33124Y-18057D01*
X32868Y-18057D01*
X32632Y-18154D01*
X32450Y-18335D01*
X32352Y-18572D01*
X32352Y-18828D01*
X32450Y-19064D01*
X32631Y-19246D01*
X32867Y-19344D01*
X33123Y-19344D01*
X33360Y-19246D01*
X33541Y-19065D01*
X33639Y-18829D01*
X33639Y-18573D01*
X33639Y-22487D01*
X33570Y-22417D01*
X33473Y-22352D01*
X33358Y-22329D01*
X31549Y-22329D01*
X31549Y-22186D01*
X31511Y-22094D01*
X31440Y-22024D01*
X31348Y-21986D01*
X31249Y-21986D01*
X30639Y-21986D01*
X30639Y-19044D01*
X30639Y-18257D01*
X30601Y-18165D01*
X30531Y-18095D01*
X30439Y-18057D01*
X30340Y-18057D01*
X29553Y-18057D01*
X29461Y-18095D01*
X29390Y-18165D01*
X29352Y-18257D01*
X29352Y-18356D01*
X29352Y-19143D01*
X29390Y-19235D01*
X29460Y-19306D01*
X29552Y-19344D01*
X29652Y-19344D01*
X30439Y-19344D01*
X30530Y-19306D01*
X30601Y-19236D01*
X30639Y-19144D01*
X30639Y-19044D01*
X30639Y-21986D01*
X30462Y-21986D01*
X30370Y-22024D01*
X30300Y-22094D01*
X30262Y-22186D01*
X30261Y-22285D01*
X30261Y-23072D01*
X30299Y-23164D01*
X30370Y-23235D01*
X30423Y-23257D01*
X30346Y-23285D01*
X30257Y-23525D01*
X30267Y-23781D01*
X30346Y-23973D01*
X30451Y-24012D01*
X30834Y-23629D01*
X30829Y-23624D01*
X30899Y-23553D01*
X30905Y-23559D01*
X30911Y-23553D01*
X30981Y-23624D01*
X30976Y-23629D01*
X31359Y-24012D01*
X31464Y-23973D01*
X31553Y-23734D01*
X31543Y-23478D01*
X31464Y-23285D01*
X31387Y-23257D01*
X31440Y-23235D01*
X31510Y-23165D01*
X31548Y-23073D01*
X31549Y-22973D01*
X31549Y-22929D01*
X33234Y-22929D01*
X33646Y-23342D01*
X33646Y-23342D01*
X33743Y-23407D01*
X33858Y-23429D01*
X35099Y-23429D01*
X35084Y-23466D01*
X35084Y-23565D01*
X35084Y-24352D01*
X35122Y-24444D01*
X35193Y-24514D01*
X35246Y-24536D01*
X35169Y-24565D01*
X35080Y-24805D01*
X35090Y-25061D01*
X35169Y-25253D01*
X35269Y-25290D01*
X33974Y-25290D01*
X33812Y-25128D01*
X33812Y-24466D01*
X33774Y-24374D01*
X33704Y-24304D01*
X33651Y-24281D01*
X33727Y-24253D01*
X33817Y-24013D01*
X33807Y-23757D01*
X33727Y-23565D01*
X33622Y-23526D01*
X33552Y-23597D01*
X33552Y-23455D01*
X33513Y-23350D01*
X33273Y-23261D01*
X33017Y-23271D01*
X32825Y-23350D01*
X32786Y-23455D01*
X33169Y-23838D01*
X33552Y-23455D01*
X33552Y-23597D01*
X33240Y-23909D01*
X33245Y-23915D01*
X33174Y-23985D01*
X33169Y-23980D01*
X33163Y-23985D01*
X33093Y-23915D01*
X33098Y-23909D01*
X32715Y-23526D01*
X32610Y-23565D01*
X32521Y-23805D01*
X32530Y-24061D01*
X32610Y-24253D01*
X32687Y-24281D01*
X32634Y-24303D01*
X32563Y-24374D01*
X32525Y-24466D01*
X32525Y-24565D01*
X32525Y-25352D01*
X32563Y-25444D01*
X32633Y-25514D01*
X32725Y-25552D01*
X32825Y-25552D01*
X33388Y-25552D01*
X33638Y-25802D01*
X33638Y-25802D01*
X33735Y-25867D01*
X33850Y-25890D01*
X36515Y-25890D01*
X36515Y-25890D01*
X36630Y-25867D01*
X36630Y-25867D01*
X36727Y-25802D01*
X36957Y-25572D01*
X36957Y-27184D01*
X36678Y-27463D01*
X36371Y-27463D01*
X36371Y-27320D01*
X36333Y-27228D01*
X36263Y-27158D01*
X36210Y-27136D01*
X36286Y-27107D01*
X36376Y-26867D01*
X36366Y-26612D01*
X36286Y-26419D01*
X36181Y-26380D01*
X36111Y-26451D01*
X36111Y-26310D01*
X36072Y-26205D01*
X35832Y-26115D01*
X35576Y-26125D01*
X35384Y-26205D01*
X35345Y-26310D01*
X35728Y-26693D01*
X36111Y-26310D01*
X36111Y-26451D01*
X35799Y-26763D01*
X35804Y-26769D01*
X35733Y-26840D01*
X35728Y-26834D01*
X35722Y-26840D01*
X35652Y-26769D01*
X35657Y-26763D01*
X35274Y-26380D01*
X35169Y-26419D01*
X35080Y-26659D01*
X35090Y-26915D01*
X35169Y-27107D01*
X35246Y-27136D01*
X35193Y-27158D01*
X35123Y-27228D01*
X35084Y-27320D01*
X35084Y-27419D01*
X35084Y-28206D01*
X35122Y-28298D01*
X35193Y-28369D01*
X35284Y-28407D01*
X35384Y-28407D01*
X36171Y-28407D01*
X36263Y-28369D01*
X36333Y-28299D01*
X36371Y-28207D01*
X36371Y-28107D01*
X36371Y-28063D01*
X36803Y-28063D01*
X36803Y-28063D01*
X36917Y-28040D01*
X36917Y-28040D01*
X36957Y-28014D01*
X36957Y-29477D01*
M02*
