G04 (created by PCBNEW (2013-07-07 BZR 4022)-stable) date 16.5.2014 14:16:54*
%MOIN*%
G04 Gerber Fmt 3.4, Leading zero omitted, Abs format*
%FSLAX34Y34*%
G01*
G70*
G90*
G04 APERTURE LIST*
%ADD10C,0.00590551*%
%ADD11C,0.005*%
%ADD12C,0.006*%
%ADD13C,0.015*%
%ADD14C,0.0039*%
%ADD15C,0.01*%
%ADD16C,0.00787402*%
%ADD17C,0.0108*%
%ADD18C,0.0043*%
%ADD19C,0.012*%
%ADD20C,0.00492126*%
%ADD21C,0.00688976*%
%ADD22C,0.00393701*%
G04 APERTURE END LIST*
G54D10*
G54D11*
X33166Y-28938D02*
X33166Y-29188D01*
X33166Y-29188D02*
X33566Y-29188D01*
X33566Y-28488D02*
X33166Y-28488D01*
X33166Y-28488D02*
X33166Y-28738D01*
X33116Y-28938D02*
X33166Y-28938D01*
X33166Y-28738D02*
X33116Y-28738D01*
X33566Y-29188D02*
X33566Y-28488D01*
X33116Y-28738D02*
X33116Y-28938D01*
X35276Y-19980D02*
X35056Y-19980D01*
X35786Y-19725D02*
X36006Y-19725D01*
X35786Y-20235D02*
X36006Y-20235D01*
X35276Y-20415D02*
X35276Y-19545D01*
X35276Y-19545D02*
X35786Y-19545D01*
X35786Y-19545D02*
X35786Y-20415D01*
X35786Y-20415D02*
X35276Y-20415D01*
G54D12*
X29338Y-24129D02*
X28338Y-24129D01*
X28338Y-24129D02*
X28338Y-22129D01*
X28338Y-22129D02*
X29338Y-22129D01*
X29338Y-22129D02*
X29338Y-24129D01*
G54D13*
X39681Y-17031D02*
X37681Y-17031D01*
X37681Y-17031D02*
X37681Y-29031D01*
X37681Y-29031D02*
X39681Y-29031D01*
X39681Y-29031D02*
X39681Y-17031D01*
G54D10*
X43307Y-25984D02*
X43503Y-25984D01*
X43503Y-25984D02*
X43503Y-26377D01*
X43503Y-26377D02*
X43897Y-26377D01*
X43897Y-26377D02*
X43897Y-19094D01*
X43897Y-19094D02*
X43700Y-19094D01*
X43700Y-19094D02*
X43503Y-19094D01*
X43503Y-19094D02*
X43503Y-19488D01*
X43503Y-19488D02*
X43307Y-19488D01*
X41732Y-25000D02*
X41732Y-18897D01*
X41732Y-25000D02*
X41732Y-26574D01*
X41732Y-18897D02*
X43307Y-18897D01*
X43307Y-18897D02*
X43307Y-20275D01*
X41732Y-26574D02*
X43307Y-26574D01*
X43307Y-26574D02*
X43307Y-20275D01*
G54D14*
X36329Y-18499D02*
G75*
G03X36329Y-18499I-50J0D01*
G74*
G01*
X35829Y-18499D02*
X36229Y-18499D01*
X36229Y-18499D02*
X36229Y-19099D01*
X36229Y-19099D02*
X35829Y-19099D01*
X35429Y-19099D02*
X35029Y-19099D01*
X35029Y-19099D02*
X35029Y-18499D01*
X35029Y-18499D02*
X35429Y-18499D01*
G54D15*
X35378Y-17527D02*
X35028Y-17527D01*
X35328Y-17927D02*
X36128Y-17927D01*
X36128Y-17927D02*
X36128Y-17877D01*
X36128Y-17877D02*
X35328Y-17877D01*
X36328Y-17827D02*
X35128Y-17827D01*
X36728Y-17027D02*
G75*
G03X36728Y-17027I-1000J0D01*
G74*
G01*
X34689Y-22350D02*
X34339Y-22350D01*
X34639Y-22750D02*
X35439Y-22750D01*
X35439Y-22750D02*
X35439Y-22700D01*
X35439Y-22700D02*
X34639Y-22700D01*
X35639Y-22650D02*
X34439Y-22650D01*
X36039Y-21850D02*
G75*
G03X36039Y-21850I-1000J0D01*
G74*
G01*
X33519Y-23909D02*
X33869Y-23909D01*
X33569Y-23509D02*
X32769Y-23509D01*
X32769Y-23509D02*
X32769Y-23559D01*
X32769Y-23559D02*
X33569Y-23559D01*
X32569Y-23609D02*
X33769Y-23609D01*
X34169Y-24409D02*
G75*
G03X34169Y-24409I-1000J0D01*
G74*
G01*
X36078Y-26763D02*
X36428Y-26763D01*
X36128Y-26363D02*
X35328Y-26363D01*
X35328Y-26363D02*
X35328Y-26413D01*
X35328Y-26413D02*
X36128Y-26413D01*
X35128Y-26463D02*
X36328Y-26463D01*
X36728Y-27263D02*
G75*
G03X36728Y-27263I-1000J0D01*
G74*
G01*
X43314Y-28991D02*
X43314Y-29341D01*
X43714Y-29041D02*
X43714Y-28241D01*
X43714Y-28241D02*
X43664Y-28241D01*
X43664Y-28241D02*
X43664Y-29041D01*
X43614Y-28041D02*
X43614Y-29241D01*
X43814Y-28641D02*
G75*
G03X43814Y-28641I-1000J0D01*
G74*
G01*
X31255Y-27846D02*
X31605Y-27846D01*
X31305Y-27446D02*
X30505Y-27446D01*
X30505Y-27446D02*
X30505Y-27496D01*
X30505Y-27496D02*
X31305Y-27496D01*
X30305Y-27546D02*
X31505Y-27546D01*
X31905Y-28346D02*
G75*
G03X31905Y-28346I-1000J0D01*
G74*
G01*
X30555Y-23629D02*
X30205Y-23629D01*
X30505Y-24029D02*
X31305Y-24029D01*
X31305Y-24029D02*
X31305Y-23979D01*
X31305Y-23979D02*
X30505Y-23979D01*
X31505Y-23929D02*
X30305Y-23929D01*
X31905Y-23129D02*
G75*
G03X31905Y-23129I-1000J0D01*
G74*
G01*
X30555Y-26188D02*
X30205Y-26188D01*
X30505Y-26588D02*
X31305Y-26588D01*
X31305Y-26588D02*
X31305Y-26538D01*
X31305Y-26538D02*
X30505Y-26538D01*
X31505Y-26488D02*
X30305Y-26488D01*
X31905Y-25688D02*
G75*
G03X31905Y-25688I-1000J0D01*
G74*
G01*
X33669Y-27318D02*
X33669Y-27668D01*
X34069Y-27368D02*
X34069Y-26568D01*
X34069Y-26568D02*
X34019Y-26568D01*
X34019Y-26568D02*
X34019Y-27368D01*
X33969Y-26368D02*
X33969Y-27568D01*
X34169Y-26968D02*
G75*
G03X34169Y-26968I-1000J0D01*
G74*
G01*
X35378Y-24909D02*
X35028Y-24909D01*
X35328Y-25309D02*
X36128Y-25309D01*
X36128Y-25309D02*
X36128Y-25259D01*
X36128Y-25259D02*
X35328Y-25259D01*
X36328Y-25209D02*
X35128Y-25209D01*
X36728Y-24409D02*
G75*
G03X36728Y-24409I-1000J0D01*
G74*
G01*
X34296Y-17350D02*
X34546Y-18200D01*
X34296Y-20000D02*
X34446Y-19550D01*
X34646Y-18700D02*
G75*
G03X34646Y-18700I-3150J0D01*
G74*
G01*
X34446Y-17900D02*
X34446Y-19500D01*
X34346Y-19850D02*
X34346Y-17600D01*
X34346Y-17600D02*
X34346Y-17950D01*
X34596Y-19250D02*
X34596Y-18200D01*
X34496Y-17850D02*
X34496Y-19550D01*
X34396Y-19800D02*
X34396Y-17600D01*
X34396Y-17600D02*
X34396Y-17650D01*
X34296Y-20100D02*
X34296Y-17300D01*
X34046Y-19250D02*
X34046Y-19600D01*
G54D11*
X36496Y-22204D02*
X37126Y-22204D01*
X37126Y-22244D02*
X36496Y-22244D01*
X37126Y-21299D02*
X37126Y-22401D01*
X37126Y-22401D02*
X36496Y-22401D01*
X36496Y-22401D02*
X36496Y-21299D01*
X36496Y-21299D02*
X37126Y-21299D01*
G54D14*
X34373Y-28764D02*
X34073Y-28764D01*
X34073Y-28693D01*
X34087Y-28650D01*
X34116Y-28621D01*
X34144Y-28607D01*
X34201Y-28593D01*
X34244Y-28593D01*
X34301Y-28607D01*
X34330Y-28621D01*
X34359Y-28650D01*
X34373Y-28693D01*
X34373Y-28764D01*
X34373Y-28307D02*
X34373Y-28479D01*
X34373Y-28393D02*
X34073Y-28393D01*
X34116Y-28421D01*
X34144Y-28450D01*
X34159Y-28479D01*
G54D16*
X34411Y-19685D02*
X34373Y-19666D01*
X34336Y-19628D01*
X34280Y-19572D01*
X34242Y-19553D01*
X34205Y-19553D01*
X34223Y-19647D02*
X34186Y-19628D01*
X34148Y-19591D01*
X34130Y-19516D01*
X34130Y-19385D01*
X34148Y-19310D01*
X34186Y-19272D01*
X34223Y-19253D01*
X34298Y-19253D01*
X34336Y-19272D01*
X34373Y-19310D01*
X34392Y-19385D01*
X34392Y-19516D01*
X34373Y-19591D01*
X34336Y-19628D01*
X34298Y-19647D01*
X34223Y-19647D01*
X34767Y-19647D02*
X34542Y-19647D01*
X34655Y-19647D02*
X34655Y-19253D01*
X34617Y-19310D01*
X34580Y-19347D01*
X34542Y-19366D01*
X28646Y-21812D02*
X28646Y-21419D01*
X28796Y-21419D01*
X28833Y-21437D01*
X28852Y-21456D01*
X28871Y-21494D01*
X28871Y-21550D01*
X28852Y-21587D01*
X28833Y-21606D01*
X28796Y-21625D01*
X28646Y-21625D01*
X29021Y-21456D02*
X29040Y-21437D01*
X29077Y-21419D01*
X29171Y-21419D01*
X29208Y-21437D01*
X29227Y-21456D01*
X29246Y-21494D01*
X29246Y-21531D01*
X29227Y-21587D01*
X29002Y-21812D01*
X29246Y-21812D01*
G54D15*
X38287Y-16303D02*
X38287Y-15903D01*
X38439Y-15903D01*
X38477Y-15922D01*
X38496Y-15941D01*
X38516Y-15979D01*
X38516Y-16036D01*
X38496Y-16075D01*
X38477Y-16094D01*
X38439Y-16113D01*
X38287Y-16113D01*
X38649Y-15903D02*
X38896Y-15903D01*
X38763Y-16056D01*
X38820Y-16056D01*
X38858Y-16075D01*
X38877Y-16094D01*
X38896Y-16132D01*
X38896Y-16227D01*
X38877Y-16265D01*
X38858Y-16284D01*
X38820Y-16303D01*
X38706Y-16303D01*
X38668Y-16284D01*
X38649Y-16265D01*
G54D17*
G54D16*
X37382Y-29649D02*
X37364Y-29668D01*
X37307Y-29686D01*
X37270Y-29686D01*
X37214Y-29668D01*
X37176Y-29630D01*
X37157Y-29593D01*
X37139Y-29518D01*
X37139Y-29461D01*
X37157Y-29386D01*
X37176Y-29349D01*
X37214Y-29311D01*
X37270Y-29293D01*
X37307Y-29293D01*
X37364Y-29311D01*
X37382Y-29330D01*
X37626Y-29293D02*
X37701Y-29293D01*
X37739Y-29311D01*
X37776Y-29349D01*
X37795Y-29424D01*
X37795Y-29555D01*
X37776Y-29630D01*
X37739Y-29668D01*
X37701Y-29686D01*
X37626Y-29686D01*
X37589Y-29668D01*
X37551Y-29630D01*
X37532Y-29555D01*
X37532Y-29424D01*
X37551Y-29349D01*
X37589Y-29311D01*
X37626Y-29293D01*
X37964Y-29686D02*
X37964Y-29293D01*
X38188Y-29686D01*
X38188Y-29293D01*
X38376Y-29686D02*
X38376Y-29293D01*
X38601Y-29686D01*
X38601Y-29293D01*
X38695Y-29724D02*
X38995Y-29724D01*
X39295Y-29686D02*
X39070Y-29686D01*
X39182Y-29686D02*
X39182Y-29293D01*
X39145Y-29349D01*
X39107Y-29386D01*
X39070Y-29405D01*
X39445Y-29330D02*
X39463Y-29311D01*
X39501Y-29293D01*
X39595Y-29293D01*
X39632Y-29311D01*
X39651Y-29330D01*
X39670Y-29368D01*
X39670Y-29405D01*
X39651Y-29461D01*
X39426Y-29686D01*
X39670Y-29686D01*
X39801Y-29293D02*
X40063Y-29686D01*
X40063Y-29293D02*
X39801Y-29686D01*
X40194Y-29330D02*
X40213Y-29311D01*
X40251Y-29293D01*
X40344Y-29293D01*
X40382Y-29311D01*
X40401Y-29330D01*
X40419Y-29368D01*
X40419Y-29405D01*
X40401Y-29461D01*
X40176Y-29686D01*
X40419Y-29686D01*
G54D12*
X42298Y-18625D02*
X42298Y-18325D01*
X42412Y-18325D01*
X42441Y-18339D01*
X42455Y-18353D01*
X42469Y-18382D01*
X42469Y-18425D01*
X42455Y-18453D01*
X42441Y-18468D01*
X42412Y-18482D01*
X42298Y-18482D01*
X42755Y-18625D02*
X42583Y-18625D01*
X42669Y-18625D02*
X42669Y-18325D01*
X42641Y-18368D01*
X42612Y-18396D01*
X42583Y-18411D01*
X43231Y-25366D02*
X42931Y-25366D01*
X43145Y-25266D01*
X42931Y-25166D01*
X43231Y-25166D01*
X42931Y-24966D02*
X42931Y-24909D01*
X42945Y-24880D01*
X42974Y-24852D01*
X43031Y-24837D01*
X43131Y-24837D01*
X43188Y-24852D01*
X43217Y-24880D01*
X43231Y-24909D01*
X43231Y-24966D01*
X43217Y-24994D01*
X43188Y-25023D01*
X43131Y-25037D01*
X43031Y-25037D01*
X42974Y-25023D01*
X42945Y-24994D01*
X42931Y-24966D01*
X43231Y-24566D02*
X43231Y-24709D01*
X42931Y-24709D01*
X43074Y-24466D02*
X43074Y-24366D01*
X43231Y-24323D02*
X43231Y-24466D01*
X42931Y-24466D01*
X42931Y-24323D01*
X42931Y-24223D02*
X43231Y-24023D01*
X42931Y-24023D02*
X43231Y-24223D01*
X43260Y-23980D02*
X43260Y-23752D01*
X43074Y-23580D02*
X43074Y-23680D01*
X43231Y-23680D02*
X42931Y-23680D01*
X42931Y-23537D01*
X43231Y-23423D02*
X42931Y-23423D01*
X42931Y-23309D01*
X42945Y-23280D01*
X42960Y-23266D01*
X42988Y-23252D01*
X43031Y-23252D01*
X43060Y-23266D01*
X43074Y-23280D01*
X43088Y-23309D01*
X43088Y-23423D01*
X43203Y-22952D02*
X43217Y-22966D01*
X43231Y-23009D01*
X43231Y-23037D01*
X43217Y-23080D01*
X43188Y-23109D01*
X43160Y-23123D01*
X43103Y-23137D01*
X43060Y-23137D01*
X43003Y-23123D01*
X42974Y-23109D01*
X42945Y-23080D01*
X42931Y-23037D01*
X42931Y-23009D01*
X42945Y-22966D01*
X42960Y-22952D01*
X43260Y-22894D02*
X43260Y-22666D01*
X43231Y-22423D02*
X43088Y-22523D01*
X43231Y-22594D02*
X42931Y-22594D01*
X42931Y-22480D01*
X42945Y-22452D01*
X42960Y-22437D01*
X42988Y-22423D01*
X43031Y-22423D01*
X43060Y-22437D01*
X43074Y-22452D01*
X43088Y-22480D01*
X43088Y-22594D01*
X43203Y-22123D02*
X43217Y-22137D01*
X43231Y-22180D01*
X43231Y-22209D01*
X43217Y-22252D01*
X43188Y-22280D01*
X43160Y-22294D01*
X43103Y-22309D01*
X43060Y-22309D01*
X43003Y-22294D01*
X42974Y-22280D01*
X42945Y-22252D01*
X42931Y-22209D01*
X42931Y-22180D01*
X42945Y-22137D01*
X42960Y-22123D01*
X43231Y-21994D02*
X42931Y-21994D01*
X42931Y-21880D01*
X42945Y-21852D01*
X42960Y-21837D01*
X42988Y-21823D01*
X43031Y-21823D01*
X43060Y-21837D01*
X43074Y-21852D01*
X43088Y-21880D01*
X43088Y-21994D01*
X42931Y-21737D02*
X42931Y-21566D01*
X43231Y-21652D02*
X42931Y-21652D01*
X43260Y-21537D02*
X43260Y-21309D01*
X42960Y-21252D02*
X42945Y-21237D01*
X42931Y-21209D01*
X42931Y-21137D01*
X42945Y-21109D01*
X42960Y-21094D01*
X42988Y-21080D01*
X43017Y-21080D01*
X43060Y-21094D01*
X43231Y-21266D01*
X43231Y-21080D01*
X43031Y-20823D02*
X43231Y-20823D01*
X42917Y-20894D02*
X43131Y-20966D01*
X43131Y-20780D01*
X43231Y-20666D02*
X42931Y-20666D01*
X42931Y-20552D01*
X42945Y-20523D01*
X42960Y-20509D01*
X42988Y-20494D01*
X43031Y-20494D01*
X43060Y-20509D01*
X43074Y-20523D01*
X43088Y-20552D01*
X43088Y-20666D01*
X42931Y-20309D02*
X42931Y-20252D01*
X42945Y-20223D01*
X42974Y-20194D01*
X43031Y-20180D01*
X43131Y-20180D01*
X43188Y-20194D01*
X43217Y-20223D01*
X43231Y-20252D01*
X43231Y-20309D01*
X43217Y-20337D01*
X43188Y-20366D01*
X43131Y-20380D01*
X43031Y-20380D01*
X42974Y-20366D01*
X42945Y-20337D01*
X42931Y-20309D01*
X43217Y-20066D02*
X43231Y-20023D01*
X43231Y-19952D01*
X43217Y-19923D01*
X43203Y-19909D01*
X43174Y-19894D01*
X43145Y-19894D01*
X43117Y-19909D01*
X43103Y-19923D01*
X43088Y-19952D01*
X43074Y-20009D01*
X43060Y-20037D01*
X43045Y-20052D01*
X43017Y-20066D01*
X42988Y-20066D01*
X42960Y-20052D01*
X42945Y-20037D01*
X42931Y-20009D01*
X42931Y-19937D01*
X42945Y-19894D01*
G54D18*
X36384Y-18386D02*
X36318Y-18293D01*
X36271Y-18386D02*
X36271Y-18189D01*
X36346Y-18189D01*
X36365Y-18199D01*
X36375Y-18208D01*
X36384Y-18227D01*
X36384Y-18255D01*
X36375Y-18274D01*
X36365Y-18283D01*
X36346Y-18293D01*
X36271Y-18293D01*
X36572Y-18386D02*
X36459Y-18386D01*
X36515Y-18386D02*
X36515Y-18189D01*
X36497Y-18217D01*
X36478Y-18236D01*
X36459Y-18246D01*
X35465Y-18189D02*
X35587Y-18189D01*
X35522Y-18264D01*
X35550Y-18264D01*
X35568Y-18274D01*
X35578Y-18283D01*
X35587Y-18302D01*
X35587Y-18349D01*
X35578Y-18368D01*
X35568Y-18377D01*
X35550Y-18386D01*
X35493Y-18386D01*
X35475Y-18377D01*
X35465Y-18368D01*
X35784Y-18386D02*
X35719Y-18293D01*
X35672Y-18386D02*
X35672Y-18189D01*
X35747Y-18189D01*
X35765Y-18199D01*
X35775Y-18208D01*
X35784Y-18227D01*
X35784Y-18255D01*
X35775Y-18274D01*
X35765Y-18283D01*
X35747Y-18293D01*
X35672Y-18293D01*
G54D19*
X36711Y-16130D02*
X36682Y-16159D01*
X36596Y-16187D01*
X36539Y-16187D01*
X36453Y-16159D01*
X36396Y-16102D01*
X36368Y-16044D01*
X36339Y-15930D01*
X36339Y-15844D01*
X36368Y-15730D01*
X36396Y-15673D01*
X36453Y-15616D01*
X36539Y-15587D01*
X36596Y-15587D01*
X36682Y-15616D01*
X36711Y-15644D01*
X37253Y-15587D02*
X36968Y-15587D01*
X36939Y-15873D01*
X36968Y-15844D01*
X37025Y-15816D01*
X37168Y-15816D01*
X37225Y-15844D01*
X37253Y-15873D01*
X37282Y-15930D01*
X37282Y-16073D01*
X37253Y-16130D01*
X37225Y-16159D01*
X37168Y-16187D01*
X37025Y-16187D01*
X36968Y-16159D01*
X36939Y-16130D01*
G54D16*
X34805Y-17744D02*
X34805Y-17969D01*
X34805Y-17857D02*
X34411Y-17857D01*
X34467Y-17894D01*
X34505Y-17932D01*
X34523Y-17969D01*
X34542Y-17407D02*
X34805Y-17407D01*
X34542Y-17575D02*
X34748Y-17575D01*
X34786Y-17557D01*
X34805Y-17519D01*
X34805Y-17463D01*
X34786Y-17425D01*
X34767Y-17407D01*
X34392Y-16938D02*
X34898Y-17275D01*
X34448Y-16826D02*
X34430Y-16807D01*
X34411Y-16769D01*
X34411Y-16676D01*
X34430Y-16638D01*
X34448Y-16619D01*
X34486Y-16601D01*
X34523Y-16601D01*
X34580Y-16619D01*
X34805Y-16844D01*
X34805Y-16601D01*
X34411Y-16244D02*
X34411Y-16432D01*
X34598Y-16451D01*
X34580Y-16432D01*
X34561Y-16394D01*
X34561Y-16301D01*
X34580Y-16263D01*
X34598Y-16244D01*
X34636Y-16226D01*
X34730Y-16226D01*
X34767Y-16244D01*
X34786Y-16263D01*
X34805Y-16301D01*
X34805Y-16394D01*
X34786Y-16432D01*
X34767Y-16451D01*
X34411Y-16113D02*
X34805Y-15982D01*
X34411Y-15851D01*
G54D19*
X34939Y-23536D02*
X34910Y-23564D01*
X34825Y-23593D01*
X34767Y-23593D01*
X34682Y-23564D01*
X34625Y-23507D01*
X34596Y-23450D01*
X34567Y-23336D01*
X34567Y-23250D01*
X34596Y-23136D01*
X34625Y-23078D01*
X34682Y-23021D01*
X34767Y-22993D01*
X34825Y-22993D01*
X34910Y-23021D01*
X34939Y-23050D01*
X35453Y-22993D02*
X35339Y-22993D01*
X35282Y-23021D01*
X35253Y-23050D01*
X35196Y-23136D01*
X35167Y-23250D01*
X35167Y-23478D01*
X35196Y-23536D01*
X35225Y-23564D01*
X35282Y-23593D01*
X35396Y-23593D01*
X35453Y-23564D01*
X35482Y-23536D01*
X35510Y-23478D01*
X35510Y-23336D01*
X35482Y-23278D01*
X35453Y-23250D01*
X35396Y-23221D01*
X35282Y-23221D01*
X35225Y-23250D01*
X35196Y-23278D01*
X35167Y-23336D01*
G54D20*
X34331Y-21667D02*
X34331Y-21780D01*
X34331Y-21723D02*
X34134Y-21723D01*
X34162Y-21742D01*
X34181Y-21761D01*
X34191Y-21780D01*
X34200Y-21498D02*
X34331Y-21498D01*
X34200Y-21583D02*
X34303Y-21583D01*
X34322Y-21573D01*
X34331Y-21555D01*
X34331Y-21526D01*
X34322Y-21508D01*
X34312Y-21498D01*
X34125Y-21264D02*
X34378Y-21433D01*
X34153Y-21208D02*
X34144Y-21198D01*
X34134Y-21180D01*
X34134Y-21133D01*
X34144Y-21114D01*
X34153Y-21105D01*
X34172Y-21095D01*
X34191Y-21095D01*
X34219Y-21105D01*
X34331Y-21217D01*
X34331Y-21095D01*
X34134Y-20917D02*
X34134Y-21011D01*
X34228Y-21020D01*
X34219Y-21011D01*
X34209Y-20992D01*
X34209Y-20945D01*
X34219Y-20927D01*
X34228Y-20917D01*
X34247Y-20908D01*
X34294Y-20908D01*
X34312Y-20917D01*
X34322Y-20927D01*
X34331Y-20945D01*
X34331Y-20992D01*
X34322Y-21011D01*
X34312Y-21020D01*
X34134Y-20852D02*
X34331Y-20786D01*
X34134Y-20720D01*
G54D19*
X33069Y-23095D02*
X33040Y-23123D01*
X32955Y-23152D01*
X32897Y-23152D01*
X32812Y-23123D01*
X32755Y-23066D01*
X32726Y-23009D01*
X32697Y-22895D01*
X32697Y-22809D01*
X32726Y-22695D01*
X32755Y-22638D01*
X32812Y-22580D01*
X32897Y-22552D01*
X32955Y-22552D01*
X33040Y-22580D01*
X33069Y-22609D01*
X33269Y-22552D02*
X33669Y-22552D01*
X33412Y-23152D01*
G54D16*
X34214Y-25037D02*
X34214Y-25262D01*
X34214Y-25149D02*
X33820Y-25149D01*
X33877Y-25187D01*
X33914Y-25224D01*
X33933Y-25262D01*
X33952Y-24700D02*
X34214Y-24700D01*
X33952Y-24868D02*
X34158Y-24868D01*
X34195Y-24850D01*
X34214Y-24812D01*
X34214Y-24756D01*
X34195Y-24718D01*
X34176Y-24700D01*
X33802Y-24231D02*
X34308Y-24568D01*
X33820Y-23931D02*
X33820Y-24006D01*
X33839Y-24043D01*
X33858Y-24062D01*
X33914Y-24100D01*
X33989Y-24118D01*
X34139Y-24118D01*
X34176Y-24100D01*
X34195Y-24081D01*
X34214Y-24043D01*
X34214Y-23968D01*
X34195Y-23931D01*
X34176Y-23912D01*
X34139Y-23893D01*
X34045Y-23893D01*
X34008Y-23912D01*
X33989Y-23931D01*
X33970Y-23968D01*
X33970Y-24043D01*
X33989Y-24081D01*
X34008Y-24100D01*
X34045Y-24118D01*
X33820Y-23781D02*
X34214Y-23650D01*
X33820Y-23518D01*
G54D19*
X35726Y-28925D02*
X35698Y-28954D01*
X35612Y-28983D01*
X35555Y-28983D01*
X35469Y-28954D01*
X35412Y-28897D01*
X35383Y-28840D01*
X35355Y-28725D01*
X35355Y-28640D01*
X35383Y-28525D01*
X35412Y-28468D01*
X35469Y-28411D01*
X35555Y-28383D01*
X35612Y-28383D01*
X35698Y-28411D01*
X35726Y-28440D01*
X36069Y-28640D02*
X36012Y-28611D01*
X35983Y-28583D01*
X35955Y-28525D01*
X35955Y-28497D01*
X35983Y-28440D01*
X36012Y-28411D01*
X36069Y-28383D01*
X36183Y-28383D01*
X36241Y-28411D01*
X36269Y-28440D01*
X36298Y-28497D01*
X36298Y-28525D01*
X36269Y-28583D01*
X36241Y-28611D01*
X36183Y-28640D01*
X36069Y-28640D01*
X36012Y-28668D01*
X35983Y-28697D01*
X35955Y-28754D01*
X35955Y-28868D01*
X35983Y-28925D01*
X36012Y-28954D01*
X36069Y-28983D01*
X36183Y-28983D01*
X36241Y-28954D01*
X36269Y-28925D01*
X36298Y-28868D01*
X36298Y-28754D01*
X36269Y-28697D01*
X36241Y-28668D01*
X36183Y-28640D01*
G54D16*
X36970Y-28177D02*
X36970Y-28402D01*
X36970Y-28290D02*
X36576Y-28290D01*
X36632Y-28327D01*
X36670Y-28365D01*
X36689Y-28402D01*
X36707Y-27840D02*
X36970Y-27840D01*
X36707Y-28008D02*
X36914Y-28008D01*
X36951Y-27990D01*
X36970Y-27952D01*
X36970Y-27896D01*
X36951Y-27859D01*
X36932Y-27840D01*
X36557Y-27371D02*
X37064Y-27709D01*
X36614Y-27259D02*
X36595Y-27240D01*
X36576Y-27202D01*
X36576Y-27109D01*
X36595Y-27071D01*
X36614Y-27052D01*
X36651Y-27034D01*
X36689Y-27034D01*
X36745Y-27052D01*
X36970Y-27277D01*
X36970Y-27034D01*
X36576Y-26677D02*
X36576Y-26865D01*
X36764Y-26884D01*
X36745Y-26865D01*
X36726Y-26827D01*
X36726Y-26734D01*
X36745Y-26696D01*
X36764Y-26677D01*
X36801Y-26659D01*
X36895Y-26659D01*
X36932Y-26677D01*
X36951Y-26696D01*
X36970Y-26734D01*
X36970Y-26827D01*
X36951Y-26865D01*
X36932Y-26884D01*
X36576Y-26546D02*
X36970Y-26415D01*
X36576Y-26284D01*
G54D19*
X41041Y-29319D02*
X41013Y-29348D01*
X40927Y-29376D01*
X40870Y-29376D01*
X40784Y-29348D01*
X40727Y-29291D01*
X40698Y-29233D01*
X40670Y-29119D01*
X40670Y-29033D01*
X40698Y-28919D01*
X40727Y-28862D01*
X40784Y-28805D01*
X40870Y-28776D01*
X40927Y-28776D01*
X41013Y-28805D01*
X41041Y-28833D01*
X41327Y-29376D02*
X41441Y-29376D01*
X41498Y-29348D01*
X41527Y-29319D01*
X41584Y-29233D01*
X41613Y-29119D01*
X41613Y-28891D01*
X41584Y-28833D01*
X41556Y-28805D01*
X41498Y-28776D01*
X41384Y-28776D01*
X41327Y-28805D01*
X41298Y-28833D01*
X41270Y-28891D01*
X41270Y-29033D01*
X41298Y-29091D01*
X41327Y-29119D01*
X41384Y-29148D01*
X41498Y-29148D01*
X41556Y-29119D01*
X41584Y-29091D01*
X41613Y-29033D01*
G54D16*
X41901Y-27521D02*
X41676Y-27521D01*
X41788Y-27521D02*
X41788Y-27127D01*
X41751Y-27184D01*
X41713Y-27221D01*
X41676Y-27240D01*
X42238Y-27259D02*
X42238Y-27521D01*
X42069Y-27259D02*
X42069Y-27465D01*
X42088Y-27502D01*
X42125Y-27521D01*
X42182Y-27521D01*
X42219Y-27502D01*
X42238Y-27484D01*
X42707Y-27109D02*
X42369Y-27615D01*
X42819Y-27165D02*
X42838Y-27146D01*
X42875Y-27127D01*
X42969Y-27127D01*
X43007Y-27146D01*
X43025Y-27165D01*
X43044Y-27202D01*
X43044Y-27240D01*
X43025Y-27296D01*
X42800Y-27521D01*
X43044Y-27521D01*
X43400Y-27127D02*
X43213Y-27127D01*
X43194Y-27315D01*
X43213Y-27296D01*
X43250Y-27277D01*
X43344Y-27277D01*
X43382Y-27296D01*
X43400Y-27315D01*
X43419Y-27352D01*
X43419Y-27446D01*
X43400Y-27484D01*
X43382Y-27502D01*
X43344Y-27521D01*
X43250Y-27521D01*
X43213Y-27502D01*
X43194Y-27484D01*
X43532Y-27127D02*
X43663Y-27521D01*
X43794Y-27127D01*
G54D19*
X28551Y-28532D02*
X28522Y-28560D01*
X28437Y-28589D01*
X28379Y-28589D01*
X28294Y-28560D01*
X28237Y-28503D01*
X28208Y-28446D01*
X28179Y-28332D01*
X28179Y-28246D01*
X28208Y-28132D01*
X28237Y-28075D01*
X28294Y-28017D01*
X28379Y-27989D01*
X28437Y-27989D01*
X28522Y-28017D01*
X28551Y-28046D01*
X29122Y-28589D02*
X28779Y-28589D01*
X28951Y-28589D02*
X28951Y-27989D01*
X28894Y-28075D01*
X28837Y-28132D01*
X28779Y-28160D01*
X29494Y-27989D02*
X29551Y-27989D01*
X29608Y-28017D01*
X29637Y-28046D01*
X29665Y-28103D01*
X29694Y-28217D01*
X29694Y-28360D01*
X29665Y-28475D01*
X29637Y-28532D01*
X29608Y-28560D01*
X29551Y-28589D01*
X29494Y-28589D01*
X29437Y-28560D01*
X29408Y-28532D01*
X29379Y-28475D01*
X29351Y-28360D01*
X29351Y-28217D01*
X29379Y-28103D01*
X29408Y-28046D01*
X29437Y-28017D01*
X29494Y-27989D01*
G54D16*
X28318Y-29096D02*
X28093Y-29096D01*
X28205Y-29096D02*
X28205Y-28702D01*
X28168Y-28758D01*
X28130Y-28796D01*
X28093Y-28815D01*
X28655Y-28833D02*
X28655Y-29096D01*
X28487Y-28833D02*
X28487Y-29040D01*
X28505Y-29077D01*
X28543Y-29096D01*
X28599Y-29096D01*
X28637Y-29077D01*
X28655Y-29058D01*
X29124Y-28683D02*
X28787Y-29190D01*
X29236Y-28740D02*
X29255Y-28721D01*
X29293Y-28702D01*
X29386Y-28702D01*
X29424Y-28721D01*
X29443Y-28740D01*
X29461Y-28777D01*
X29461Y-28815D01*
X29443Y-28871D01*
X29218Y-29096D01*
X29461Y-29096D01*
X29818Y-28702D02*
X29630Y-28702D01*
X29611Y-28890D01*
X29630Y-28871D01*
X29668Y-28852D01*
X29761Y-28852D01*
X29799Y-28871D01*
X29818Y-28890D01*
X29836Y-28927D01*
X29836Y-29021D01*
X29818Y-29058D01*
X29799Y-29077D01*
X29761Y-29096D01*
X29668Y-29096D01*
X29630Y-29077D01*
X29611Y-29058D01*
X29949Y-28702D02*
X30080Y-29096D01*
X30211Y-28702D01*
G54D19*
X29821Y-24595D02*
X29792Y-24623D01*
X29706Y-24652D01*
X29649Y-24652D01*
X29564Y-24623D01*
X29506Y-24566D01*
X29478Y-24509D01*
X29449Y-24395D01*
X29449Y-24309D01*
X29478Y-24195D01*
X29506Y-24138D01*
X29564Y-24080D01*
X29649Y-24052D01*
X29706Y-24052D01*
X29792Y-24080D01*
X29821Y-24109D01*
X30392Y-24652D02*
X30049Y-24652D01*
X30221Y-24652D02*
X30221Y-24052D01*
X30164Y-24138D01*
X30106Y-24195D01*
X30049Y-24223D01*
G54D21*
X31620Y-23628D02*
X31804Y-23628D01*
X31515Y-23694D02*
X31712Y-23759D01*
X31712Y-23589D01*
X31620Y-23366D02*
X31804Y-23366D01*
X31620Y-23484D02*
X31765Y-23484D01*
X31791Y-23471D01*
X31804Y-23444D01*
X31804Y-23405D01*
X31791Y-23379D01*
X31778Y-23366D01*
X31528Y-23261D02*
X31528Y-23077D01*
X31804Y-23195D01*
X31515Y-22775D02*
X31870Y-23011D01*
X31528Y-22565D02*
X31528Y-22618D01*
X31541Y-22644D01*
X31555Y-22657D01*
X31594Y-22683D01*
X31646Y-22696D01*
X31751Y-22696D01*
X31778Y-22683D01*
X31791Y-22670D01*
X31804Y-22644D01*
X31804Y-22591D01*
X31791Y-22565D01*
X31778Y-22552D01*
X31751Y-22539D01*
X31686Y-22539D01*
X31660Y-22552D01*
X31646Y-22565D01*
X31633Y-22591D01*
X31633Y-22644D01*
X31646Y-22670D01*
X31660Y-22683D01*
X31686Y-22696D01*
X31528Y-22460D02*
X31804Y-22368D01*
X31528Y-22276D01*
G54D19*
X29230Y-25973D02*
X29202Y-26001D01*
X29116Y-26030D01*
X29059Y-26030D01*
X28973Y-26001D01*
X28916Y-25944D01*
X28887Y-25887D01*
X28859Y-25773D01*
X28859Y-25687D01*
X28887Y-25573D01*
X28916Y-25515D01*
X28973Y-25458D01*
X29059Y-25430D01*
X29116Y-25430D01*
X29202Y-25458D01*
X29230Y-25487D01*
X29459Y-25487D02*
X29487Y-25458D01*
X29544Y-25430D01*
X29687Y-25430D01*
X29744Y-25458D01*
X29773Y-25487D01*
X29802Y-25544D01*
X29802Y-25601D01*
X29773Y-25687D01*
X29430Y-26030D01*
X29802Y-26030D01*
G54D16*
X29086Y-26771D02*
X29105Y-26752D01*
X29143Y-26734D01*
X29236Y-26734D01*
X29274Y-26752D01*
X29293Y-26771D01*
X29311Y-26809D01*
X29311Y-26846D01*
X29293Y-26902D01*
X29068Y-27127D01*
X29311Y-27127D01*
X29649Y-26865D02*
X29649Y-27127D01*
X29480Y-26865D02*
X29480Y-27071D01*
X29499Y-27109D01*
X29536Y-27127D01*
X29593Y-27127D01*
X29630Y-27109D01*
X29649Y-27090D01*
X29818Y-26771D02*
X29836Y-26752D01*
X29874Y-26734D01*
X29968Y-26734D01*
X30005Y-26752D01*
X30024Y-26771D01*
X30043Y-26809D01*
X30043Y-26846D01*
X30024Y-26902D01*
X29799Y-27127D01*
X30043Y-27127D01*
X30493Y-26715D02*
X30155Y-27221D01*
X30811Y-26734D02*
X30624Y-26734D01*
X30605Y-26921D01*
X30624Y-26902D01*
X30661Y-26884D01*
X30755Y-26884D01*
X30793Y-26902D01*
X30811Y-26921D01*
X30830Y-26959D01*
X30830Y-27052D01*
X30811Y-27090D01*
X30793Y-27109D01*
X30755Y-27127D01*
X30661Y-27127D01*
X30624Y-27109D01*
X30605Y-27090D01*
X31074Y-26734D02*
X31111Y-26734D01*
X31149Y-26752D01*
X31167Y-26771D01*
X31186Y-26809D01*
X31205Y-26884D01*
X31205Y-26977D01*
X31186Y-27052D01*
X31167Y-27090D01*
X31149Y-27109D01*
X31111Y-27127D01*
X31074Y-27127D01*
X31036Y-27109D01*
X31017Y-27090D01*
X30999Y-27052D01*
X30980Y-26977D01*
X30980Y-26884D01*
X30999Y-26809D01*
X31017Y-26771D01*
X31036Y-26752D01*
X31074Y-26734D01*
X31317Y-26734D02*
X31449Y-27127D01*
X31580Y-26734D01*
G54D19*
X32380Y-25973D02*
X32351Y-26001D01*
X32266Y-26030D01*
X32208Y-26030D01*
X32123Y-26001D01*
X32066Y-25944D01*
X32037Y-25887D01*
X32008Y-25773D01*
X32008Y-25687D01*
X32037Y-25573D01*
X32066Y-25515D01*
X32123Y-25458D01*
X32208Y-25430D01*
X32266Y-25430D01*
X32351Y-25458D01*
X32380Y-25487D01*
X32894Y-25630D02*
X32894Y-26030D01*
X32751Y-25401D02*
X32608Y-25830D01*
X32980Y-25830D01*
G54D16*
X32039Y-27559D02*
X32058Y-27540D01*
X32095Y-27521D01*
X32189Y-27521D01*
X32227Y-27540D01*
X32245Y-27559D01*
X32264Y-27596D01*
X32264Y-27634D01*
X32245Y-27690D01*
X32020Y-27915D01*
X32264Y-27915D01*
X32602Y-27652D02*
X32602Y-27915D01*
X32433Y-27652D02*
X32433Y-27859D01*
X32452Y-27896D01*
X32489Y-27915D01*
X32545Y-27915D01*
X32583Y-27896D01*
X32602Y-27877D01*
X32770Y-27559D02*
X32789Y-27540D01*
X32827Y-27521D01*
X32920Y-27521D01*
X32958Y-27540D01*
X32977Y-27559D01*
X32995Y-27596D01*
X32995Y-27634D01*
X32977Y-27690D01*
X32752Y-27915D01*
X32995Y-27915D01*
X33445Y-27502D02*
X33108Y-28008D01*
X33764Y-27521D02*
X33577Y-27521D01*
X33558Y-27709D01*
X33577Y-27690D01*
X33614Y-27671D01*
X33708Y-27671D01*
X33745Y-27690D01*
X33764Y-27709D01*
X33783Y-27746D01*
X33783Y-27840D01*
X33764Y-27877D01*
X33745Y-27896D01*
X33708Y-27915D01*
X33614Y-27915D01*
X33577Y-27896D01*
X33558Y-27877D01*
X34026Y-27521D02*
X34064Y-27521D01*
X34101Y-27540D01*
X34120Y-27559D01*
X34139Y-27596D01*
X34158Y-27671D01*
X34158Y-27765D01*
X34139Y-27840D01*
X34120Y-27877D01*
X34101Y-27896D01*
X34064Y-27915D01*
X34026Y-27915D01*
X33989Y-27896D01*
X33970Y-27877D01*
X33952Y-27840D01*
X33933Y-27765D01*
X33933Y-27671D01*
X33952Y-27596D01*
X33970Y-27559D01*
X33989Y-27540D01*
X34026Y-27521D01*
X34270Y-27521D02*
X34401Y-27915D01*
X34533Y-27521D01*
G54D19*
X35628Y-26095D02*
X35599Y-26123D01*
X35514Y-26152D01*
X35456Y-26152D01*
X35371Y-26123D01*
X35314Y-26066D01*
X35285Y-26009D01*
X35256Y-25895D01*
X35256Y-25809D01*
X35285Y-25695D01*
X35314Y-25638D01*
X35371Y-25580D01*
X35456Y-25552D01*
X35514Y-25552D01*
X35599Y-25580D01*
X35628Y-25609D01*
X35828Y-25552D02*
X36199Y-25552D01*
X35999Y-25780D01*
X36085Y-25780D01*
X36142Y-25809D01*
X36171Y-25838D01*
X36199Y-25895D01*
X36199Y-26038D01*
X36171Y-26095D01*
X36142Y-26123D01*
X36085Y-26152D01*
X35914Y-26152D01*
X35856Y-26123D01*
X35828Y-26095D01*
G54D16*
X36773Y-25224D02*
X36773Y-25449D01*
X36773Y-25337D02*
X36379Y-25337D01*
X36436Y-25374D01*
X36473Y-25412D01*
X36492Y-25449D01*
X36511Y-24887D02*
X36773Y-24887D01*
X36511Y-25056D02*
X36717Y-25056D01*
X36754Y-25037D01*
X36773Y-25000D01*
X36773Y-24943D01*
X36754Y-24906D01*
X36736Y-24887D01*
X36361Y-24418D02*
X36867Y-24756D01*
X36379Y-24100D02*
X36379Y-24287D01*
X36567Y-24306D01*
X36548Y-24287D01*
X36529Y-24250D01*
X36529Y-24156D01*
X36548Y-24118D01*
X36567Y-24100D01*
X36604Y-24081D01*
X36698Y-24081D01*
X36736Y-24100D01*
X36754Y-24118D01*
X36773Y-24156D01*
X36773Y-24250D01*
X36754Y-24287D01*
X36736Y-24306D01*
X36379Y-23837D02*
X36379Y-23800D01*
X36398Y-23762D01*
X36417Y-23743D01*
X36454Y-23725D01*
X36529Y-23706D01*
X36623Y-23706D01*
X36698Y-23725D01*
X36736Y-23743D01*
X36754Y-23762D01*
X36773Y-23800D01*
X36773Y-23837D01*
X36754Y-23875D01*
X36736Y-23893D01*
X36698Y-23912D01*
X36623Y-23931D01*
X36529Y-23931D01*
X36454Y-23912D01*
X36417Y-23893D01*
X36398Y-23875D01*
X36379Y-23837D01*
X36379Y-23593D02*
X36773Y-23462D01*
X36379Y-23331D01*
G54D19*
X31396Y-20223D02*
X31110Y-20223D01*
X31110Y-19623D01*
X31910Y-20223D02*
X31567Y-20223D01*
X31738Y-20223D02*
X31738Y-19623D01*
X31681Y-19708D01*
X31624Y-19766D01*
X31567Y-19794D01*
X30964Y-17514D02*
X30992Y-17486D01*
X31050Y-17457D01*
X31192Y-17457D01*
X31250Y-17486D01*
X31278Y-17514D01*
X31307Y-17572D01*
X31307Y-17629D01*
X31278Y-17714D01*
X30935Y-18057D01*
X31307Y-18057D01*
X31535Y-17514D02*
X31564Y-17486D01*
X31621Y-17457D01*
X31764Y-17457D01*
X31821Y-17486D01*
X31850Y-17514D01*
X31878Y-17572D01*
X31878Y-17629D01*
X31850Y-17714D01*
X31507Y-18057D01*
X31878Y-18057D01*
X32392Y-17657D02*
X32392Y-18057D01*
X32135Y-17657D02*
X32135Y-17972D01*
X32164Y-18029D01*
X32221Y-18057D01*
X32307Y-18057D01*
X32364Y-18029D01*
X32392Y-18000D01*
G54D22*
X37386Y-21966D02*
X37229Y-21966D01*
X37229Y-21929D01*
X37236Y-21906D01*
X37251Y-21891D01*
X37266Y-21884D01*
X37296Y-21876D01*
X37319Y-21876D01*
X37349Y-21884D01*
X37364Y-21891D01*
X37379Y-21906D01*
X37386Y-21929D01*
X37386Y-21966D01*
X37229Y-21824D02*
X37229Y-21726D01*
X37289Y-21779D01*
X37289Y-21756D01*
X37296Y-21741D01*
X37304Y-21734D01*
X37319Y-21726D01*
X37356Y-21726D01*
X37371Y-21734D01*
X37379Y-21741D01*
X37386Y-21756D01*
X37386Y-21801D01*
X37379Y-21816D01*
X37371Y-21824D01*
M02*
