G04 (created by PCBNEW (2013-07-07 BZR 4022)-stable) date 16.5.2014 14:16:54*
%MOIN*%
G04 Gerber Fmt 3.4, Leading zero omitted, Abs format*
%FSLAX34Y34*%
G01*
G70*
G90*
G04 APERTURE LIST*
%ADD10C,0.00590551*%
%ADD11R,0.0394X0.0236*%
%ADD12R,0.028X0.018*%
%ADD13R,0.06X0.06*%
%ADD14C,0.06*%
%ADD15R,0.0394X0.0106*%
%ADD16R,0.11811X0.0590551*%
%ADD17R,0.035X0.055*%
%ADD18R,0.0787X0.0787*%
%ADD19C,0.0787*%
%ADD20R,0.0335X0.0335*%
%ADD21C,0.035*%
%ADD22C,0.01*%
G04 APERTURE END LIST*
G54D10*
G54D11*
X33740Y-28582D03*
X33740Y-29094D03*
X32992Y-28838D03*
G54D12*
X35931Y-20240D03*
X35931Y-19720D03*
X35131Y-19980D03*
G54D13*
X28838Y-23629D03*
G54D14*
X28838Y-22629D03*
G54D13*
X38181Y-17531D03*
G54D14*
X39181Y-17531D03*
X38181Y-18531D03*
X39181Y-18531D03*
X38181Y-19531D03*
X39181Y-19531D03*
X38181Y-20531D03*
X39181Y-20531D03*
X38181Y-21531D03*
X39181Y-21531D03*
X38181Y-22531D03*
X39181Y-22531D03*
X38181Y-23531D03*
X39181Y-23531D03*
X38181Y-24531D03*
X39181Y-24531D03*
X38181Y-25531D03*
X39181Y-25531D03*
X38181Y-26531D03*
X39181Y-26531D03*
X38181Y-27531D03*
X39181Y-27531D03*
X38181Y-28531D03*
X39181Y-28531D03*
G54D15*
X42125Y-20472D03*
X42125Y-20669D03*
X42125Y-20866D03*
X42125Y-21062D03*
X42125Y-21259D03*
X42125Y-21456D03*
X42125Y-21653D03*
X42125Y-21850D03*
X42125Y-22047D03*
X42125Y-22244D03*
X42125Y-22440D03*
X42125Y-22637D03*
X42125Y-22834D03*
X42125Y-23031D03*
X42125Y-23228D03*
X42125Y-23425D03*
X42125Y-23622D03*
X42125Y-23818D03*
X42125Y-24015D03*
X42125Y-24212D03*
X42125Y-24409D03*
X42125Y-24606D03*
X42125Y-24803D03*
X42125Y-25000D03*
G54D16*
X42913Y-26181D03*
X42913Y-19291D03*
G54D17*
X36004Y-18799D03*
X35254Y-18799D03*
G54D18*
X35728Y-16527D03*
G54D19*
X35728Y-17527D03*
G54D18*
X35039Y-21350D03*
G54D19*
X35039Y-22350D03*
G54D18*
X33169Y-24909D03*
G54D19*
X33169Y-23909D03*
G54D18*
X35728Y-27763D03*
G54D19*
X35728Y-26763D03*
G54D18*
X42314Y-28641D03*
G54D19*
X43314Y-28641D03*
G54D18*
X30905Y-28846D03*
G54D19*
X30905Y-27846D03*
G54D18*
X30905Y-22629D03*
G54D19*
X30905Y-23629D03*
G54D18*
X30905Y-25188D03*
G54D19*
X30905Y-26188D03*
G54D18*
X32669Y-26968D03*
G54D19*
X33669Y-26968D03*
G54D18*
X35728Y-23909D03*
G54D19*
X35728Y-24909D03*
G54D18*
X29996Y-18700D03*
G54D19*
X32996Y-18700D03*
G54D20*
X36811Y-22509D03*
X36811Y-21191D03*
G54D21*
X36712Y-19291D03*
G54D22*
X39960Y-20570D02*
X39220Y-20570D01*
X41043Y-21850D02*
X39960Y-20767D01*
X39960Y-20767D02*
X39960Y-20570D01*
X42125Y-21850D02*
X41043Y-21850D01*
X39220Y-20570D02*
X39181Y-20531D01*
X39862Y-21062D02*
X38649Y-21062D01*
X40944Y-22047D02*
X39960Y-21062D01*
X39960Y-21062D02*
X39862Y-21062D01*
X42125Y-22047D02*
X40944Y-22047D01*
X38649Y-21062D02*
X38181Y-21531D01*
X35931Y-20240D02*
X36157Y-20240D01*
X36712Y-19685D02*
X36712Y-19291D01*
X36157Y-20240D02*
X36712Y-19685D01*
X40059Y-17531D02*
X39181Y-17531D01*
X42125Y-20669D02*
X41732Y-20669D01*
X40956Y-17531D02*
X40059Y-17531D01*
X40059Y-17531D02*
X40066Y-17531D01*
X41141Y-17716D02*
X40956Y-17531D01*
X41141Y-20078D02*
X41141Y-17716D01*
X41732Y-20669D02*
X41141Y-20078D01*
X39370Y-16929D02*
X38385Y-16929D01*
X41929Y-20472D02*
X41338Y-19881D01*
X41338Y-19881D02*
X41338Y-17322D01*
X41338Y-17322D02*
X40944Y-16929D01*
X40944Y-16929D02*
X39370Y-16929D01*
X42125Y-20472D02*
X41929Y-20472D01*
X38181Y-17133D02*
X38181Y-17531D01*
X38385Y-16929D02*
X38181Y-17133D01*
X38181Y-27531D02*
X37669Y-27531D01*
X37098Y-23909D02*
X35728Y-23909D01*
X37303Y-24114D02*
X37098Y-23909D01*
X37303Y-27165D02*
X37303Y-24114D01*
X37669Y-27531D02*
X37303Y-27165D01*
X36811Y-22509D02*
X36811Y-22826D01*
X36811Y-22826D02*
X35728Y-23909D01*
X40748Y-26968D02*
X40748Y-27066D01*
X41535Y-24409D02*
X40748Y-25196D01*
X40748Y-25196D02*
X40748Y-26968D01*
X42125Y-24409D02*
X41535Y-24409D01*
X38216Y-27531D02*
X38181Y-27531D01*
X38681Y-27066D02*
X38216Y-27531D01*
X40748Y-27066D02*
X38681Y-27066D01*
X34940Y-28531D02*
X34940Y-28240D01*
X34940Y-28240D02*
X33669Y-26968D01*
X38181Y-28531D02*
X34940Y-28531D01*
X34940Y-28531D02*
X34952Y-28531D01*
X34389Y-29094D02*
X33740Y-29094D01*
X34952Y-28531D02*
X34389Y-29094D01*
X41141Y-28051D02*
X38661Y-28051D01*
X41732Y-24803D02*
X41141Y-25393D01*
X41141Y-25393D02*
X41141Y-28051D01*
X42125Y-24803D02*
X41732Y-24803D01*
X38661Y-28051D02*
X38181Y-28531D01*
X35931Y-19720D02*
X36185Y-19720D01*
X36220Y-19014D02*
X36004Y-18799D01*
X36220Y-19685D02*
X36220Y-19014D01*
X36185Y-19720D02*
X36220Y-19685D01*
X36004Y-18799D02*
X37913Y-18799D01*
X37913Y-18799D02*
X38181Y-18531D01*
X39468Y-18011D02*
X38700Y-18011D01*
X40944Y-18011D02*
X39468Y-18011D01*
X42125Y-20866D02*
X41535Y-20866D01*
X41535Y-20866D02*
X40944Y-20275D01*
X40944Y-20275D02*
X40944Y-18110D01*
X40944Y-18110D02*
X40944Y-18011D01*
X38700Y-18011D02*
X38181Y-18531D01*
X39665Y-23031D02*
X38681Y-23031D01*
X39862Y-22834D02*
X39665Y-23031D01*
X42125Y-22834D02*
X39862Y-22834D01*
X38681Y-23031D02*
X38181Y-23531D01*
X42125Y-23031D02*
X40059Y-23031D01*
X39559Y-23531D02*
X39181Y-23531D01*
X40059Y-23031D02*
X39559Y-23531D01*
X32996Y-18700D02*
X33851Y-18700D01*
X33851Y-18700D02*
X35131Y-19980D01*
X30905Y-25188D02*
X30905Y-24901D01*
X34350Y-19980D02*
X35131Y-19980D01*
X33858Y-20472D02*
X34350Y-19980D01*
X33858Y-21948D02*
X33858Y-20472D01*
X30905Y-24901D02*
X33858Y-21948D01*
X35131Y-19980D02*
X35131Y-20170D01*
X36152Y-21191D02*
X36811Y-21191D01*
X35131Y-20170D02*
X36152Y-21191D01*
X40354Y-19488D02*
X39224Y-19488D01*
X41240Y-21456D02*
X40354Y-20570D01*
X40354Y-20570D02*
X40354Y-19488D01*
X42125Y-21456D02*
X41240Y-21456D01*
X39224Y-19488D02*
X39181Y-19531D01*
X40157Y-20078D02*
X38633Y-20078D01*
X41141Y-21653D02*
X40157Y-20669D01*
X40157Y-20669D02*
X40157Y-20078D01*
X42125Y-21653D02*
X41141Y-21653D01*
X38633Y-20078D02*
X38181Y-20531D01*
X30905Y-22629D02*
X30905Y-19610D01*
X30905Y-19610D02*
X29996Y-18700D01*
X28838Y-22629D02*
X30905Y-22629D01*
X39960Y-24507D02*
X39204Y-24507D01*
X41043Y-23425D02*
X39960Y-24507D01*
X42125Y-23425D02*
X41043Y-23425D01*
X39204Y-24507D02*
X39181Y-24531D01*
X42125Y-23228D02*
X40551Y-23228D01*
X38696Y-24015D02*
X38181Y-24531D01*
X39763Y-24015D02*
X38696Y-24015D01*
X40551Y-23228D02*
X39763Y-24015D01*
X30905Y-28846D02*
X31700Y-28846D01*
X39181Y-29027D02*
X39181Y-28531D01*
X38681Y-29527D02*
X39181Y-29027D01*
X32381Y-29527D02*
X38681Y-29527D01*
X31700Y-28846D02*
X32381Y-29527D01*
X41338Y-28543D02*
X39192Y-28543D01*
X41830Y-25000D02*
X41338Y-25492D01*
X41338Y-25492D02*
X41338Y-28543D01*
X42125Y-25000D02*
X41830Y-25000D01*
X39192Y-28543D02*
X39181Y-28531D01*
X40157Y-25393D02*
X39318Y-25393D01*
X41240Y-23818D02*
X40157Y-24901D01*
X40157Y-24901D02*
X40157Y-25393D01*
X42125Y-23818D02*
X41240Y-23818D01*
X39318Y-25393D02*
X39181Y-25531D01*
X35039Y-21350D02*
X35425Y-21350D01*
X37555Y-19531D02*
X38181Y-19531D01*
X37401Y-19685D02*
X37555Y-19531D01*
X37401Y-21653D02*
X37401Y-19685D01*
X37204Y-21850D02*
X37401Y-21653D01*
X35925Y-21850D02*
X37204Y-21850D01*
X35425Y-21350D02*
X35925Y-21850D01*
X40551Y-19094D02*
X40551Y-18996D01*
X41437Y-21259D02*
X41338Y-21259D01*
X41338Y-21259D02*
X40551Y-20472D01*
X40551Y-20472D02*
X40551Y-19094D01*
X42125Y-21259D02*
X41437Y-21259D01*
X38181Y-19496D02*
X38181Y-19531D01*
X38681Y-18996D02*
X38181Y-19496D01*
X40551Y-18996D02*
X38681Y-18996D01*
X40748Y-18602D02*
X39251Y-18602D01*
X42125Y-21062D02*
X41535Y-21062D01*
X40748Y-20374D02*
X40748Y-18602D01*
X41437Y-21062D02*
X40748Y-20374D01*
X41535Y-21062D02*
X41437Y-21062D01*
X39251Y-18602D02*
X39181Y-18531D01*
X40354Y-25885D02*
X40255Y-25984D01*
X41338Y-24015D02*
X40354Y-25000D01*
X40354Y-25000D02*
X40354Y-25885D01*
X42125Y-24015D02*
X41338Y-24015D01*
X38728Y-25984D02*
X38181Y-26531D01*
X40255Y-25984D02*
X38728Y-25984D01*
X40551Y-26377D02*
X39334Y-26377D01*
X41437Y-24212D02*
X40551Y-25098D01*
X40551Y-25098D02*
X40551Y-26377D01*
X42125Y-24212D02*
X41437Y-24212D01*
X39334Y-26377D02*
X39181Y-26531D01*
X40944Y-27460D02*
X39251Y-27460D01*
X41633Y-24606D02*
X40944Y-25295D01*
X40944Y-25295D02*
X40944Y-27460D01*
X42125Y-24606D02*
X41633Y-24606D01*
X39251Y-27460D02*
X39181Y-27531D01*
X40059Y-22539D02*
X39188Y-22539D01*
X40649Y-22637D02*
X40551Y-22539D01*
X40551Y-22539D02*
X40059Y-22539D01*
X42125Y-22637D02*
X40649Y-22637D01*
X39188Y-22539D02*
X39181Y-22531D01*
X39960Y-22047D02*
X38665Y-22047D01*
X40748Y-22440D02*
X40354Y-22047D01*
X40354Y-22047D02*
X39960Y-22047D01*
X42125Y-22440D02*
X40748Y-22440D01*
X38665Y-22047D02*
X38181Y-22531D01*
X40157Y-21555D02*
X39204Y-21555D01*
X40846Y-22244D02*
X40157Y-21555D01*
X42125Y-22244D02*
X40846Y-22244D01*
X39204Y-21555D02*
X39181Y-21531D01*
X35728Y-24909D02*
X35342Y-24909D01*
X35039Y-24606D02*
X35039Y-22350D01*
X35342Y-24909D02*
X35039Y-24606D01*
X33169Y-23909D02*
X33480Y-23909D01*
X33480Y-23909D02*
X35039Y-22350D01*
X35728Y-24909D02*
X35728Y-26763D01*
X35728Y-17527D02*
X35622Y-17527D01*
X35254Y-17894D02*
X35254Y-18799D01*
X35622Y-17527D02*
X35254Y-17894D01*
X32669Y-26968D02*
X32669Y-26484D01*
X32669Y-26484D02*
X32874Y-26279D01*
X32874Y-26279D02*
X35244Y-26279D01*
X35244Y-26279D02*
X35728Y-26763D01*
X32669Y-26968D02*
X32669Y-27354D01*
X33740Y-28425D02*
X33740Y-28582D01*
X32669Y-27354D02*
X33740Y-28425D01*
X39763Y-25000D02*
X38712Y-25000D01*
X38712Y-25000D02*
X38181Y-25531D01*
X42125Y-23622D02*
X41141Y-23622D01*
X41141Y-23622D02*
X39763Y-25000D01*
X32992Y-28838D02*
X32775Y-28838D01*
X30905Y-26476D02*
X30905Y-26188D01*
X32578Y-28149D02*
X30905Y-26476D01*
X32578Y-28641D02*
X32578Y-28149D01*
X32775Y-28838D02*
X32578Y-28641D01*
M02*
