M48
INCH,TZ
T1C0.025
T2C0.032
T3C0.040
%
G90
G05
T1
X36713Y-19291
T2
X29996Y-18701
X30906Y-22630
X30906Y-23630
X30906Y-25189
X30906Y-26189
X30906Y-27846
X30906Y-28846
X32669Y-26969
X32996Y-18701
X33169Y-23909
X33169Y-24909
X33669Y-26969
X35039Y-21350
X35039Y-22350
X35728Y-16528
X35728Y-17528
X35728Y-23909
X35728Y-24909
X35728Y-26764
X35728Y-27764
X42315Y-28642
X43315Y-28642
T3
X28839Y-22630
X28839Y-23630
X38181Y-17531
X38181Y-18531
X38181Y-19531
X38181Y-20531
X38181Y-21531
X38181Y-22531
X38181Y-23531
X38181Y-24531
X38181Y-25531
X38181Y-26531
X38181Y-27531
X38181Y-28531
X39181Y-17531
X39181Y-18531
X39181Y-19531
X39181Y-20531
X39181Y-21531
X39181Y-22531
X39181Y-23531
X39181Y-24531
X39181Y-25531
X39181Y-26531
X39181Y-27531
X39181Y-28531
T0
M30
