M48
METRIC,TZ
T1C0.400
%
G90
G05
T1
X115850Y-73000
X115850Y-83500
X115850Y-85000
X115900Y-71450
X116600Y-82750
X116700Y-85400
X116850Y-73750
X117050Y-86200
X117100Y-81500
X117200Y-87100
X117350Y-84650
X120850Y-74250
X124300Y-81250
X124400Y-80450
X127200Y-78800
X127200Y-80450
X127250Y-76850
X127250Y-81200
X127600Y-71750
X127600Y-75250
X128450Y-71800
X128500Y-75250
X131450Y-75350
X132150Y-74150
X132400Y-71750
X132950Y-70100
X133200Y-81850
X133600Y-75550
X133800Y-74300
X134600Y-75800
X134700Y-71500
X136600Y-81850
X136650Y-68550
X137350Y-79000
X137600Y-77000
X137650Y-78250
X137850Y-75500
X137850Y-79750
X138450Y-76800
X138600Y-67900
X139100Y-77500
X139100Y-78250
X139200Y-98500
X139650Y-72500
X139700Y-89953
X140700Y-82400
X141550Y-82350
X141600Y-76200
X141850Y-72000
X142250Y-67950
X142350Y-82250
X142450Y-86400
X142500Y-89300
X142600Y-72000
X142600Y-74850
X143000Y-67900
X143750Y-70700
X143850Y-96500
X144150Y-79350
X145350Y-73650
X146600Y-69250
X148900Y-70600
X149500Y-82550
X149600Y-74750
X149900Y-68800
X150750Y-71950
X150750Y-74600
X152200Y-76800
X152250Y-83000
X152250Y-92100
X152800Y-67700
X153000Y-86000
X153400Y-67250
X153500Y-76400
X153750Y-66600
X154200Y-74000
X154250Y-76150
X154300Y-75350
X154500Y-80100
X154950Y-89500
X154950Y-91450
X155750Y-75050
X155900Y-74300
X155900Y-77000
X156000Y-73550
X161550Y-98650
X161950Y-81900
X163850Y-79000
X164850Y-79000
X165600Y-78750
X165850Y-79500
X166450Y-77900
X168050Y-80800
X168050Y-81700
X168300Y-77900
X169050Y-95650
X173100Y-73500
X173350Y-72800
X175400Y-80500
X175500Y-78950
X175500Y-79750
X175500Y-81450
X177750Y-78850
X178600Y-70000
X178600Y-71500
X178950Y-77400
X179150Y-78850
X179800Y-77250
X180450Y-80850
X181200Y-81500
X181250Y-78400
X181750Y-80250
X181850Y-67000
X181900Y-78950
X183350Y-79650
X183800Y-74350
X184250Y-93800
X186350Y-86200
X186700Y-78950
X188000Y-78650
X189100Y-87900
X189900Y-97700
X190100Y-77250
X190851Y-94300
X192600Y-74750
T0
M30
