G04 (created by PCBNEW (2013-june-11)-stable) date St 3. září 2014, 22:49:41 CEST*
%MOIN*%
G04 Gerber Fmt 3.4, Leading zero omitted, Abs format*
%FSLAX34Y34*%
G01*
G70*
G90*
G04 APERTURE LIST*
%ADD10C,0.00590551*%
%ADD11C,0.0039*%
%ADD12C,0.005*%
%ADD13C,0.0043*%
%ADD14C,0.0045*%
G04 APERTURE END LIST*
G54D10*
X69468Y-36181D02*
X69468Y-37440D01*
X69468Y-37440D02*
X71358Y-37440D01*
X71358Y-37440D02*
X71358Y-36181D01*
X71358Y-36181D02*
X69468Y-36181D01*
X69468Y-32440D02*
X69468Y-33700D01*
X69468Y-33700D02*
X71358Y-33700D01*
X71358Y-33700D02*
X71358Y-32440D01*
X71358Y-32440D02*
X69468Y-32440D01*
X69468Y-28897D02*
X69468Y-30157D01*
X69468Y-30157D02*
X71358Y-30157D01*
X71358Y-30157D02*
X71358Y-28897D01*
X71358Y-28897D02*
X69468Y-28897D01*
X69468Y-26535D02*
X69468Y-27795D01*
X69468Y-27795D02*
X71358Y-27795D01*
X71358Y-27795D02*
X71358Y-26535D01*
X71358Y-26535D02*
X69468Y-26535D01*
G54D11*
X71935Y-26515D02*
G75*
G03X71935Y-26515I-50J0D01*
G74*
G01*
X71885Y-26965D02*
X71885Y-26565D01*
X71885Y-26565D02*
X72485Y-26565D01*
X72485Y-26565D02*
X72485Y-26965D01*
X72485Y-27365D02*
X72485Y-27765D01*
X72485Y-27765D02*
X71885Y-27765D01*
X71885Y-27765D02*
X71885Y-27365D01*
X71781Y-35339D02*
G75*
G03X71781Y-35339I-50J0D01*
G74*
G01*
X72181Y-35339D02*
X71781Y-35339D01*
X71781Y-35339D02*
X71781Y-34739D01*
X71781Y-34739D02*
X72181Y-34739D01*
X72581Y-34739D02*
X72981Y-34739D01*
X72981Y-34739D02*
X72981Y-35339D01*
X72981Y-35339D02*
X72581Y-35339D01*
X73159Y-39118D02*
G75*
G03X73159Y-39118I-50J0D01*
G74*
G01*
X73559Y-39118D02*
X73159Y-39118D01*
X73159Y-39118D02*
X73159Y-38518D01*
X73159Y-38518D02*
X73559Y-38518D01*
X73959Y-38518D02*
X74359Y-38518D01*
X74359Y-38518D02*
X74359Y-39118D01*
X74359Y-39118D02*
X73959Y-39118D01*
G54D12*
X68073Y-29139D02*
X68973Y-29139D01*
X68973Y-29139D02*
X68973Y-29639D01*
X68973Y-29639D02*
X68073Y-29639D01*
X68073Y-29639D02*
X68073Y-29139D01*
X70160Y-26127D02*
X71060Y-26127D01*
X71060Y-26127D02*
X71060Y-26627D01*
X71060Y-26627D02*
X70160Y-26627D01*
X70160Y-26627D02*
X70160Y-26127D01*
X69383Y-26715D02*
X69383Y-27615D01*
X69383Y-27615D02*
X68883Y-27615D01*
X68883Y-27615D02*
X68883Y-26715D01*
X68883Y-26715D02*
X69383Y-26715D01*
X71253Y-27798D02*
X71253Y-28698D01*
X71253Y-28698D02*
X70753Y-28698D01*
X70753Y-28698D02*
X70753Y-27798D01*
X70753Y-27798D02*
X71253Y-27798D01*
X68073Y-29730D02*
X68973Y-29730D01*
X68973Y-29730D02*
X68973Y-30230D01*
X68973Y-30230D02*
X68073Y-30230D01*
X68073Y-30230D02*
X68073Y-29730D01*
X68939Y-30340D02*
X69839Y-30340D01*
X69839Y-30340D02*
X69839Y-30840D01*
X69839Y-30840D02*
X68939Y-30840D01*
X68939Y-30840D02*
X68939Y-30340D01*
G54D10*
X72775Y-37007D02*
X72775Y-38188D01*
X72775Y-38188D02*
X75137Y-38188D01*
X75137Y-38188D02*
X75137Y-35826D01*
X75137Y-35826D02*
X72775Y-35826D01*
X72775Y-35826D02*
X72775Y-37007D01*
X75138Y-37007D02*
G75*
G03X75138Y-37007I-1181J0D01*
G74*
G01*
X72775Y-33267D02*
X72775Y-34448D01*
X72775Y-34448D02*
X75137Y-34448D01*
X75137Y-34448D02*
X75137Y-32086D01*
X75137Y-32086D02*
X72775Y-32086D01*
X72775Y-32086D02*
X72775Y-33267D01*
X75138Y-33267D02*
G75*
G03X75138Y-33267I-1181J0D01*
G74*
G01*
X72775Y-29527D02*
X72775Y-30708D01*
X72775Y-30708D02*
X75137Y-30708D01*
X75137Y-30708D02*
X75137Y-28346D01*
X75137Y-28346D02*
X72775Y-28346D01*
X72775Y-28346D02*
X72775Y-29527D01*
X75138Y-29527D02*
G75*
G03X75138Y-29527I-1181J0D01*
G74*
G01*
X69724Y-39035D02*
X69330Y-39035D01*
X69330Y-39035D02*
X69330Y-38641D01*
X69330Y-38641D02*
X69724Y-38641D01*
X72086Y-39035D02*
X72480Y-39035D01*
X72480Y-39035D02*
X72480Y-38641D01*
X72480Y-38641D02*
X72086Y-38641D01*
X72086Y-38838D02*
X72086Y-39625D01*
X72086Y-39625D02*
X69724Y-39625D01*
X69724Y-39625D02*
X69724Y-38051D01*
X69724Y-38051D02*
X72086Y-38051D01*
X72086Y-38051D02*
X72086Y-38838D01*
X70524Y-37276D02*
X70249Y-37276D01*
X70249Y-37211D01*
X70262Y-37171D01*
X70288Y-37145D01*
X70314Y-37132D01*
X70367Y-37119D01*
X70406Y-37119D01*
X70459Y-37132D01*
X70485Y-37145D01*
X70511Y-37171D01*
X70524Y-37211D01*
X70524Y-37276D01*
X70341Y-36883D02*
X70524Y-36883D01*
X70236Y-36948D02*
X70433Y-37014D01*
X70433Y-36843D01*
X70249Y-36686D02*
X70249Y-36660D01*
X70262Y-36633D01*
X70275Y-36620D01*
X70301Y-36607D01*
X70354Y-36594D01*
X70419Y-36594D01*
X70472Y-36607D01*
X70498Y-36620D01*
X70511Y-36633D01*
X70524Y-36660D01*
X70524Y-36686D01*
X70511Y-36712D01*
X70498Y-36725D01*
X70472Y-36738D01*
X70419Y-36751D01*
X70354Y-36751D01*
X70301Y-36738D01*
X70275Y-36725D01*
X70262Y-36712D01*
X70249Y-36686D01*
X70341Y-36358D02*
X70524Y-36358D01*
X70236Y-36423D02*
X70433Y-36489D01*
X70433Y-36318D01*
X70524Y-33536D02*
X70249Y-33536D01*
X70249Y-33471D01*
X70262Y-33431D01*
X70288Y-33405D01*
X70314Y-33392D01*
X70367Y-33379D01*
X70406Y-33379D01*
X70459Y-33392D01*
X70485Y-33405D01*
X70511Y-33431D01*
X70524Y-33471D01*
X70524Y-33536D01*
X70341Y-33143D02*
X70524Y-33143D01*
X70236Y-33208D02*
X70433Y-33274D01*
X70433Y-33103D01*
X70249Y-32946D02*
X70249Y-32919D01*
X70262Y-32893D01*
X70275Y-32880D01*
X70301Y-32867D01*
X70354Y-32854D01*
X70419Y-32854D01*
X70472Y-32867D01*
X70498Y-32880D01*
X70511Y-32893D01*
X70524Y-32919D01*
X70524Y-32946D01*
X70511Y-32972D01*
X70498Y-32985D01*
X70472Y-32998D01*
X70419Y-33011D01*
X70354Y-33011D01*
X70301Y-32998D01*
X70275Y-32985D01*
X70262Y-32972D01*
X70249Y-32946D01*
X70249Y-32762D02*
X70249Y-32591D01*
X70354Y-32683D01*
X70354Y-32644D01*
X70367Y-32618D01*
X70380Y-32604D01*
X70406Y-32591D01*
X70472Y-32591D01*
X70498Y-32604D01*
X70511Y-32618D01*
X70524Y-32644D01*
X70524Y-32723D01*
X70511Y-32749D01*
X70498Y-32762D01*
X70524Y-29993D02*
X70249Y-29993D01*
X70249Y-29927D01*
X70262Y-29888D01*
X70288Y-29862D01*
X70314Y-29849D01*
X70367Y-29835D01*
X70406Y-29835D01*
X70459Y-29849D01*
X70485Y-29862D01*
X70511Y-29888D01*
X70524Y-29927D01*
X70524Y-29993D01*
X70341Y-29599D02*
X70524Y-29599D01*
X70236Y-29665D02*
X70433Y-29730D01*
X70433Y-29560D01*
X70249Y-29402D02*
X70249Y-29376D01*
X70262Y-29350D01*
X70275Y-29337D01*
X70301Y-29324D01*
X70354Y-29311D01*
X70419Y-29311D01*
X70472Y-29324D01*
X70498Y-29337D01*
X70511Y-29350D01*
X70524Y-29376D01*
X70524Y-29402D01*
X70511Y-29429D01*
X70498Y-29442D01*
X70472Y-29455D01*
X70419Y-29468D01*
X70354Y-29468D01*
X70301Y-29455D01*
X70275Y-29442D01*
X70262Y-29429D01*
X70249Y-29402D01*
X70275Y-29206D02*
X70262Y-29192D01*
X70249Y-29166D01*
X70249Y-29101D01*
X70262Y-29074D01*
X70275Y-29061D01*
X70301Y-29048D01*
X70328Y-29048D01*
X70367Y-29061D01*
X70524Y-29219D01*
X70524Y-29048D01*
X70524Y-27650D02*
X70249Y-27650D01*
X70249Y-27585D01*
X70262Y-27545D01*
X70288Y-27519D01*
X70314Y-27506D01*
X70367Y-27493D01*
X70406Y-27493D01*
X70459Y-27506D01*
X70485Y-27519D01*
X70511Y-27545D01*
X70524Y-27585D01*
X70524Y-27650D01*
X70275Y-27388D02*
X70262Y-27375D01*
X70249Y-27349D01*
X70249Y-27283D01*
X70262Y-27257D01*
X70275Y-27244D01*
X70301Y-27230D01*
X70328Y-27230D01*
X70367Y-27244D01*
X70524Y-27401D01*
X70524Y-27230D01*
X70249Y-27060D02*
X70249Y-27034D01*
X70262Y-27007D01*
X70275Y-26994D01*
X70301Y-26981D01*
X70354Y-26968D01*
X70419Y-26968D01*
X70472Y-26981D01*
X70498Y-26994D01*
X70511Y-27007D01*
X70524Y-27034D01*
X70524Y-27060D01*
X70511Y-27086D01*
X70498Y-27099D01*
X70472Y-27112D01*
X70419Y-27125D01*
X70354Y-27125D01*
X70301Y-27112D01*
X70275Y-27099D01*
X70262Y-27086D01*
X70249Y-27060D01*
X70524Y-26706D02*
X70524Y-26863D01*
X70524Y-26784D02*
X70249Y-26784D01*
X70288Y-26811D01*
X70314Y-26837D01*
X70328Y-26863D01*
G54D13*
X72371Y-27385D02*
X72380Y-27395D01*
X72389Y-27423D01*
X72389Y-27442D01*
X72380Y-27470D01*
X72361Y-27488D01*
X72342Y-27498D01*
X72305Y-27507D01*
X72277Y-27507D01*
X72239Y-27498D01*
X72220Y-27488D01*
X72202Y-27470D01*
X72192Y-27442D01*
X72192Y-27423D01*
X72202Y-27395D01*
X72211Y-27385D01*
X72258Y-27216D02*
X72389Y-27216D01*
X72183Y-27263D02*
X72324Y-27310D01*
X72324Y-27188D01*
X72389Y-27010D02*
X72389Y-27123D01*
X72389Y-27066D02*
X72192Y-27066D01*
X72220Y-27085D01*
X72239Y-27104D01*
X72249Y-27123D01*
X72192Y-26944D02*
X72192Y-26822D01*
X72267Y-26888D01*
X72267Y-26860D01*
X72277Y-26841D01*
X72286Y-26832D01*
X72305Y-26822D01*
X72352Y-26822D01*
X72371Y-26832D01*
X72380Y-26841D01*
X72389Y-26860D01*
X72389Y-26916D01*
X72380Y-26935D01*
X72371Y-26944D01*
X72114Y-27385D02*
X72114Y-27498D01*
X72114Y-27442D02*
X71917Y-27442D01*
X71945Y-27460D01*
X71964Y-27479D01*
X71974Y-27498D01*
X71917Y-27263D02*
X71917Y-27245D01*
X71927Y-27226D01*
X71936Y-27216D01*
X71955Y-27207D01*
X71992Y-27198D01*
X72039Y-27198D01*
X72077Y-27207D01*
X72096Y-27216D01*
X72105Y-27226D01*
X72114Y-27245D01*
X72114Y-27263D01*
X72105Y-27282D01*
X72096Y-27291D01*
X72077Y-27301D01*
X72039Y-27310D01*
X71992Y-27310D01*
X71955Y-27301D01*
X71936Y-27291D01*
X71927Y-27282D01*
X71917Y-27263D01*
X71917Y-27076D02*
X71917Y-27057D01*
X71927Y-27038D01*
X71936Y-27029D01*
X71955Y-27019D01*
X71992Y-27010D01*
X72039Y-27010D01*
X72077Y-27019D01*
X72096Y-27029D01*
X72105Y-27038D01*
X72114Y-27057D01*
X72114Y-27076D01*
X72105Y-27094D01*
X72096Y-27104D01*
X72077Y-27113D01*
X72039Y-27123D01*
X71992Y-27123D01*
X71955Y-27113D01*
X71936Y-27104D01*
X71927Y-27094D01*
X71917Y-27076D01*
X71983Y-26926D02*
X72114Y-26926D01*
X72002Y-26926D02*
X71992Y-26916D01*
X71983Y-26897D01*
X71983Y-26869D01*
X71992Y-26851D01*
X72011Y-26841D01*
X72114Y-26841D01*
X72161Y-34975D02*
X72152Y-34984D01*
X72123Y-34994D01*
X72105Y-34994D01*
X72077Y-34984D01*
X72058Y-34965D01*
X72048Y-34947D01*
X72039Y-34909D01*
X72039Y-34881D01*
X72048Y-34844D01*
X72058Y-34825D01*
X72077Y-34806D01*
X72105Y-34797D01*
X72123Y-34797D01*
X72152Y-34806D01*
X72161Y-34815D01*
X72330Y-34862D02*
X72330Y-34994D01*
X72283Y-34787D02*
X72236Y-34928D01*
X72358Y-34928D01*
X72536Y-34994D02*
X72424Y-34994D01*
X72480Y-34994D02*
X72480Y-34797D01*
X72461Y-34825D01*
X72442Y-34844D01*
X72424Y-34853D01*
X72611Y-34815D02*
X72621Y-34806D01*
X72639Y-34797D01*
X72686Y-34797D01*
X72705Y-34806D01*
X72714Y-34815D01*
X72724Y-34834D01*
X72724Y-34853D01*
X72714Y-34881D01*
X72602Y-34994D01*
X72724Y-34994D01*
X72161Y-35269D02*
X72048Y-35269D01*
X72105Y-35269D02*
X72105Y-35072D01*
X72086Y-35100D01*
X72067Y-35119D01*
X72048Y-35128D01*
X72283Y-35072D02*
X72302Y-35072D01*
X72320Y-35081D01*
X72330Y-35090D01*
X72339Y-35109D01*
X72349Y-35147D01*
X72349Y-35194D01*
X72339Y-35231D01*
X72330Y-35250D01*
X72320Y-35259D01*
X72302Y-35269D01*
X72283Y-35269D01*
X72264Y-35259D01*
X72255Y-35250D01*
X72245Y-35231D01*
X72236Y-35194D01*
X72236Y-35147D01*
X72245Y-35109D01*
X72255Y-35090D01*
X72264Y-35081D01*
X72283Y-35072D01*
X72471Y-35072D02*
X72489Y-35072D01*
X72508Y-35081D01*
X72517Y-35090D01*
X72527Y-35109D01*
X72536Y-35147D01*
X72536Y-35194D01*
X72527Y-35231D01*
X72517Y-35250D01*
X72508Y-35259D01*
X72489Y-35269D01*
X72471Y-35269D01*
X72452Y-35259D01*
X72442Y-35250D01*
X72433Y-35231D01*
X72424Y-35194D01*
X72424Y-35147D01*
X72433Y-35109D01*
X72442Y-35090D01*
X72452Y-35081D01*
X72471Y-35072D01*
X72621Y-35137D02*
X72621Y-35269D01*
X72621Y-35156D02*
X72630Y-35147D01*
X72649Y-35137D01*
X72677Y-35137D01*
X72696Y-35147D01*
X72705Y-35165D01*
X72705Y-35269D01*
X73539Y-38754D02*
X73530Y-38764D01*
X73501Y-38773D01*
X73483Y-38773D01*
X73454Y-38764D01*
X73436Y-38745D01*
X73426Y-38726D01*
X73417Y-38689D01*
X73417Y-38661D01*
X73426Y-38623D01*
X73436Y-38604D01*
X73454Y-38586D01*
X73483Y-38576D01*
X73501Y-38576D01*
X73530Y-38586D01*
X73539Y-38595D01*
X73708Y-38642D02*
X73708Y-38773D01*
X73661Y-38567D02*
X73614Y-38707D01*
X73736Y-38707D01*
X73914Y-38773D02*
X73802Y-38773D01*
X73858Y-38773D02*
X73858Y-38576D01*
X73839Y-38604D01*
X73820Y-38623D01*
X73802Y-38632D01*
X74102Y-38773D02*
X73989Y-38773D01*
X74045Y-38773D02*
X74045Y-38576D01*
X74027Y-38604D01*
X74008Y-38623D01*
X73989Y-38632D01*
X73539Y-39048D02*
X73426Y-39048D01*
X73483Y-39048D02*
X73483Y-38851D01*
X73464Y-38879D01*
X73445Y-38898D01*
X73426Y-38907D01*
X73661Y-38851D02*
X73680Y-38851D01*
X73698Y-38861D01*
X73708Y-38870D01*
X73717Y-38889D01*
X73727Y-38926D01*
X73727Y-38973D01*
X73717Y-39011D01*
X73708Y-39029D01*
X73698Y-39039D01*
X73680Y-39048D01*
X73661Y-39048D01*
X73642Y-39039D01*
X73633Y-39029D01*
X73623Y-39011D01*
X73614Y-38973D01*
X73614Y-38926D01*
X73623Y-38889D01*
X73633Y-38870D01*
X73642Y-38861D01*
X73661Y-38851D01*
X73848Y-38851D02*
X73867Y-38851D01*
X73886Y-38861D01*
X73895Y-38870D01*
X73905Y-38889D01*
X73914Y-38926D01*
X73914Y-38973D01*
X73905Y-39011D01*
X73895Y-39029D01*
X73886Y-39039D01*
X73867Y-39048D01*
X73848Y-39048D01*
X73830Y-39039D01*
X73820Y-39029D01*
X73811Y-39011D01*
X73802Y-38973D01*
X73802Y-38926D01*
X73811Y-38889D01*
X73820Y-38870D01*
X73830Y-38861D01*
X73848Y-38851D01*
X73999Y-38917D02*
X73999Y-39048D01*
X73999Y-38936D02*
X74008Y-38926D01*
X74027Y-38917D01*
X74055Y-38917D01*
X74074Y-38926D01*
X74083Y-38945D01*
X74083Y-39048D01*
G54D14*
X68322Y-29470D02*
X68262Y-29375D01*
X68219Y-29470D02*
X68219Y-29270D01*
X68287Y-29270D01*
X68305Y-29280D01*
X68313Y-29289D01*
X68322Y-29308D01*
X68322Y-29337D01*
X68313Y-29356D01*
X68305Y-29365D01*
X68287Y-29375D01*
X68219Y-29375D01*
X68476Y-29337D02*
X68476Y-29470D01*
X68433Y-29261D02*
X68390Y-29404D01*
X68502Y-29404D01*
X68665Y-29470D02*
X68562Y-29470D01*
X68613Y-29470D02*
X68613Y-29270D01*
X68596Y-29299D01*
X68579Y-29318D01*
X68562Y-29327D01*
X68776Y-29270D02*
X68793Y-29270D01*
X68810Y-29280D01*
X68819Y-29289D01*
X68827Y-29308D01*
X68836Y-29346D01*
X68836Y-29394D01*
X68827Y-29432D01*
X68819Y-29451D01*
X68810Y-29461D01*
X68793Y-29470D01*
X68776Y-29470D01*
X68759Y-29461D01*
X68750Y-29451D01*
X68742Y-29432D01*
X68733Y-29394D01*
X68733Y-29346D01*
X68742Y-29308D01*
X68750Y-29289D01*
X68759Y-29280D01*
X68776Y-29270D01*
X70408Y-26458D02*
X70348Y-26363D01*
X70305Y-26458D02*
X70305Y-26258D01*
X70374Y-26258D01*
X70391Y-26268D01*
X70400Y-26277D01*
X70408Y-26297D01*
X70408Y-26325D01*
X70400Y-26344D01*
X70391Y-26354D01*
X70374Y-26363D01*
X70305Y-26363D01*
X70477Y-26277D02*
X70485Y-26268D01*
X70503Y-26258D01*
X70545Y-26258D01*
X70563Y-26268D01*
X70571Y-26277D01*
X70580Y-26297D01*
X70580Y-26316D01*
X70571Y-26344D01*
X70468Y-26458D01*
X70580Y-26458D01*
X70691Y-26258D02*
X70708Y-26258D01*
X70725Y-26268D01*
X70734Y-26277D01*
X70743Y-26297D01*
X70751Y-26335D01*
X70751Y-26382D01*
X70743Y-26420D01*
X70734Y-26439D01*
X70725Y-26449D01*
X70708Y-26458D01*
X70691Y-26458D01*
X70674Y-26449D01*
X70665Y-26439D01*
X70657Y-26420D01*
X70648Y-26382D01*
X70648Y-26335D01*
X70657Y-26297D01*
X70665Y-26277D01*
X70674Y-26268D01*
X70691Y-26258D01*
X70923Y-26458D02*
X70820Y-26458D01*
X70871Y-26458D02*
X70871Y-26258D01*
X70854Y-26287D01*
X70837Y-26306D01*
X70820Y-26316D01*
X69214Y-27366D02*
X69119Y-27426D01*
X69214Y-27469D02*
X69014Y-27469D01*
X69014Y-27401D01*
X69024Y-27383D01*
X69033Y-27375D01*
X69052Y-27366D01*
X69081Y-27366D01*
X69100Y-27375D01*
X69110Y-27383D01*
X69119Y-27401D01*
X69119Y-27469D01*
X69033Y-27298D02*
X69024Y-27289D01*
X69014Y-27272D01*
X69014Y-27229D01*
X69024Y-27212D01*
X69033Y-27203D01*
X69052Y-27195D01*
X69071Y-27195D01*
X69100Y-27203D01*
X69214Y-27306D01*
X69214Y-27195D01*
X69014Y-27083D02*
X69014Y-27066D01*
X69024Y-27049D01*
X69033Y-27041D01*
X69052Y-27032D01*
X69091Y-27023D01*
X69138Y-27023D01*
X69176Y-27032D01*
X69195Y-27041D01*
X69205Y-27049D01*
X69214Y-27066D01*
X69214Y-27083D01*
X69205Y-27101D01*
X69195Y-27109D01*
X69176Y-27118D01*
X69138Y-27126D01*
X69091Y-27126D01*
X69052Y-27118D01*
X69033Y-27109D01*
X69024Y-27101D01*
X69014Y-27083D01*
X69033Y-26955D02*
X69024Y-26946D01*
X69014Y-26929D01*
X69014Y-26886D01*
X69024Y-26869D01*
X69033Y-26861D01*
X69052Y-26852D01*
X69071Y-26852D01*
X69100Y-26861D01*
X69214Y-26963D01*
X69214Y-26852D01*
X71084Y-28449D02*
X70989Y-28509D01*
X71084Y-28552D02*
X70884Y-28552D01*
X70884Y-28483D01*
X70894Y-28466D01*
X70903Y-28458D01*
X70922Y-28449D01*
X70951Y-28449D01*
X70970Y-28458D01*
X70980Y-28466D01*
X70989Y-28483D01*
X70989Y-28552D01*
X70903Y-28380D02*
X70894Y-28372D01*
X70884Y-28355D01*
X70884Y-28312D01*
X70894Y-28295D01*
X70903Y-28286D01*
X70922Y-28278D01*
X70942Y-28278D01*
X70970Y-28286D01*
X71084Y-28389D01*
X71084Y-28278D01*
X70884Y-28166D02*
X70884Y-28149D01*
X70894Y-28132D01*
X70903Y-28123D01*
X70922Y-28115D01*
X70961Y-28106D01*
X71008Y-28106D01*
X71046Y-28115D01*
X71065Y-28123D01*
X71075Y-28132D01*
X71084Y-28149D01*
X71084Y-28166D01*
X71075Y-28183D01*
X71065Y-28192D01*
X71046Y-28200D01*
X71008Y-28209D01*
X70961Y-28209D01*
X70922Y-28200D01*
X70903Y-28192D01*
X70894Y-28183D01*
X70884Y-28166D01*
X70884Y-28046D02*
X70884Y-27935D01*
X70961Y-27995D01*
X70961Y-27969D01*
X70970Y-27952D01*
X70980Y-27943D01*
X70999Y-27935D01*
X71046Y-27935D01*
X71065Y-27943D01*
X71075Y-27952D01*
X71084Y-27969D01*
X71084Y-28020D01*
X71075Y-28038D01*
X71065Y-28046D01*
X68322Y-30061D02*
X68262Y-29966D01*
X68219Y-30061D02*
X68219Y-29861D01*
X68287Y-29861D01*
X68305Y-29870D01*
X68313Y-29880D01*
X68322Y-29899D01*
X68322Y-29927D01*
X68313Y-29946D01*
X68305Y-29956D01*
X68287Y-29966D01*
X68219Y-29966D01*
X68476Y-29927D02*
X68476Y-30061D01*
X68433Y-29851D02*
X68390Y-29994D01*
X68502Y-29994D01*
X68605Y-29861D02*
X68622Y-29861D01*
X68639Y-29870D01*
X68647Y-29880D01*
X68656Y-29899D01*
X68665Y-29937D01*
X68665Y-29985D01*
X68656Y-30023D01*
X68647Y-30042D01*
X68639Y-30051D01*
X68622Y-30061D01*
X68605Y-30061D01*
X68587Y-30051D01*
X68579Y-30042D01*
X68570Y-30023D01*
X68562Y-29985D01*
X68562Y-29937D01*
X68570Y-29899D01*
X68579Y-29880D01*
X68587Y-29870D01*
X68605Y-29861D01*
X68750Y-30061D02*
X68785Y-30061D01*
X68802Y-30051D01*
X68810Y-30042D01*
X68827Y-30013D01*
X68836Y-29975D01*
X68836Y-29899D01*
X68827Y-29880D01*
X68819Y-29870D01*
X68802Y-29861D01*
X68767Y-29861D01*
X68750Y-29870D01*
X68742Y-29880D01*
X68733Y-29899D01*
X68733Y-29946D01*
X68742Y-29966D01*
X68750Y-29975D01*
X68767Y-29985D01*
X68802Y-29985D01*
X68819Y-29975D01*
X68827Y-29966D01*
X68836Y-29946D01*
X69188Y-30671D02*
X69128Y-30576D01*
X69085Y-30671D02*
X69085Y-30471D01*
X69154Y-30471D01*
X69171Y-30481D01*
X69179Y-30490D01*
X69188Y-30509D01*
X69188Y-30538D01*
X69179Y-30557D01*
X69171Y-30566D01*
X69154Y-30576D01*
X69085Y-30576D01*
X69342Y-30538D02*
X69342Y-30671D01*
X69299Y-30461D02*
X69256Y-30604D01*
X69368Y-30604D01*
X69531Y-30671D02*
X69428Y-30671D01*
X69479Y-30671D02*
X69479Y-30471D01*
X69462Y-30500D01*
X69445Y-30519D01*
X69428Y-30528D01*
X69702Y-30671D02*
X69599Y-30671D01*
X69651Y-30671D02*
X69651Y-30471D01*
X69634Y-30500D01*
X69616Y-30519D01*
X69599Y-30528D01*
G54D10*
X74097Y-37868D02*
X74116Y-37812D01*
X74116Y-37718D01*
X74097Y-37680D01*
X74078Y-37662D01*
X74041Y-37643D01*
X74003Y-37643D01*
X73966Y-37662D01*
X73947Y-37680D01*
X73928Y-37718D01*
X73909Y-37793D01*
X73891Y-37830D01*
X73872Y-37849D01*
X73834Y-37868D01*
X73797Y-37868D01*
X73759Y-37849D01*
X73741Y-37830D01*
X73722Y-37793D01*
X73722Y-37699D01*
X73741Y-37643D01*
X73722Y-37512D02*
X74116Y-37418D01*
X73834Y-37343D01*
X74116Y-37268D01*
X73722Y-37174D01*
X73853Y-36856D02*
X74116Y-36856D01*
X73703Y-36949D02*
X73984Y-37043D01*
X73984Y-36799D01*
X73722Y-36574D02*
X73722Y-36537D01*
X73741Y-36499D01*
X73759Y-36481D01*
X73797Y-36462D01*
X73872Y-36443D01*
X73966Y-36443D01*
X74041Y-36462D01*
X74078Y-36481D01*
X74097Y-36499D01*
X74116Y-36537D01*
X74116Y-36574D01*
X74097Y-36612D01*
X74078Y-36631D01*
X74041Y-36649D01*
X73966Y-36668D01*
X73872Y-36668D01*
X73797Y-36649D01*
X73759Y-36631D01*
X73741Y-36612D01*
X73722Y-36574D01*
X73853Y-36106D02*
X74116Y-36106D01*
X73703Y-36199D02*
X73984Y-36293D01*
X73984Y-36049D01*
X74156Y-34147D02*
X74175Y-34091D01*
X74175Y-33997D01*
X74156Y-33960D01*
X74137Y-33941D01*
X74100Y-33922D01*
X74062Y-33922D01*
X74025Y-33941D01*
X74006Y-33960D01*
X73987Y-33997D01*
X73968Y-34072D01*
X73950Y-34110D01*
X73931Y-34129D01*
X73893Y-34147D01*
X73856Y-34147D01*
X73818Y-34129D01*
X73800Y-34110D01*
X73781Y-34072D01*
X73781Y-33979D01*
X73800Y-33922D01*
X73781Y-33791D02*
X74175Y-33697D01*
X73893Y-33622D01*
X74175Y-33547D01*
X73781Y-33454D01*
X73912Y-33135D02*
X74175Y-33135D01*
X73762Y-33229D02*
X74043Y-33323D01*
X74043Y-33079D01*
X73781Y-32854D02*
X73781Y-32816D01*
X73800Y-32779D01*
X73818Y-32760D01*
X73856Y-32741D01*
X73931Y-32723D01*
X74025Y-32723D01*
X74100Y-32741D01*
X74137Y-32760D01*
X74156Y-32779D01*
X74175Y-32816D01*
X74175Y-32854D01*
X74156Y-32891D01*
X74137Y-32910D01*
X74100Y-32929D01*
X74025Y-32948D01*
X73931Y-32948D01*
X73856Y-32929D01*
X73818Y-32910D01*
X73800Y-32891D01*
X73781Y-32854D01*
X73781Y-32591D02*
X73781Y-32348D01*
X73931Y-32479D01*
X73931Y-32423D01*
X73950Y-32385D01*
X73968Y-32366D01*
X74006Y-32348D01*
X74100Y-32348D01*
X74137Y-32366D01*
X74156Y-32385D01*
X74175Y-32423D01*
X74175Y-32535D01*
X74156Y-32573D01*
X74137Y-32591D01*
X74156Y-30427D02*
X74175Y-30371D01*
X74175Y-30277D01*
X74156Y-30239D01*
X74137Y-30221D01*
X74100Y-30202D01*
X74062Y-30202D01*
X74025Y-30221D01*
X74006Y-30239D01*
X73987Y-30277D01*
X73968Y-30352D01*
X73950Y-30389D01*
X73931Y-30408D01*
X73893Y-30427D01*
X73856Y-30427D01*
X73818Y-30408D01*
X73800Y-30389D01*
X73781Y-30352D01*
X73781Y-30258D01*
X73800Y-30202D01*
X73781Y-30071D02*
X74175Y-29977D01*
X73893Y-29902D01*
X74175Y-29827D01*
X73781Y-29733D01*
X73912Y-29415D02*
X74175Y-29415D01*
X73762Y-29508D02*
X74043Y-29602D01*
X74043Y-29358D01*
X73781Y-29133D02*
X73781Y-29096D01*
X73800Y-29058D01*
X73818Y-29040D01*
X73856Y-29021D01*
X73931Y-29002D01*
X74025Y-29002D01*
X74100Y-29021D01*
X74137Y-29040D01*
X74156Y-29058D01*
X74175Y-29096D01*
X74175Y-29133D01*
X74156Y-29171D01*
X74137Y-29190D01*
X74100Y-29208D01*
X74025Y-29227D01*
X73931Y-29227D01*
X73856Y-29208D01*
X73818Y-29190D01*
X73800Y-29171D01*
X73781Y-29133D01*
X73818Y-28852D02*
X73800Y-28833D01*
X73781Y-28796D01*
X73781Y-28702D01*
X73800Y-28665D01*
X73818Y-28646D01*
X73856Y-28627D01*
X73893Y-28627D01*
X73950Y-28646D01*
X74175Y-28871D01*
X74175Y-28627D01*
M02*
