G04 (created by PCBNEW (2013-june-11)-stable) date St 3. září 2014, 22:49:41 CEST*
%MOIN*%
G04 Gerber Fmt 3.4, Leading zero omitted, Abs format*
%FSLAX34Y34*%
G01*
G70*
G90*
G04 APERTURE LIST*
%ADD10C,0.00590551*%
%ADD11C,0.005*%
%ADD12C,0.0039*%
%ADD13C,0.0059*%
%ADD14C,0.0024*%
%ADD15C,0.0075*%
%ADD16C,0.008*%
%ADD17C,0.00393701*%
%ADD18C,0.0043*%
%ADD19C,0.0045*%
%ADD20C,0.006*%
%ADD21C,0.012*%
%ADD22C,0.0047*%
G04 APERTURE END LIST*
G54D10*
X54114Y-32795D02*
X54114Y-37677D01*
X54114Y-37677D02*
X56003Y-37677D01*
X56003Y-37677D02*
X56003Y-32795D01*
X56003Y-32795D02*
X54114Y-32795D01*
X57145Y-34547D02*
X57145Y-37736D01*
X57145Y-37736D02*
X58877Y-37736D01*
X58877Y-37736D02*
X58917Y-34547D01*
X58917Y-34547D02*
X57145Y-34547D01*
G54D11*
X74999Y-37620D02*
X74739Y-37360D01*
X74999Y-37560D02*
X74804Y-37360D01*
X74489Y-38050D02*
X74269Y-38050D01*
X74489Y-37540D02*
X74269Y-37540D01*
X74999Y-37795D02*
X75219Y-37795D01*
X74999Y-38050D02*
X75219Y-38050D01*
X74999Y-37540D02*
X75219Y-37540D01*
X74489Y-37360D02*
X74489Y-38230D01*
X74489Y-38230D02*
X74999Y-38230D01*
X74999Y-38230D02*
X74999Y-37360D01*
X74999Y-37360D02*
X74489Y-37360D01*
X50434Y-37004D02*
X50684Y-37004D01*
X50684Y-37004D02*
X50684Y-37404D01*
X49984Y-37404D02*
X49984Y-37004D01*
X49984Y-37004D02*
X50234Y-37004D01*
X50434Y-36954D02*
X50434Y-37004D01*
X50234Y-37004D02*
X50234Y-36954D01*
X50684Y-37404D02*
X49984Y-37404D01*
X50234Y-36954D02*
X50434Y-36954D01*
X67509Y-38472D02*
X66309Y-38472D01*
X66309Y-38472D02*
X66309Y-38772D01*
X66309Y-38772D02*
X67509Y-38772D01*
X67509Y-38772D02*
X67509Y-38472D01*
X75540Y-36176D02*
X75540Y-35476D01*
X75540Y-35476D02*
X74340Y-35476D01*
X74340Y-35476D02*
X74340Y-36176D01*
X74340Y-36176D02*
X75540Y-36176D01*
X48307Y-35354D02*
X48307Y-34724D01*
X48267Y-34724D02*
X48267Y-35354D01*
X49212Y-34724D02*
X48110Y-34724D01*
X48110Y-34724D02*
X48110Y-35354D01*
X48110Y-35354D02*
X49212Y-35354D01*
X49212Y-35354D02*
X49212Y-34724D01*
X70531Y-37775D02*
X70531Y-38405D01*
X70571Y-38405D02*
X70571Y-37775D01*
X69626Y-38405D02*
X70728Y-38405D01*
X70728Y-38405D02*
X70728Y-37775D01*
X70728Y-37775D02*
X69626Y-37775D01*
X69626Y-37775D02*
X69626Y-38405D01*
X72759Y-31608D02*
X74759Y-31608D01*
X74759Y-31608D02*
X74759Y-29808D01*
X74759Y-29808D02*
X72759Y-29808D01*
X72759Y-29808D02*
X72759Y-31608D01*
X72759Y-31008D02*
X72959Y-31008D01*
X72959Y-31008D02*
X72959Y-30508D01*
X72959Y-30508D02*
X72759Y-30508D01*
X52186Y-32120D02*
G75*
G03X52186Y-32120I-70J0D01*
G74*
G01*
X50965Y-32770D02*
X50965Y-32170D01*
X50965Y-32170D02*
X52065Y-32170D01*
X52065Y-32170D02*
X52065Y-32770D01*
X52065Y-33370D02*
X52065Y-33970D01*
X52065Y-33970D02*
X50965Y-33970D01*
X50965Y-33970D02*
X50965Y-33370D01*
X69216Y-28205D02*
X69216Y-27305D01*
X69216Y-27305D02*
X69866Y-27305D01*
X70566Y-28205D02*
X71216Y-28205D01*
X71216Y-28205D02*
X71216Y-27305D01*
X71216Y-27305D02*
X70566Y-27305D01*
X69866Y-28205D02*
X69216Y-28205D01*
X52064Y-31905D02*
X51164Y-31905D01*
X51164Y-31905D02*
X51164Y-31255D01*
X52064Y-30555D02*
X52064Y-29905D01*
X52064Y-29905D02*
X51164Y-29905D01*
X51164Y-29905D02*
X51164Y-30555D01*
X52064Y-31255D02*
X52064Y-31905D01*
X72719Y-32858D02*
X73619Y-32858D01*
X73619Y-32858D02*
X73619Y-33508D01*
X72719Y-34208D02*
X72719Y-34858D01*
X72719Y-34858D02*
X73619Y-34858D01*
X73619Y-34858D02*
X73619Y-34208D01*
X72719Y-33508D02*
X72719Y-32858D01*
X47562Y-34505D02*
X47562Y-33605D01*
X47562Y-33605D02*
X48212Y-33605D01*
X48912Y-34505D02*
X49562Y-34505D01*
X49562Y-34505D02*
X49562Y-33605D01*
X49562Y-33605D02*
X48912Y-33605D01*
X48212Y-34505D02*
X47562Y-34505D01*
X49884Y-34236D02*
X50784Y-34236D01*
X50784Y-34236D02*
X50784Y-34886D01*
X49884Y-35586D02*
X49884Y-36236D01*
X49884Y-36236D02*
X50784Y-36236D01*
X50784Y-36236D02*
X50784Y-35586D01*
X49884Y-34886D02*
X49884Y-34236D01*
X47562Y-37261D02*
X47562Y-36361D01*
X47562Y-36361D02*
X48212Y-36361D01*
X48912Y-37261D02*
X49562Y-37261D01*
X49562Y-37261D02*
X49562Y-36361D01*
X49562Y-36361D02*
X48912Y-36361D01*
X48212Y-37261D02*
X47562Y-37261D01*
X51065Y-34236D02*
X51965Y-34236D01*
X51965Y-34236D02*
X51965Y-34886D01*
X51065Y-35586D02*
X51065Y-36236D01*
X51065Y-36236D02*
X51965Y-36236D01*
X51965Y-36236D02*
X51965Y-35586D01*
X51065Y-34886D02*
X51065Y-34236D01*
X47562Y-38245D02*
X47562Y-37345D01*
X47562Y-37345D02*
X48212Y-37345D01*
X48912Y-38245D02*
X49562Y-38245D01*
X49562Y-38245D02*
X49562Y-37345D01*
X49562Y-37345D02*
X48912Y-37345D01*
X48212Y-38245D02*
X47562Y-38245D01*
X76473Y-38893D02*
X75573Y-38893D01*
X75573Y-38893D02*
X75573Y-38243D01*
X76473Y-37543D02*
X76473Y-36893D01*
X76473Y-36893D02*
X75573Y-36893D01*
X75573Y-36893D02*
X75573Y-37543D01*
X76473Y-38243D02*
X76473Y-38893D01*
X74012Y-38893D02*
X73112Y-38893D01*
X73112Y-38893D02*
X73112Y-38243D01*
X74012Y-37543D02*
X74012Y-36893D01*
X74012Y-36893D02*
X73112Y-36893D01*
X73112Y-36893D02*
X73112Y-37543D01*
X74012Y-38243D02*
X74012Y-38893D01*
G54D12*
X56482Y-34212D02*
G75*
G03X56482Y-34212I-50J0D01*
G74*
G01*
X56432Y-33762D02*
X56432Y-34162D01*
X56432Y-34162D02*
X57032Y-34162D01*
X57032Y-34162D02*
X57032Y-33762D01*
X57032Y-33362D02*
X57032Y-32962D01*
X57032Y-32962D02*
X56432Y-32962D01*
X56432Y-32962D02*
X56432Y-33362D01*
X57466Y-34212D02*
G75*
G03X57466Y-34212I-50J0D01*
G74*
G01*
X57416Y-33762D02*
X57416Y-34162D01*
X57416Y-34162D02*
X58016Y-34162D01*
X58016Y-34162D02*
X58016Y-33762D01*
X58016Y-33362D02*
X58016Y-32962D01*
X58016Y-32962D02*
X57416Y-32962D01*
X57416Y-32962D02*
X57416Y-33362D01*
X61353Y-32401D02*
G75*
G03X61353Y-32401I-50J0D01*
G74*
G01*
X61303Y-32851D02*
X61303Y-32451D01*
X61303Y-32451D02*
X60703Y-32451D01*
X60703Y-32451D02*
X60703Y-32851D01*
X60703Y-33251D02*
X60703Y-33651D01*
X60703Y-33651D02*
X61303Y-33651D01*
X61303Y-33651D02*
X61303Y-33251D01*
X52938Y-34212D02*
G75*
G03X52938Y-34212I-50J0D01*
G74*
G01*
X52888Y-33762D02*
X52888Y-34162D01*
X52888Y-34162D02*
X53488Y-34162D01*
X53488Y-34162D02*
X53488Y-33762D01*
X53488Y-33362D02*
X53488Y-32962D01*
X53488Y-32962D02*
X52888Y-32962D01*
X52888Y-32962D02*
X52888Y-33362D01*
X52938Y-35689D02*
G75*
G03X52938Y-35689I-50J0D01*
G74*
G01*
X52888Y-35239D02*
X52888Y-35639D01*
X52888Y-35639D02*
X53488Y-35639D01*
X53488Y-35639D02*
X53488Y-35239D01*
X53488Y-34839D02*
X53488Y-34439D01*
X53488Y-34439D02*
X52888Y-34439D01*
X52888Y-34439D02*
X52888Y-34839D01*
X56383Y-39429D02*
G75*
G03X56383Y-39429I-50J0D01*
G74*
G01*
X56333Y-38979D02*
X56333Y-39379D01*
X56333Y-39379D02*
X56933Y-39379D01*
X56933Y-39379D02*
X56933Y-38979D01*
X56933Y-38579D02*
X56933Y-38179D01*
X56933Y-38179D02*
X56333Y-38179D01*
X56333Y-38179D02*
X56333Y-38579D01*
X52525Y-31575D02*
G75*
G03X52525Y-31575I-50J0D01*
G74*
G01*
X52475Y-31125D02*
X52475Y-31525D01*
X52475Y-31525D02*
X53075Y-31525D01*
X53075Y-31525D02*
X53075Y-31125D01*
X53075Y-30725D02*
X53075Y-30325D01*
X53075Y-30325D02*
X52475Y-30325D01*
X52475Y-30325D02*
X52475Y-30725D01*
X49990Y-38203D02*
G75*
G03X49990Y-38203I-50J0D01*
G74*
G01*
X50390Y-38203D02*
X49990Y-38203D01*
X49990Y-38203D02*
X49990Y-38803D01*
X49990Y-38803D02*
X50390Y-38803D01*
X50790Y-38803D02*
X51190Y-38803D01*
X51190Y-38803D02*
X51190Y-38203D01*
X51190Y-38203D02*
X50790Y-38203D01*
X57510Y-26451D02*
G75*
G03X57510Y-26451I-50J0D01*
G74*
G01*
X57910Y-26451D02*
X57510Y-26451D01*
X57510Y-26451D02*
X57510Y-27051D01*
X57510Y-27051D02*
X57910Y-27051D01*
X58310Y-27051D02*
X58710Y-27051D01*
X58710Y-27051D02*
X58710Y-26451D01*
X58710Y-26451D02*
X58310Y-26451D01*
X59503Y-30688D02*
G75*
G03X59503Y-30688I-50J0D01*
G74*
G01*
X59453Y-31138D02*
X59453Y-30738D01*
X59453Y-30738D02*
X58853Y-30738D01*
X58853Y-30738D02*
X58853Y-31138D01*
X58853Y-31538D02*
X58853Y-31938D01*
X58853Y-31938D02*
X59453Y-31938D01*
X59453Y-31938D02*
X59453Y-31538D01*
X51708Y-28109D02*
G75*
G03X51708Y-28109I-50J0D01*
G74*
G01*
X51658Y-28559D02*
X51658Y-28159D01*
X51658Y-28159D02*
X51058Y-28159D01*
X51058Y-28159D02*
X51058Y-28559D01*
X51058Y-28959D02*
X51058Y-29359D01*
X51058Y-29359D02*
X51658Y-29359D01*
X51658Y-29359D02*
X51658Y-28959D01*
X48869Y-39079D02*
G75*
G03X48869Y-39079I-50J0D01*
G74*
G01*
X48369Y-39079D02*
X48769Y-39079D01*
X48769Y-39079D02*
X48769Y-38479D01*
X48769Y-38479D02*
X48369Y-38479D01*
X47969Y-38479D02*
X47569Y-38479D01*
X47569Y-38479D02*
X47569Y-39079D01*
X47569Y-39079D02*
X47969Y-39079D01*
X48869Y-30811D02*
G75*
G03X48869Y-30811I-50J0D01*
G74*
G01*
X48369Y-30811D02*
X48769Y-30811D01*
X48769Y-30811D02*
X48769Y-30211D01*
X48769Y-30211D02*
X48369Y-30211D01*
X47969Y-30211D02*
X47569Y-30211D01*
X47569Y-30211D02*
X47569Y-30811D01*
X47569Y-30811D02*
X47969Y-30811D01*
X48869Y-31599D02*
G75*
G03X48869Y-31599I-50J0D01*
G74*
G01*
X48369Y-31599D02*
X48769Y-31599D01*
X48769Y-31599D02*
X48769Y-30999D01*
X48769Y-30999D02*
X48369Y-30999D01*
X47969Y-30999D02*
X47569Y-30999D01*
X47569Y-30999D02*
X47569Y-31599D01*
X47569Y-31599D02*
X47969Y-31599D01*
X48869Y-36126D02*
G75*
G03X48869Y-36126I-50J0D01*
G74*
G01*
X48369Y-36126D02*
X48769Y-36126D01*
X48769Y-36126D02*
X48769Y-35526D01*
X48769Y-35526D02*
X48369Y-35526D01*
X47969Y-35526D02*
X47569Y-35526D01*
X47569Y-35526D02*
X47569Y-36126D01*
X47569Y-36126D02*
X47969Y-36126D01*
X48869Y-33174D02*
G75*
G03X48869Y-33174I-50J0D01*
G74*
G01*
X48369Y-33174D02*
X48769Y-33174D01*
X48769Y-33174D02*
X48769Y-32574D01*
X48769Y-32574D02*
X48369Y-32574D01*
X47969Y-32574D02*
X47569Y-32574D01*
X47569Y-32574D02*
X47569Y-33174D01*
X47569Y-33174D02*
X47969Y-33174D01*
X48869Y-32386D02*
G75*
G03X48869Y-32386I-50J0D01*
G74*
G01*
X48369Y-32386D02*
X48769Y-32386D01*
X48769Y-32386D02*
X48769Y-31786D01*
X48769Y-31786D02*
X48369Y-31786D01*
X47969Y-31786D02*
X47569Y-31786D01*
X47569Y-31786D02*
X47569Y-32386D01*
X47569Y-32386D02*
X47969Y-32386D01*
G54D11*
X69580Y-29780D02*
X69580Y-28880D01*
X69580Y-28880D02*
X69080Y-28880D01*
X69080Y-28880D02*
X69080Y-29780D01*
X69080Y-29780D02*
X69580Y-29780D01*
X69274Y-28793D02*
X70174Y-28793D01*
X70174Y-28793D02*
X70174Y-28293D01*
X70174Y-28293D02*
X69274Y-28293D01*
X69274Y-28293D02*
X69274Y-28793D01*
X68658Y-38805D02*
X67758Y-38805D01*
X67758Y-38805D02*
X67758Y-39305D01*
X67758Y-39305D02*
X68658Y-39305D01*
X68658Y-39305D02*
X68658Y-38805D01*
X59690Y-31459D02*
X59690Y-32359D01*
X59690Y-32359D02*
X60190Y-32359D01*
X60190Y-32359D02*
X60190Y-31459D01*
X60190Y-31459D02*
X59690Y-31459D01*
X50781Y-32438D02*
X50781Y-31538D01*
X50781Y-31538D02*
X50281Y-31538D01*
X50281Y-31538D02*
X50281Y-32438D01*
X50281Y-32438D02*
X50781Y-32438D01*
X74108Y-36276D02*
X74108Y-35376D01*
X74108Y-35376D02*
X73608Y-35376D01*
X73608Y-35376D02*
X73608Y-36276D01*
X73608Y-36276D02*
X74108Y-36276D01*
X49547Y-32932D02*
X49547Y-33152D01*
X49802Y-32422D02*
X49802Y-32202D01*
X49292Y-32422D02*
X49292Y-32202D01*
X49112Y-32932D02*
X49982Y-32932D01*
X49982Y-32932D02*
X49982Y-32422D01*
X49982Y-32422D02*
X49112Y-32422D01*
X49112Y-32422D02*
X49112Y-32932D01*
G54D10*
X55610Y-37913D02*
X53169Y-37913D01*
X53169Y-37913D02*
X53169Y-39645D01*
X53169Y-39645D02*
X55728Y-39606D01*
X55728Y-39606D02*
X55728Y-37913D01*
X55728Y-37913D02*
X55570Y-37913D01*
X45610Y-36417D02*
X45413Y-36417D01*
X45413Y-36417D02*
X45413Y-36811D01*
X45413Y-36811D02*
X45019Y-36811D01*
X45019Y-36811D02*
X45019Y-29527D01*
X45019Y-29527D02*
X45216Y-29527D01*
X45216Y-29527D02*
X45413Y-29527D01*
X45413Y-29527D02*
X45413Y-29921D01*
X45413Y-29921D02*
X45610Y-29921D01*
X47185Y-35433D02*
X47185Y-29330D01*
X47185Y-35433D02*
X47185Y-37007D01*
X47185Y-29330D02*
X45610Y-29330D01*
X45610Y-29330D02*
X45610Y-30708D01*
X47185Y-37007D02*
X45610Y-37007D01*
X45610Y-37007D02*
X45610Y-30708D01*
G54D12*
X72184Y-26180D02*
X72184Y-26102D01*
X75334Y-26180D02*
X75334Y-26102D01*
X72184Y-28306D02*
X75334Y-28306D01*
X75334Y-28306D02*
X75334Y-26180D01*
X75334Y-26102D02*
X72184Y-26102D01*
X72184Y-26180D02*
X72184Y-28306D01*
G54D13*
X58129Y-31869D02*
X58090Y-31908D01*
X58011Y-31908D02*
X58129Y-31790D01*
X58129Y-31712D02*
X57933Y-31908D01*
X57854Y-31908D02*
X58129Y-31633D01*
X58129Y-31554D02*
X57775Y-31908D01*
X57696Y-31908D02*
X58129Y-31475D01*
X58129Y-31397D02*
X57618Y-31908D01*
X57539Y-31908D02*
X58129Y-31318D01*
X57460Y-31908D02*
X58129Y-31908D01*
X58129Y-31908D02*
X58129Y-31239D01*
X58129Y-31239D02*
X57460Y-31908D01*
X53563Y-31239D02*
X53563Y-31908D01*
X53563Y-31908D02*
X54232Y-31908D01*
X54232Y-27342D02*
X53563Y-27342D01*
X53563Y-27342D02*
X53563Y-28011D01*
X58129Y-28011D02*
X58129Y-27342D01*
X58129Y-27342D02*
X57460Y-27342D01*
G54D11*
X54076Y-31595D02*
X57616Y-31595D01*
X53876Y-31395D02*
X53876Y-27855D01*
X57616Y-27655D02*
X54076Y-27655D01*
X57816Y-31395D02*
X57816Y-27855D01*
X57566Y-31195D02*
G75*
G03X57566Y-31195I-150J0D01*
G74*
G01*
X57616Y-31595D02*
X57816Y-31395D01*
X53876Y-31395D02*
X54076Y-31595D01*
X54076Y-27655D02*
X53876Y-27855D01*
X57816Y-27855D02*
X57616Y-27655D01*
X71122Y-27361D02*
X71122Y-25787D01*
X71082Y-25787D02*
X71082Y-27361D01*
X71043Y-27361D02*
X71043Y-25787D01*
X71003Y-25787D02*
X71003Y-27361D01*
X70964Y-27361D02*
X70964Y-25787D01*
X70925Y-27361D02*
X70925Y-25787D01*
X71161Y-27361D02*
X71161Y-25787D01*
X71161Y-25787D02*
X69271Y-25787D01*
X69271Y-25787D02*
X69271Y-27361D01*
X69271Y-27361D02*
X71161Y-27361D01*
X75728Y-30605D02*
X75728Y-30525D01*
X74978Y-30005D02*
X74978Y-31805D01*
X74978Y-31805D02*
X75228Y-31805D01*
X76478Y-31165D02*
X74978Y-31165D01*
X76478Y-31295D02*
X74978Y-31295D01*
X76228Y-30005D02*
X76478Y-30005D01*
X76478Y-30005D02*
X76478Y-31805D01*
X76478Y-31805D02*
X76228Y-31805D01*
X75228Y-30005D02*
X74978Y-30005D01*
X75728Y-30855D02*
X75541Y-30605D01*
X75541Y-30605D02*
X75728Y-30605D01*
X75728Y-30605D02*
X75915Y-30605D01*
X75915Y-30605D02*
X75728Y-30855D01*
X75728Y-30855D02*
X75603Y-30855D01*
X75603Y-30855D02*
X75541Y-30793D01*
X75728Y-30855D02*
X75853Y-30855D01*
X75853Y-30855D02*
X75915Y-30917D01*
X75728Y-30855D02*
X75728Y-31292D01*
X74837Y-33661D02*
X74757Y-33661D01*
X74237Y-34411D02*
X76037Y-34411D01*
X76037Y-34411D02*
X76037Y-34161D01*
X75397Y-32911D02*
X75397Y-34411D01*
X75527Y-32911D02*
X75527Y-34411D01*
X74237Y-33161D02*
X74237Y-32911D01*
X74237Y-32911D02*
X76037Y-32911D01*
X76037Y-32911D02*
X76037Y-33161D01*
X74237Y-34161D02*
X74237Y-34411D01*
X75087Y-33661D02*
X74837Y-33848D01*
X74837Y-33848D02*
X74837Y-33661D01*
X74837Y-33661D02*
X74837Y-33474D01*
X74837Y-33474D02*
X75087Y-33661D01*
X75087Y-33661D02*
X75087Y-33786D01*
X75087Y-33786D02*
X75025Y-33848D01*
X75087Y-33661D02*
X75087Y-33536D01*
X75087Y-33536D02*
X75149Y-33474D01*
X75087Y-33661D02*
X75524Y-33661D01*
G54D10*
X66968Y-34645D02*
X62047Y-34645D01*
X66968Y-25984D02*
X66968Y-34645D01*
X66968Y-25984D02*
X62047Y-25984D01*
X62047Y-34645D02*
X62047Y-25984D01*
X45236Y-28248D02*
X45236Y-26673D01*
X45236Y-26673D02*
X53110Y-26673D01*
X53110Y-26673D02*
X53110Y-28248D01*
X53110Y-28248D02*
X45236Y-28248D01*
X59094Y-38523D02*
X58700Y-38523D01*
X58700Y-38523D02*
X58700Y-38917D01*
X58700Y-38917D02*
X59094Y-38917D01*
X61456Y-38523D02*
X61850Y-38523D01*
X61850Y-38523D02*
X61850Y-38917D01*
X61850Y-38917D02*
X61456Y-38917D01*
X61456Y-38720D02*
X61456Y-37933D01*
X61456Y-37933D02*
X59094Y-37933D01*
X59094Y-37933D02*
X59094Y-39507D01*
X59094Y-39507D02*
X61456Y-39507D01*
X61456Y-39507D02*
X61456Y-38720D01*
G54D11*
X69330Y-38268D02*
X69330Y-39842D01*
X69370Y-39842D02*
X69370Y-38268D01*
X69409Y-38268D02*
X69409Y-39842D01*
X69449Y-39842D02*
X69449Y-38268D01*
X69488Y-38268D02*
X69488Y-39842D01*
X69527Y-38268D02*
X69527Y-39842D01*
X69291Y-38268D02*
X69291Y-39842D01*
X69291Y-39842D02*
X71181Y-39842D01*
X71181Y-39842D02*
X71181Y-38268D01*
X71181Y-38268D02*
X69291Y-38268D01*
G54D10*
X54864Y-34385D02*
X55257Y-34647D01*
X54864Y-34647D02*
X55257Y-34385D01*
X54995Y-34966D02*
X55257Y-34966D01*
X54845Y-34872D02*
X55126Y-34778D01*
X55126Y-35022D01*
X54864Y-35247D02*
X54864Y-35284D01*
X54882Y-35322D01*
X54901Y-35341D01*
X54939Y-35359D01*
X55014Y-35378D01*
X55107Y-35378D01*
X55182Y-35359D01*
X55220Y-35341D01*
X55239Y-35322D01*
X55257Y-35284D01*
X55257Y-35247D01*
X55239Y-35209D01*
X55220Y-35191D01*
X55182Y-35172D01*
X55107Y-35153D01*
X55014Y-35153D01*
X54939Y-35172D01*
X54901Y-35191D01*
X54882Y-35209D01*
X54864Y-35247D01*
X54901Y-35528D02*
X54882Y-35547D01*
X54864Y-35584D01*
X54864Y-35678D01*
X54882Y-35716D01*
X54901Y-35734D01*
X54939Y-35753D01*
X54976Y-35753D01*
X55032Y-35734D01*
X55257Y-35509D01*
X55257Y-35753D01*
X57816Y-35507D02*
X58210Y-35769D01*
X57816Y-35769D02*
X58210Y-35507D01*
X57948Y-36088D02*
X58210Y-36088D01*
X57798Y-35994D02*
X58079Y-35900D01*
X58079Y-36144D01*
X57816Y-36369D02*
X57816Y-36407D01*
X57835Y-36444D01*
X57854Y-36463D01*
X57891Y-36482D01*
X57966Y-36500D01*
X58060Y-36500D01*
X58135Y-36482D01*
X58173Y-36463D01*
X58191Y-36444D01*
X58210Y-36407D01*
X58210Y-36369D01*
X58191Y-36332D01*
X58173Y-36313D01*
X58135Y-36294D01*
X58060Y-36275D01*
X57966Y-36275D01*
X57891Y-36294D01*
X57854Y-36313D01*
X57835Y-36332D01*
X57816Y-36369D01*
X58210Y-36875D02*
X58210Y-36650D01*
X58210Y-36763D02*
X57816Y-36763D01*
X57873Y-36725D01*
X57910Y-36688D01*
X57929Y-36650D01*
G54D14*
X74594Y-37592D02*
X74690Y-37592D01*
X74701Y-37598D01*
X74707Y-37604D01*
X74712Y-37615D01*
X74712Y-37637D01*
X74707Y-37649D01*
X74701Y-37654D01*
X74690Y-37660D01*
X74594Y-37660D01*
X74606Y-37710D02*
X74600Y-37716D01*
X74594Y-37727D01*
X74594Y-37755D01*
X74600Y-37767D01*
X74606Y-37772D01*
X74617Y-37778D01*
X74628Y-37778D01*
X74645Y-37772D01*
X74712Y-37705D01*
X74712Y-37778D01*
X74594Y-37851D02*
X74594Y-37862D01*
X74600Y-37873D01*
X74606Y-37879D01*
X74617Y-37885D01*
X74639Y-37890D01*
X74667Y-37890D01*
X74690Y-37885D01*
X74701Y-37879D01*
X74707Y-37873D01*
X74712Y-37862D01*
X74712Y-37851D01*
X74707Y-37840D01*
X74701Y-37834D01*
X74690Y-37828D01*
X74667Y-37823D01*
X74639Y-37823D01*
X74617Y-37828D01*
X74606Y-37834D01*
X74600Y-37840D01*
X74594Y-37851D01*
X74634Y-37991D02*
X74712Y-37991D01*
X74589Y-37963D02*
X74673Y-37935D01*
X74673Y-38008D01*
X74870Y-37261D02*
X74870Y-37205D01*
X74752Y-37205D01*
X74870Y-37300D02*
X74752Y-37300D01*
X74752Y-37328D01*
X74758Y-37345D01*
X74769Y-37356D01*
X74780Y-37362D01*
X74803Y-37368D01*
X74820Y-37368D01*
X74842Y-37362D01*
X74853Y-37356D01*
X74865Y-37345D01*
X74870Y-37328D01*
X74870Y-37300D01*
X74752Y-37474D02*
X74752Y-37418D01*
X74809Y-37413D01*
X74803Y-37418D01*
X74797Y-37430D01*
X74797Y-37458D01*
X74803Y-37469D01*
X74809Y-37474D01*
X74820Y-37480D01*
X74848Y-37480D01*
X74859Y-37474D01*
X74865Y-37469D01*
X74870Y-37458D01*
X74870Y-37430D01*
X74865Y-37418D01*
X74859Y-37413D01*
X74870Y-37536D02*
X74870Y-37559D01*
X74865Y-37570D01*
X74859Y-37576D01*
X74842Y-37587D01*
X74820Y-37592D01*
X74775Y-37592D01*
X74764Y-37587D01*
X74758Y-37581D01*
X74752Y-37570D01*
X74752Y-37548D01*
X74758Y-37536D01*
X74764Y-37531D01*
X74775Y-37525D01*
X74803Y-37525D01*
X74814Y-37531D01*
X74820Y-37536D01*
X74825Y-37548D01*
X74825Y-37570D01*
X74820Y-37581D01*
X74814Y-37587D01*
X74803Y-37592D01*
X74752Y-37666D02*
X74752Y-37677D01*
X74758Y-37688D01*
X74764Y-37694D01*
X74775Y-37699D01*
X74797Y-37705D01*
X74825Y-37705D01*
X74848Y-37699D01*
X74859Y-37694D01*
X74865Y-37688D01*
X74870Y-37677D01*
X74870Y-37666D01*
X74865Y-37654D01*
X74859Y-37649D01*
X74848Y-37643D01*
X74825Y-37637D01*
X74797Y-37637D01*
X74775Y-37643D01*
X74764Y-37649D01*
X74758Y-37654D01*
X74752Y-37666D01*
X74870Y-37817D02*
X74870Y-37750D01*
X74870Y-37784D02*
X74752Y-37784D01*
X74769Y-37772D01*
X74780Y-37761D01*
X74786Y-37750D01*
X74752Y-37924D02*
X74752Y-37868D01*
X74809Y-37862D01*
X74803Y-37868D01*
X74797Y-37879D01*
X74797Y-37907D01*
X74803Y-37918D01*
X74809Y-37924D01*
X74820Y-37930D01*
X74848Y-37930D01*
X74859Y-37924D01*
X74865Y-37918D01*
X74870Y-37907D01*
X74870Y-37879D01*
X74865Y-37868D01*
X74859Y-37862D01*
X74859Y-38048D02*
X74865Y-38042D01*
X74870Y-38025D01*
X74870Y-38014D01*
X74865Y-37997D01*
X74853Y-37986D01*
X74842Y-37980D01*
X74820Y-37975D01*
X74803Y-37975D01*
X74780Y-37980D01*
X74769Y-37986D01*
X74758Y-37997D01*
X74752Y-38014D01*
X74752Y-38025D01*
X74758Y-38042D01*
X74764Y-38048D01*
X74752Y-38087D02*
X74752Y-38160D01*
X74797Y-38121D01*
X74797Y-38138D01*
X74803Y-38149D01*
X74809Y-38154D01*
X74820Y-38160D01*
X74848Y-38160D01*
X74859Y-38154D01*
X74865Y-38149D01*
X74870Y-38138D01*
X74870Y-38104D01*
X74865Y-38093D01*
X74859Y-38087D01*
X74752Y-38199D02*
X74752Y-38272D01*
X74797Y-38233D01*
X74797Y-38250D01*
X74803Y-38261D01*
X74809Y-38267D01*
X74820Y-38272D01*
X74848Y-38272D01*
X74859Y-38267D01*
X74865Y-38261D01*
X74870Y-38250D01*
X74870Y-38216D01*
X74865Y-38205D01*
X74859Y-38199D01*
X74870Y-38390D02*
X74814Y-38351D01*
X74870Y-38323D02*
X74752Y-38323D01*
X74752Y-38368D01*
X74758Y-38379D01*
X74764Y-38385D01*
X74775Y-38390D01*
X74792Y-38390D01*
X74803Y-38385D01*
X74809Y-38379D01*
X74814Y-38368D01*
X74814Y-38323D01*
G54D12*
X50891Y-38126D02*
X50891Y-37826D01*
X50820Y-37826D01*
X50777Y-37840D01*
X50748Y-37869D01*
X50734Y-37897D01*
X50720Y-37954D01*
X50720Y-37997D01*
X50734Y-38054D01*
X50748Y-38083D01*
X50777Y-38111D01*
X50820Y-38126D01*
X50891Y-38126D01*
X50620Y-37826D02*
X50434Y-37826D01*
X50534Y-37940D01*
X50491Y-37940D01*
X50463Y-37954D01*
X50448Y-37969D01*
X50434Y-37997D01*
X50434Y-38069D01*
X50448Y-38097D01*
X50463Y-38111D01*
X50491Y-38126D01*
X50577Y-38126D01*
X50606Y-38111D01*
X50620Y-38097D01*
X50248Y-37826D02*
X50220Y-37826D01*
X50191Y-37840D01*
X50177Y-37854D01*
X50163Y-37883D01*
X50148Y-37940D01*
X50148Y-38011D01*
X50163Y-38069D01*
X50177Y-38097D01*
X50191Y-38111D01*
X50220Y-38126D01*
X50248Y-38126D01*
X50277Y-38111D01*
X50291Y-38097D01*
X50306Y-38069D01*
X50320Y-38011D01*
X50320Y-37940D01*
X50306Y-37883D01*
X50291Y-37854D01*
X50277Y-37840D01*
X50248Y-37826D01*
X49863Y-38126D02*
X50034Y-38126D01*
X49948Y-38126D02*
X49948Y-37826D01*
X49977Y-37869D01*
X50006Y-37897D01*
X50034Y-37911D01*
G54D15*
X67223Y-37822D02*
X67252Y-37807D01*
X67280Y-37779D01*
X67323Y-37736D01*
X67352Y-37722D01*
X67380Y-37722D01*
X67366Y-37793D02*
X67395Y-37779D01*
X67423Y-37750D01*
X67438Y-37693D01*
X67438Y-37593D01*
X67423Y-37536D01*
X67395Y-37507D01*
X67366Y-37493D01*
X67309Y-37493D01*
X67280Y-37507D01*
X67252Y-37536D01*
X67238Y-37593D01*
X67238Y-37693D01*
X67252Y-37750D01*
X67280Y-37779D01*
X67309Y-37793D01*
X67366Y-37793D01*
X66980Y-37593D02*
X66980Y-37793D01*
X67052Y-37479D02*
X67123Y-37693D01*
X66938Y-37693D01*
X66766Y-37493D02*
X66738Y-37493D01*
X66709Y-37507D01*
X66695Y-37522D01*
X66680Y-37550D01*
X66666Y-37607D01*
X66666Y-37679D01*
X66680Y-37736D01*
X66695Y-37764D01*
X66709Y-37779D01*
X66738Y-37793D01*
X66766Y-37793D01*
X66795Y-37779D01*
X66809Y-37764D01*
X66823Y-37736D01*
X66838Y-37679D01*
X66838Y-37607D01*
X66823Y-37550D01*
X66809Y-37522D01*
X66795Y-37507D01*
X66766Y-37493D01*
X66380Y-37793D02*
X66552Y-37793D01*
X66466Y-37793D02*
X66466Y-37493D01*
X66495Y-37536D01*
X66523Y-37564D01*
X66552Y-37579D01*
G54D16*
G54D11*
X75658Y-35516D02*
X75860Y-35516D01*
X75884Y-35528D01*
X75896Y-35540D01*
X75908Y-35563D01*
X75908Y-35611D01*
X75896Y-35635D01*
X75884Y-35647D01*
X75860Y-35659D01*
X75658Y-35659D01*
X75681Y-35766D02*
X75670Y-35778D01*
X75658Y-35801D01*
X75658Y-35861D01*
X75670Y-35885D01*
X75681Y-35897D01*
X75705Y-35909D01*
X75729Y-35909D01*
X75765Y-35897D01*
X75908Y-35754D01*
X75908Y-35909D01*
X75658Y-36063D02*
X75658Y-36087D01*
X75670Y-36111D01*
X75681Y-36123D01*
X75705Y-36135D01*
X75753Y-36147D01*
X75812Y-36147D01*
X75860Y-36135D01*
X75884Y-36123D01*
X75896Y-36111D01*
X75908Y-36087D01*
X75908Y-36063D01*
X75896Y-36040D01*
X75884Y-36028D01*
X75860Y-36016D01*
X75812Y-36004D01*
X75753Y-36004D01*
X75705Y-36016D01*
X75681Y-36028D01*
X75670Y-36040D01*
X75658Y-36063D01*
X75658Y-36230D02*
X75658Y-36385D01*
X75753Y-36301D01*
X75753Y-36337D01*
X75765Y-36361D01*
X75777Y-36373D01*
X75800Y-36385D01*
X75860Y-36385D01*
X75884Y-36373D01*
X75896Y-36361D01*
X75908Y-36337D01*
X75908Y-36266D01*
X75896Y-36242D01*
X75884Y-36230D01*
X75869Y-35927D02*
X75869Y-35677D01*
X75786Y-35856D01*
X75702Y-35677D01*
X75702Y-35927D01*
X75440Y-35904D02*
X75452Y-35916D01*
X75488Y-35927D01*
X75512Y-35927D01*
X75548Y-35916D01*
X75571Y-35892D01*
X75583Y-35868D01*
X75595Y-35820D01*
X75595Y-35785D01*
X75583Y-35737D01*
X75571Y-35713D01*
X75548Y-35689D01*
X75512Y-35677D01*
X75488Y-35677D01*
X75452Y-35689D01*
X75440Y-35701D01*
X75333Y-35927D02*
X75333Y-35677D01*
X75238Y-35677D01*
X75214Y-35689D01*
X75202Y-35701D01*
X75190Y-35725D01*
X75190Y-35761D01*
X75202Y-35785D01*
X75214Y-35797D01*
X75238Y-35808D01*
X75333Y-35808D01*
X75107Y-35677D02*
X74940Y-35677D01*
X75048Y-35927D01*
X74869Y-35677D02*
X74714Y-35677D01*
X74798Y-35773D01*
X74762Y-35773D01*
X74738Y-35785D01*
X74726Y-35797D01*
X74714Y-35820D01*
X74714Y-35880D01*
X74726Y-35904D01*
X74738Y-35916D01*
X74762Y-35927D01*
X74833Y-35927D01*
X74857Y-35916D01*
X74869Y-35904D01*
X74571Y-35785D02*
X74595Y-35773D01*
X74607Y-35761D01*
X74619Y-35737D01*
X74619Y-35725D01*
X74607Y-35701D01*
X74595Y-35689D01*
X74571Y-35677D01*
X74524Y-35677D01*
X74500Y-35689D01*
X74488Y-35701D01*
X74476Y-35725D01*
X74476Y-35737D01*
X74488Y-35761D01*
X74500Y-35773D01*
X74524Y-35785D01*
X74571Y-35785D01*
X74595Y-35797D01*
X74607Y-35808D01*
X74619Y-35832D01*
X74619Y-35880D01*
X74607Y-35904D01*
X74595Y-35916D01*
X74571Y-35927D01*
X74524Y-35927D01*
X74500Y-35916D01*
X74488Y-35904D01*
X74476Y-35880D01*
X74476Y-35832D01*
X74488Y-35808D01*
X74500Y-35797D01*
X74524Y-35785D01*
X74393Y-35677D02*
X74238Y-35677D01*
X74321Y-35773D01*
X74286Y-35773D01*
X74262Y-35785D01*
X74250Y-35797D01*
X74238Y-35820D01*
X74238Y-35880D01*
X74250Y-35904D01*
X74262Y-35916D01*
X74286Y-35927D01*
X74357Y-35927D01*
X74381Y-35916D01*
X74393Y-35904D01*
X74000Y-35927D02*
X74143Y-35927D01*
X74071Y-35927D02*
X74071Y-35677D01*
X74095Y-35713D01*
X74119Y-35737D01*
X74143Y-35749D01*
G54D17*
X48927Y-34591D02*
X48927Y-34433D01*
X48890Y-34433D01*
X48867Y-34441D01*
X48852Y-34456D01*
X48845Y-34471D01*
X48837Y-34501D01*
X48837Y-34523D01*
X48845Y-34553D01*
X48852Y-34568D01*
X48867Y-34583D01*
X48890Y-34591D01*
X48927Y-34591D01*
X48785Y-34433D02*
X48687Y-34433D01*
X48740Y-34493D01*
X48717Y-34493D01*
X48702Y-34501D01*
X48695Y-34508D01*
X48687Y-34523D01*
X48687Y-34561D01*
X48695Y-34576D01*
X48702Y-34583D01*
X48717Y-34591D01*
X48762Y-34591D01*
X48777Y-34583D01*
X48785Y-34576D01*
X48590Y-34433D02*
X48575Y-34433D01*
X48560Y-34441D01*
X48552Y-34448D01*
X48545Y-34463D01*
X48537Y-34493D01*
X48537Y-34531D01*
X48545Y-34561D01*
X48552Y-34576D01*
X48560Y-34583D01*
X48575Y-34591D01*
X48590Y-34591D01*
X48605Y-34583D01*
X48612Y-34576D01*
X48620Y-34561D01*
X48627Y-34531D01*
X48627Y-34493D01*
X48620Y-34463D01*
X48612Y-34448D01*
X48605Y-34441D01*
X48590Y-34433D01*
X48477Y-34448D02*
X48470Y-34441D01*
X48455Y-34433D01*
X48417Y-34433D01*
X48402Y-34441D01*
X48395Y-34448D01*
X48387Y-34463D01*
X48387Y-34478D01*
X48395Y-34501D01*
X48485Y-34591D01*
X48387Y-34591D01*
X70443Y-38666D02*
X70443Y-38508D01*
X70405Y-38508D01*
X70383Y-38516D01*
X70368Y-38531D01*
X70360Y-38546D01*
X70353Y-38576D01*
X70353Y-38598D01*
X70360Y-38628D01*
X70368Y-38643D01*
X70383Y-38658D01*
X70405Y-38666D01*
X70443Y-38666D01*
X70218Y-38561D02*
X70218Y-38666D01*
X70255Y-38501D02*
X70293Y-38613D01*
X70195Y-38613D01*
X70105Y-38508D02*
X70090Y-38508D01*
X70075Y-38516D01*
X70068Y-38523D01*
X70060Y-38538D01*
X70053Y-38568D01*
X70053Y-38606D01*
X70060Y-38636D01*
X70068Y-38651D01*
X70075Y-38658D01*
X70090Y-38666D01*
X70105Y-38666D01*
X70120Y-38658D01*
X70128Y-38651D01*
X70135Y-38636D01*
X70143Y-38606D01*
X70143Y-38568D01*
X70135Y-38538D01*
X70128Y-38523D01*
X70120Y-38516D01*
X70105Y-38508D01*
X69903Y-38666D02*
X69993Y-38666D01*
X69948Y-38666D02*
X69948Y-38508D01*
X69963Y-38531D01*
X69978Y-38546D01*
X69993Y-38553D01*
G54D11*
X74445Y-30940D02*
X74445Y-31305D01*
X74426Y-31347D01*
X74407Y-31369D01*
X74369Y-31390D01*
X74293Y-31390D01*
X74255Y-31369D01*
X74236Y-31347D01*
X74216Y-31305D01*
X74216Y-30940D01*
X74045Y-30983D02*
X74026Y-30962D01*
X73988Y-30940D01*
X73893Y-30940D01*
X73855Y-30962D01*
X73836Y-30983D01*
X73816Y-31026D01*
X73816Y-31069D01*
X73836Y-31133D01*
X74064Y-31390D01*
X73816Y-31390D01*
X73569Y-30940D02*
X73531Y-30940D01*
X73493Y-30962D01*
X73474Y-30983D01*
X73455Y-31026D01*
X73436Y-31112D01*
X73436Y-31219D01*
X73455Y-31305D01*
X73474Y-31347D01*
X73493Y-31369D01*
X73531Y-31390D01*
X73569Y-31390D01*
X73607Y-31369D01*
X73626Y-31347D01*
X73645Y-31305D01*
X73664Y-31219D01*
X73664Y-31112D01*
X73645Y-31026D01*
X73626Y-30983D01*
X73607Y-30962D01*
X73569Y-30940D01*
X73283Y-30983D02*
X73264Y-30962D01*
X73226Y-30940D01*
X73131Y-30940D01*
X73093Y-30962D01*
X73074Y-30983D01*
X73055Y-31026D01*
X73055Y-31069D01*
X73074Y-31133D01*
X73302Y-31390D01*
X73055Y-31390D01*
X74845Y-29970D02*
X74845Y-30294D01*
X74826Y-30332D01*
X74807Y-30351D01*
X74769Y-30370D01*
X74693Y-30370D01*
X74655Y-30351D01*
X74636Y-30332D01*
X74616Y-30294D01*
X74616Y-29970D01*
X74445Y-30351D02*
X74388Y-30370D01*
X74293Y-30370D01*
X74255Y-30351D01*
X74236Y-30332D01*
X74216Y-30294D01*
X74216Y-30256D01*
X74236Y-30218D01*
X74255Y-30199D01*
X74293Y-30180D01*
X74369Y-30161D01*
X74407Y-30141D01*
X74426Y-30122D01*
X74445Y-30084D01*
X74445Y-30046D01*
X74426Y-30008D01*
X74407Y-29989D01*
X74369Y-29970D01*
X74274Y-29970D01*
X74216Y-29989D01*
X73912Y-30161D02*
X73855Y-30180D01*
X73836Y-30199D01*
X73816Y-30237D01*
X73816Y-30294D01*
X73836Y-30332D01*
X73855Y-30351D01*
X73893Y-30370D01*
X74045Y-30370D01*
X74045Y-29970D01*
X73912Y-29970D01*
X73874Y-29989D01*
X73855Y-30008D01*
X73836Y-30046D01*
X73836Y-30084D01*
X73855Y-30122D01*
X73874Y-30141D01*
X73912Y-30161D01*
X74045Y-30161D01*
X73474Y-29970D02*
X73550Y-29970D01*
X73588Y-29989D01*
X73607Y-30008D01*
X73645Y-30065D01*
X73664Y-30141D01*
X73664Y-30294D01*
X73645Y-30332D01*
X73626Y-30351D01*
X73588Y-30370D01*
X73512Y-30370D01*
X73474Y-30351D01*
X73455Y-30332D01*
X73436Y-30294D01*
X73436Y-30199D01*
X73455Y-30161D01*
X73474Y-30141D01*
X73512Y-30122D01*
X73588Y-30122D01*
X73626Y-30141D01*
X73645Y-30161D01*
X73664Y-30199D01*
X73131Y-30161D02*
X73074Y-30180D01*
X73055Y-30199D01*
X73036Y-30237D01*
X73036Y-30294D01*
X73055Y-30332D01*
X73074Y-30351D01*
X73112Y-30370D01*
X73264Y-30370D01*
X73264Y-29970D01*
X73131Y-29970D01*
X73093Y-29989D01*
X73074Y-30008D01*
X73055Y-30046D01*
X73055Y-30084D01*
X73074Y-30122D01*
X73093Y-30141D01*
X73131Y-30161D01*
X73264Y-30161D01*
X72902Y-29970D02*
X72636Y-30370D01*
X72636Y-29970D02*
X72902Y-30370D01*
X51437Y-32735D02*
X51437Y-32592D01*
X51137Y-32592D01*
X51137Y-32806D02*
X51137Y-32992D01*
X51251Y-32892D01*
X51251Y-32935D01*
X51265Y-32963D01*
X51280Y-32978D01*
X51308Y-32992D01*
X51380Y-32992D01*
X51408Y-32978D01*
X51422Y-32963D01*
X51437Y-32935D01*
X51437Y-32849D01*
X51422Y-32820D01*
X51408Y-32806D01*
X51137Y-33178D02*
X51137Y-33206D01*
X51151Y-33235D01*
X51165Y-33249D01*
X51194Y-33263D01*
X51251Y-33278D01*
X51322Y-33278D01*
X51380Y-33263D01*
X51408Y-33249D01*
X51422Y-33235D01*
X51437Y-33206D01*
X51437Y-33178D01*
X51422Y-33149D01*
X51408Y-33135D01*
X51380Y-33120D01*
X51322Y-33106D01*
X51251Y-33106D01*
X51194Y-33120D01*
X51165Y-33135D01*
X51151Y-33149D01*
X51137Y-33178D01*
X51437Y-33563D02*
X51437Y-33392D01*
X51437Y-33478D02*
X51137Y-33478D01*
X51180Y-33449D01*
X51208Y-33420D01*
X51222Y-33392D01*
X51565Y-32549D02*
X51551Y-32563D01*
X51537Y-32592D01*
X51537Y-32663D01*
X51551Y-32692D01*
X51565Y-32706D01*
X51594Y-32720D01*
X51622Y-32720D01*
X51665Y-32706D01*
X51837Y-32535D01*
X51837Y-32720D01*
X51565Y-32835D02*
X51551Y-32849D01*
X51537Y-32878D01*
X51537Y-32949D01*
X51551Y-32978D01*
X51565Y-32992D01*
X51594Y-33006D01*
X51622Y-33006D01*
X51665Y-32992D01*
X51837Y-32820D01*
X51837Y-33006D01*
X51637Y-33263D02*
X51837Y-33263D01*
X51637Y-33135D02*
X51794Y-33135D01*
X51822Y-33149D01*
X51837Y-33178D01*
X51837Y-33220D01*
X51822Y-33249D01*
X51808Y-33263D01*
X51837Y-33406D02*
X51537Y-33406D01*
X51680Y-33406D02*
X51680Y-33578D01*
X51837Y-33578D02*
X51537Y-33578D01*
X70552Y-27848D02*
X70566Y-27863D01*
X70609Y-27877D01*
X70637Y-27877D01*
X70680Y-27863D01*
X70709Y-27834D01*
X70723Y-27805D01*
X70737Y-27748D01*
X70737Y-27705D01*
X70723Y-27648D01*
X70709Y-27620D01*
X70680Y-27591D01*
X70637Y-27577D01*
X70609Y-27577D01*
X70566Y-27591D01*
X70552Y-27605D01*
X70437Y-27605D02*
X70423Y-27591D01*
X70395Y-27577D01*
X70323Y-27577D01*
X70295Y-27591D01*
X70280Y-27605D01*
X70266Y-27634D01*
X70266Y-27663D01*
X70280Y-27705D01*
X70452Y-27877D01*
X70266Y-27877D01*
X70080Y-27577D02*
X70052Y-27577D01*
X70023Y-27591D01*
X70009Y-27605D01*
X69995Y-27634D01*
X69980Y-27691D01*
X69980Y-27763D01*
X69995Y-27820D01*
X70009Y-27848D01*
X70023Y-27863D01*
X70052Y-27877D01*
X70080Y-27877D01*
X70109Y-27863D01*
X70123Y-27848D01*
X70137Y-27820D01*
X70152Y-27763D01*
X70152Y-27691D01*
X70137Y-27634D01*
X70123Y-27605D01*
X70109Y-27591D01*
X70080Y-27577D01*
X69866Y-27605D02*
X69852Y-27591D01*
X69823Y-27577D01*
X69752Y-27577D01*
X69723Y-27591D01*
X69709Y-27605D01*
X69695Y-27634D01*
X69695Y-27663D01*
X69709Y-27705D01*
X69880Y-27877D01*
X69695Y-27877D01*
X51707Y-30569D02*
X51721Y-30555D01*
X51735Y-30512D01*
X51735Y-30484D01*
X51721Y-30441D01*
X51692Y-30412D01*
X51664Y-30398D01*
X51607Y-30384D01*
X51564Y-30384D01*
X51507Y-30398D01*
X51478Y-30412D01*
X51449Y-30441D01*
X51435Y-30484D01*
X51435Y-30512D01*
X51449Y-30555D01*
X51464Y-30569D01*
X51435Y-30669D02*
X51435Y-30855D01*
X51549Y-30755D01*
X51549Y-30798D01*
X51564Y-30826D01*
X51578Y-30841D01*
X51607Y-30855D01*
X51678Y-30855D01*
X51707Y-30841D01*
X51721Y-30826D01*
X51735Y-30798D01*
X51735Y-30712D01*
X51721Y-30684D01*
X51707Y-30669D01*
X51435Y-31041D02*
X51435Y-31069D01*
X51449Y-31098D01*
X51464Y-31112D01*
X51492Y-31126D01*
X51549Y-31141D01*
X51621Y-31141D01*
X51678Y-31126D01*
X51707Y-31112D01*
X51721Y-31098D01*
X51735Y-31069D01*
X51735Y-31041D01*
X51721Y-31012D01*
X51707Y-30998D01*
X51678Y-30984D01*
X51621Y-30969D01*
X51549Y-30969D01*
X51492Y-30984D01*
X51464Y-30998D01*
X51449Y-31012D01*
X51435Y-31041D01*
X51735Y-31426D02*
X51735Y-31255D01*
X51735Y-31341D02*
X51435Y-31341D01*
X51478Y-31312D01*
X51507Y-31284D01*
X51521Y-31255D01*
X73262Y-33522D02*
X73276Y-33508D01*
X73290Y-33465D01*
X73290Y-33436D01*
X73276Y-33393D01*
X73247Y-33365D01*
X73219Y-33351D01*
X73162Y-33336D01*
X73119Y-33336D01*
X73062Y-33351D01*
X73033Y-33365D01*
X73005Y-33393D01*
X72990Y-33436D01*
X72990Y-33465D01*
X73005Y-33508D01*
X73019Y-33522D01*
X73019Y-33636D02*
X73005Y-33651D01*
X72990Y-33679D01*
X72990Y-33751D01*
X73005Y-33779D01*
X73019Y-33793D01*
X73047Y-33808D01*
X73076Y-33808D01*
X73119Y-33793D01*
X73290Y-33622D01*
X73290Y-33808D01*
X72990Y-33993D02*
X72990Y-34022D01*
X73005Y-34051D01*
X73019Y-34065D01*
X73047Y-34079D01*
X73105Y-34093D01*
X73176Y-34093D01*
X73233Y-34079D01*
X73262Y-34065D01*
X73276Y-34051D01*
X73290Y-34022D01*
X73290Y-33993D01*
X73276Y-33965D01*
X73262Y-33951D01*
X73233Y-33936D01*
X73176Y-33922D01*
X73105Y-33922D01*
X73047Y-33936D01*
X73019Y-33951D01*
X73005Y-33965D01*
X72990Y-33993D01*
X73290Y-34379D02*
X73290Y-34208D01*
X73290Y-34293D02*
X72990Y-34293D01*
X73033Y-34265D01*
X73062Y-34236D01*
X73076Y-34208D01*
X48898Y-34147D02*
X48912Y-34162D01*
X48955Y-34176D01*
X48984Y-34176D01*
X49027Y-34162D01*
X49055Y-34133D01*
X49070Y-34105D01*
X49084Y-34047D01*
X49084Y-34005D01*
X49070Y-33947D01*
X49055Y-33919D01*
X49027Y-33890D01*
X48984Y-33876D01*
X48955Y-33876D01*
X48912Y-33890D01*
X48898Y-33905D01*
X48798Y-33876D02*
X48612Y-33876D01*
X48712Y-33990D01*
X48670Y-33990D01*
X48641Y-34005D01*
X48627Y-34019D01*
X48612Y-34047D01*
X48612Y-34119D01*
X48627Y-34147D01*
X48641Y-34162D01*
X48670Y-34176D01*
X48755Y-34176D01*
X48784Y-34162D01*
X48798Y-34147D01*
X48427Y-33876D02*
X48398Y-33876D01*
X48370Y-33890D01*
X48355Y-33905D01*
X48341Y-33933D01*
X48327Y-33990D01*
X48327Y-34062D01*
X48341Y-34119D01*
X48355Y-34147D01*
X48370Y-34162D01*
X48398Y-34176D01*
X48427Y-34176D01*
X48455Y-34162D01*
X48470Y-34147D01*
X48484Y-34119D01*
X48498Y-34062D01*
X48498Y-33990D01*
X48484Y-33933D01*
X48470Y-33905D01*
X48455Y-33890D01*
X48427Y-33876D01*
X48227Y-33876D02*
X48041Y-33876D01*
X48141Y-33990D01*
X48098Y-33990D01*
X48070Y-34005D01*
X48055Y-34019D01*
X48041Y-34047D01*
X48041Y-34119D01*
X48055Y-34147D01*
X48070Y-34162D01*
X48098Y-34176D01*
X48184Y-34176D01*
X48212Y-34162D01*
X48227Y-34147D01*
X50427Y-34900D02*
X50441Y-34886D01*
X50456Y-34843D01*
X50456Y-34814D01*
X50441Y-34771D01*
X50413Y-34743D01*
X50384Y-34729D01*
X50327Y-34714D01*
X50284Y-34714D01*
X50227Y-34729D01*
X50198Y-34743D01*
X50170Y-34771D01*
X50156Y-34814D01*
X50156Y-34843D01*
X50170Y-34886D01*
X50184Y-34900D01*
X50156Y-35000D02*
X50156Y-35186D01*
X50270Y-35086D01*
X50270Y-35129D01*
X50284Y-35157D01*
X50298Y-35171D01*
X50327Y-35186D01*
X50398Y-35186D01*
X50427Y-35171D01*
X50441Y-35157D01*
X50456Y-35129D01*
X50456Y-35043D01*
X50441Y-35014D01*
X50427Y-35000D01*
X50156Y-35371D02*
X50156Y-35400D01*
X50170Y-35429D01*
X50184Y-35443D01*
X50213Y-35457D01*
X50270Y-35471D01*
X50341Y-35471D01*
X50398Y-35457D01*
X50427Y-35443D01*
X50441Y-35429D01*
X50456Y-35400D01*
X50456Y-35371D01*
X50441Y-35343D01*
X50427Y-35329D01*
X50398Y-35314D01*
X50341Y-35300D01*
X50270Y-35300D01*
X50213Y-35314D01*
X50184Y-35329D01*
X50170Y-35343D01*
X50156Y-35371D01*
X50184Y-35586D02*
X50170Y-35600D01*
X50156Y-35629D01*
X50156Y-35700D01*
X50170Y-35729D01*
X50184Y-35743D01*
X50213Y-35757D01*
X50241Y-35757D01*
X50284Y-35743D01*
X50456Y-35571D01*
X50456Y-35757D01*
X48898Y-36903D02*
X48912Y-36918D01*
X48955Y-36932D01*
X48984Y-36932D01*
X49027Y-36918D01*
X49055Y-36889D01*
X49070Y-36861D01*
X49084Y-36803D01*
X49084Y-36761D01*
X49070Y-36703D01*
X49055Y-36675D01*
X49027Y-36646D01*
X48984Y-36632D01*
X48955Y-36632D01*
X48912Y-36646D01*
X48898Y-36661D01*
X48798Y-36632D02*
X48612Y-36632D01*
X48712Y-36746D01*
X48670Y-36746D01*
X48641Y-36761D01*
X48627Y-36775D01*
X48612Y-36803D01*
X48612Y-36875D01*
X48627Y-36903D01*
X48641Y-36918D01*
X48670Y-36932D01*
X48755Y-36932D01*
X48784Y-36918D01*
X48798Y-36903D01*
X48427Y-36632D02*
X48398Y-36632D01*
X48370Y-36646D01*
X48355Y-36661D01*
X48341Y-36689D01*
X48327Y-36746D01*
X48327Y-36818D01*
X48341Y-36875D01*
X48355Y-36903D01*
X48370Y-36918D01*
X48398Y-36932D01*
X48427Y-36932D01*
X48455Y-36918D01*
X48470Y-36903D01*
X48484Y-36875D01*
X48498Y-36818D01*
X48498Y-36746D01*
X48484Y-36689D01*
X48470Y-36661D01*
X48455Y-36646D01*
X48427Y-36632D01*
X48070Y-36732D02*
X48070Y-36932D01*
X48141Y-36618D02*
X48212Y-36832D01*
X48027Y-36832D01*
X51608Y-34900D02*
X51622Y-34886D01*
X51637Y-34843D01*
X51637Y-34814D01*
X51622Y-34771D01*
X51594Y-34743D01*
X51565Y-34729D01*
X51508Y-34714D01*
X51465Y-34714D01*
X51408Y-34729D01*
X51380Y-34743D01*
X51351Y-34771D01*
X51337Y-34814D01*
X51337Y-34843D01*
X51351Y-34886D01*
X51365Y-34900D01*
X51337Y-35000D02*
X51337Y-35186D01*
X51451Y-35086D01*
X51451Y-35129D01*
X51465Y-35157D01*
X51480Y-35171D01*
X51508Y-35186D01*
X51580Y-35186D01*
X51608Y-35171D01*
X51622Y-35157D01*
X51637Y-35129D01*
X51637Y-35043D01*
X51622Y-35014D01*
X51608Y-35000D01*
X51637Y-35471D02*
X51637Y-35300D01*
X51637Y-35386D02*
X51337Y-35386D01*
X51380Y-35357D01*
X51408Y-35329D01*
X51422Y-35300D01*
X51637Y-35757D02*
X51637Y-35586D01*
X51637Y-35671D02*
X51337Y-35671D01*
X51380Y-35643D01*
X51408Y-35614D01*
X51422Y-35586D01*
X48898Y-37888D02*
X48912Y-37902D01*
X48955Y-37916D01*
X48984Y-37916D01*
X49027Y-37902D01*
X49055Y-37873D01*
X49070Y-37845D01*
X49084Y-37788D01*
X49084Y-37745D01*
X49070Y-37688D01*
X49055Y-37659D01*
X49027Y-37630D01*
X48984Y-37616D01*
X48955Y-37616D01*
X48912Y-37630D01*
X48898Y-37645D01*
X48798Y-37616D02*
X48612Y-37616D01*
X48712Y-37730D01*
X48670Y-37730D01*
X48641Y-37745D01*
X48627Y-37759D01*
X48612Y-37788D01*
X48612Y-37859D01*
X48627Y-37888D01*
X48641Y-37902D01*
X48670Y-37916D01*
X48755Y-37916D01*
X48784Y-37902D01*
X48798Y-37888D01*
X48327Y-37916D02*
X48498Y-37916D01*
X48412Y-37916D02*
X48412Y-37616D01*
X48441Y-37659D01*
X48470Y-37688D01*
X48498Y-37702D01*
X48212Y-37645D02*
X48198Y-37630D01*
X48170Y-37616D01*
X48098Y-37616D01*
X48070Y-37630D01*
X48055Y-37645D01*
X48041Y-37673D01*
X48041Y-37702D01*
X48055Y-37745D01*
X48227Y-37916D01*
X48041Y-37916D01*
X76116Y-37557D02*
X76130Y-37543D01*
X76145Y-37500D01*
X76145Y-37472D01*
X76130Y-37429D01*
X76102Y-37400D01*
X76073Y-37386D01*
X76016Y-37372D01*
X75973Y-37372D01*
X75916Y-37386D01*
X75887Y-37400D01*
X75859Y-37429D01*
X75845Y-37472D01*
X75845Y-37500D01*
X75859Y-37543D01*
X75873Y-37557D01*
X75873Y-37672D02*
X75859Y-37686D01*
X75845Y-37715D01*
X75845Y-37786D01*
X75859Y-37815D01*
X75873Y-37829D01*
X75902Y-37843D01*
X75930Y-37843D01*
X75973Y-37829D01*
X76145Y-37657D01*
X76145Y-37843D01*
X75845Y-38029D02*
X75845Y-38057D01*
X75859Y-38086D01*
X75873Y-38100D01*
X75902Y-38115D01*
X75959Y-38129D01*
X76030Y-38129D01*
X76087Y-38115D01*
X76116Y-38100D01*
X76130Y-38086D01*
X76145Y-38057D01*
X76145Y-38029D01*
X76130Y-38000D01*
X76116Y-37986D01*
X76087Y-37972D01*
X76030Y-37957D01*
X75959Y-37957D01*
X75902Y-37972D01*
X75873Y-37986D01*
X75859Y-38000D01*
X75845Y-38029D01*
X75845Y-38229D02*
X75845Y-38415D01*
X75959Y-38315D01*
X75959Y-38357D01*
X75973Y-38386D01*
X75987Y-38400D01*
X76016Y-38415D01*
X76087Y-38415D01*
X76116Y-38400D01*
X76130Y-38386D01*
X76145Y-38357D01*
X76145Y-38272D01*
X76130Y-38243D01*
X76116Y-38229D01*
X73655Y-37557D02*
X73670Y-37543D01*
X73684Y-37500D01*
X73684Y-37472D01*
X73670Y-37429D01*
X73641Y-37400D01*
X73612Y-37386D01*
X73555Y-37372D01*
X73512Y-37372D01*
X73455Y-37386D01*
X73427Y-37400D01*
X73398Y-37429D01*
X73384Y-37472D01*
X73384Y-37500D01*
X73398Y-37543D01*
X73412Y-37557D01*
X73412Y-37672D02*
X73398Y-37686D01*
X73384Y-37715D01*
X73384Y-37786D01*
X73398Y-37815D01*
X73412Y-37829D01*
X73441Y-37843D01*
X73470Y-37843D01*
X73512Y-37829D01*
X73684Y-37657D01*
X73684Y-37843D01*
X73384Y-38029D02*
X73384Y-38057D01*
X73398Y-38086D01*
X73412Y-38100D01*
X73441Y-38115D01*
X73498Y-38129D01*
X73570Y-38129D01*
X73627Y-38115D01*
X73655Y-38100D01*
X73670Y-38086D01*
X73684Y-38057D01*
X73684Y-38029D01*
X73670Y-38000D01*
X73655Y-37986D01*
X73627Y-37972D01*
X73570Y-37957D01*
X73498Y-37957D01*
X73441Y-37972D01*
X73412Y-37986D01*
X73398Y-38000D01*
X73384Y-38029D01*
X73484Y-38386D02*
X73684Y-38386D01*
X73370Y-38315D02*
X73584Y-38243D01*
X73584Y-38429D01*
G54D18*
X56918Y-33342D02*
X56927Y-33333D01*
X56937Y-33305D01*
X56937Y-33286D01*
X56927Y-33258D01*
X56908Y-33239D01*
X56890Y-33229D01*
X56852Y-33220D01*
X56824Y-33220D01*
X56786Y-33229D01*
X56768Y-33239D01*
X56749Y-33258D01*
X56740Y-33286D01*
X56740Y-33305D01*
X56749Y-33333D01*
X56758Y-33342D01*
X56805Y-33511D02*
X56937Y-33511D01*
X56730Y-33464D02*
X56871Y-33417D01*
X56871Y-33539D01*
X56740Y-33652D02*
X56740Y-33670D01*
X56749Y-33689D01*
X56758Y-33699D01*
X56777Y-33708D01*
X56815Y-33717D01*
X56861Y-33717D01*
X56899Y-33708D01*
X56918Y-33699D01*
X56927Y-33689D01*
X56937Y-33670D01*
X56937Y-33652D01*
X56927Y-33633D01*
X56918Y-33623D01*
X56899Y-33614D01*
X56861Y-33605D01*
X56815Y-33605D01*
X56777Y-33614D01*
X56758Y-33623D01*
X56749Y-33633D01*
X56740Y-33652D01*
X56758Y-33792D02*
X56749Y-33802D01*
X56740Y-33820D01*
X56740Y-33867D01*
X56749Y-33886D01*
X56758Y-33896D01*
X56777Y-33905D01*
X56796Y-33905D01*
X56824Y-33896D01*
X56937Y-33783D01*
X56937Y-33905D01*
X56662Y-33295D02*
X56662Y-33183D01*
X56662Y-33239D02*
X56465Y-33239D01*
X56493Y-33220D01*
X56511Y-33201D01*
X56521Y-33183D01*
X56483Y-33370D02*
X56474Y-33380D01*
X56465Y-33398D01*
X56465Y-33445D01*
X56474Y-33464D01*
X56483Y-33473D01*
X56502Y-33483D01*
X56521Y-33483D01*
X56549Y-33473D01*
X56662Y-33361D01*
X56662Y-33483D01*
X56643Y-33567D02*
X56652Y-33577D01*
X56662Y-33567D01*
X56652Y-33558D01*
X56643Y-33567D01*
X56662Y-33567D01*
X56465Y-33755D02*
X56465Y-33661D01*
X56558Y-33652D01*
X56549Y-33661D01*
X56540Y-33680D01*
X56540Y-33727D01*
X56549Y-33745D01*
X56558Y-33755D01*
X56577Y-33764D01*
X56624Y-33764D01*
X56643Y-33755D01*
X56652Y-33745D01*
X56662Y-33727D01*
X56662Y-33680D01*
X56652Y-33661D01*
X56643Y-33652D01*
X56530Y-33849D02*
X56727Y-33849D01*
X56540Y-33849D02*
X56530Y-33867D01*
X56530Y-33905D01*
X56540Y-33924D01*
X56549Y-33933D01*
X56568Y-33942D01*
X56624Y-33942D01*
X56643Y-33933D01*
X56652Y-33924D01*
X56662Y-33905D01*
X56662Y-33867D01*
X56652Y-33849D01*
X57902Y-33342D02*
X57911Y-33333D01*
X57921Y-33305D01*
X57921Y-33286D01*
X57911Y-33258D01*
X57893Y-33239D01*
X57874Y-33229D01*
X57836Y-33220D01*
X57808Y-33220D01*
X57771Y-33229D01*
X57752Y-33239D01*
X57733Y-33258D01*
X57724Y-33286D01*
X57724Y-33305D01*
X57733Y-33333D01*
X57743Y-33342D01*
X57789Y-33511D02*
X57921Y-33511D01*
X57714Y-33464D02*
X57855Y-33417D01*
X57855Y-33539D01*
X57724Y-33652D02*
X57724Y-33670D01*
X57733Y-33689D01*
X57743Y-33699D01*
X57761Y-33708D01*
X57799Y-33717D01*
X57846Y-33717D01*
X57883Y-33708D01*
X57902Y-33699D01*
X57911Y-33689D01*
X57921Y-33670D01*
X57921Y-33652D01*
X57911Y-33633D01*
X57902Y-33623D01*
X57883Y-33614D01*
X57846Y-33605D01*
X57799Y-33605D01*
X57761Y-33614D01*
X57743Y-33623D01*
X57733Y-33633D01*
X57724Y-33652D01*
X57921Y-33905D02*
X57921Y-33792D01*
X57921Y-33849D02*
X57724Y-33849D01*
X57752Y-33830D01*
X57771Y-33811D01*
X57780Y-33792D01*
X57646Y-33295D02*
X57646Y-33183D01*
X57646Y-33239D02*
X57449Y-33239D01*
X57477Y-33220D01*
X57496Y-33201D01*
X57505Y-33183D01*
X57468Y-33370D02*
X57458Y-33380D01*
X57449Y-33398D01*
X57449Y-33445D01*
X57458Y-33464D01*
X57468Y-33473D01*
X57486Y-33483D01*
X57505Y-33483D01*
X57533Y-33473D01*
X57646Y-33361D01*
X57646Y-33483D01*
X57627Y-33567D02*
X57636Y-33577D01*
X57646Y-33567D01*
X57636Y-33558D01*
X57627Y-33567D01*
X57646Y-33567D01*
X57449Y-33755D02*
X57449Y-33661D01*
X57543Y-33652D01*
X57533Y-33661D01*
X57524Y-33680D01*
X57524Y-33727D01*
X57533Y-33745D01*
X57543Y-33755D01*
X57561Y-33764D01*
X57608Y-33764D01*
X57627Y-33755D01*
X57636Y-33745D01*
X57646Y-33727D01*
X57646Y-33680D01*
X57636Y-33661D01*
X57627Y-33652D01*
X57514Y-33849D02*
X57711Y-33849D01*
X57524Y-33849D02*
X57514Y-33867D01*
X57514Y-33905D01*
X57524Y-33924D01*
X57533Y-33933D01*
X57552Y-33942D01*
X57608Y-33942D01*
X57627Y-33933D01*
X57636Y-33924D01*
X57646Y-33905D01*
X57646Y-33867D01*
X57636Y-33849D01*
X60939Y-32830D02*
X60949Y-32821D01*
X60958Y-32793D01*
X60958Y-32774D01*
X60949Y-32746D01*
X60930Y-32727D01*
X60911Y-32718D01*
X60874Y-32708D01*
X60846Y-32708D01*
X60808Y-32718D01*
X60789Y-32727D01*
X60771Y-32746D01*
X60761Y-32774D01*
X60761Y-32793D01*
X60771Y-32821D01*
X60780Y-32830D01*
X60761Y-33008D02*
X60761Y-32915D01*
X60855Y-32905D01*
X60846Y-32915D01*
X60836Y-32933D01*
X60836Y-32980D01*
X60846Y-32999D01*
X60855Y-33008D01*
X60874Y-33018D01*
X60921Y-33018D01*
X60939Y-33008D01*
X60949Y-32999D01*
X60958Y-32980D01*
X60958Y-32933D01*
X60949Y-32915D01*
X60939Y-32905D01*
X60761Y-33140D02*
X60761Y-33159D01*
X60771Y-33177D01*
X60780Y-33187D01*
X60799Y-33196D01*
X60836Y-33205D01*
X60883Y-33205D01*
X60921Y-33196D01*
X60939Y-33187D01*
X60949Y-33177D01*
X60958Y-33159D01*
X60958Y-33140D01*
X60949Y-33121D01*
X60939Y-33112D01*
X60921Y-33102D01*
X60883Y-33093D01*
X60836Y-33093D01*
X60799Y-33102D01*
X60780Y-33112D01*
X60771Y-33121D01*
X60761Y-33140D01*
X60958Y-33393D02*
X60958Y-33281D01*
X60958Y-33337D02*
X60761Y-33337D01*
X60789Y-33318D01*
X60808Y-33299D01*
X60817Y-33281D01*
X61233Y-32830D02*
X61233Y-32718D01*
X61233Y-32774D02*
X61036Y-32774D01*
X61064Y-32755D01*
X61083Y-32736D01*
X61092Y-32718D01*
X61036Y-32952D02*
X61036Y-32971D01*
X61046Y-32990D01*
X61055Y-32999D01*
X61074Y-33008D01*
X61111Y-33018D01*
X61158Y-33018D01*
X61196Y-33008D01*
X61214Y-32999D01*
X61224Y-32990D01*
X61233Y-32971D01*
X61233Y-32952D01*
X61224Y-32933D01*
X61214Y-32924D01*
X61196Y-32915D01*
X61158Y-32905D01*
X61111Y-32905D01*
X61074Y-32915D01*
X61055Y-32924D01*
X61046Y-32933D01*
X61036Y-32952D01*
X61036Y-33140D02*
X61036Y-33159D01*
X61046Y-33177D01*
X61055Y-33187D01*
X61074Y-33196D01*
X61111Y-33205D01*
X61158Y-33205D01*
X61196Y-33196D01*
X61214Y-33187D01*
X61224Y-33177D01*
X61233Y-33159D01*
X61233Y-33140D01*
X61224Y-33121D01*
X61214Y-33112D01*
X61196Y-33102D01*
X61158Y-33093D01*
X61111Y-33093D01*
X61074Y-33102D01*
X61055Y-33112D01*
X61046Y-33121D01*
X61036Y-33140D01*
X61102Y-33290D02*
X61233Y-33290D01*
X61121Y-33290D02*
X61111Y-33299D01*
X61102Y-33318D01*
X61102Y-33346D01*
X61111Y-33365D01*
X61130Y-33374D01*
X61233Y-33374D01*
X53374Y-33342D02*
X53384Y-33333D01*
X53393Y-33305D01*
X53393Y-33286D01*
X53384Y-33258D01*
X53365Y-33239D01*
X53346Y-33229D01*
X53309Y-33220D01*
X53281Y-33220D01*
X53243Y-33229D01*
X53224Y-33239D01*
X53206Y-33258D01*
X53196Y-33286D01*
X53196Y-33305D01*
X53206Y-33333D01*
X53215Y-33342D01*
X53262Y-33511D02*
X53393Y-33511D01*
X53187Y-33464D02*
X53328Y-33417D01*
X53328Y-33539D01*
X53196Y-33652D02*
X53196Y-33670D01*
X53206Y-33689D01*
X53215Y-33699D01*
X53234Y-33708D01*
X53271Y-33717D01*
X53318Y-33717D01*
X53356Y-33708D01*
X53374Y-33699D01*
X53384Y-33689D01*
X53393Y-33670D01*
X53393Y-33652D01*
X53384Y-33633D01*
X53374Y-33623D01*
X53356Y-33614D01*
X53318Y-33605D01*
X53271Y-33605D01*
X53234Y-33614D01*
X53215Y-33623D01*
X53206Y-33633D01*
X53196Y-33652D01*
X53262Y-33886D02*
X53393Y-33886D01*
X53187Y-33839D02*
X53328Y-33792D01*
X53328Y-33914D01*
X53118Y-33436D02*
X53118Y-33323D01*
X53118Y-33380D02*
X52921Y-33380D01*
X52949Y-33361D01*
X52968Y-33342D01*
X52978Y-33323D01*
X53006Y-33548D02*
X52996Y-33530D01*
X52987Y-33520D01*
X52968Y-33511D01*
X52959Y-33511D01*
X52940Y-33520D01*
X52931Y-33530D01*
X52921Y-33548D01*
X52921Y-33586D01*
X52931Y-33605D01*
X52940Y-33614D01*
X52959Y-33623D01*
X52968Y-33623D01*
X52987Y-33614D01*
X52996Y-33605D01*
X53006Y-33586D01*
X53006Y-33548D01*
X53015Y-33530D01*
X53024Y-33520D01*
X53043Y-33511D01*
X53081Y-33511D01*
X53099Y-33520D01*
X53109Y-33530D01*
X53118Y-33548D01*
X53118Y-33586D01*
X53109Y-33605D01*
X53099Y-33614D01*
X53081Y-33623D01*
X53043Y-33623D01*
X53024Y-33614D01*
X53015Y-33605D01*
X53006Y-33586D01*
X52987Y-33708D02*
X53184Y-33708D01*
X52996Y-33708D02*
X52987Y-33727D01*
X52987Y-33764D01*
X52996Y-33783D01*
X53006Y-33792D01*
X53024Y-33802D01*
X53081Y-33802D01*
X53099Y-33792D01*
X53109Y-33783D01*
X53118Y-33764D01*
X53118Y-33727D01*
X53109Y-33708D01*
X53374Y-34818D02*
X53384Y-34809D01*
X53393Y-34781D01*
X53393Y-34762D01*
X53384Y-34734D01*
X53365Y-34715D01*
X53346Y-34706D01*
X53309Y-34696D01*
X53281Y-34696D01*
X53243Y-34706D01*
X53224Y-34715D01*
X53206Y-34734D01*
X53196Y-34762D01*
X53196Y-34781D01*
X53206Y-34809D01*
X53215Y-34818D01*
X53262Y-34987D02*
X53393Y-34987D01*
X53187Y-34940D02*
X53328Y-34893D01*
X53328Y-35015D01*
X53196Y-35128D02*
X53196Y-35147D01*
X53206Y-35166D01*
X53215Y-35175D01*
X53234Y-35184D01*
X53271Y-35194D01*
X53318Y-35194D01*
X53356Y-35184D01*
X53374Y-35175D01*
X53384Y-35166D01*
X53393Y-35147D01*
X53393Y-35128D01*
X53384Y-35109D01*
X53374Y-35100D01*
X53356Y-35090D01*
X53318Y-35081D01*
X53271Y-35081D01*
X53234Y-35090D01*
X53215Y-35100D01*
X53206Y-35109D01*
X53196Y-35128D01*
X53196Y-35259D02*
X53196Y-35381D01*
X53271Y-35316D01*
X53271Y-35344D01*
X53281Y-35363D01*
X53290Y-35372D01*
X53309Y-35381D01*
X53356Y-35381D01*
X53374Y-35372D01*
X53384Y-35363D01*
X53393Y-35344D01*
X53393Y-35287D01*
X53384Y-35269D01*
X53374Y-35259D01*
X53118Y-34912D02*
X53118Y-34800D01*
X53118Y-34856D02*
X52921Y-34856D01*
X52949Y-34837D01*
X52968Y-34818D01*
X52978Y-34800D01*
X53006Y-35025D02*
X52996Y-35006D01*
X52987Y-34997D01*
X52968Y-34987D01*
X52959Y-34987D01*
X52940Y-34997D01*
X52931Y-35006D01*
X52921Y-35025D01*
X52921Y-35062D01*
X52931Y-35081D01*
X52940Y-35090D01*
X52959Y-35100D01*
X52968Y-35100D01*
X52987Y-35090D01*
X52996Y-35081D01*
X53006Y-35062D01*
X53006Y-35025D01*
X53015Y-35006D01*
X53024Y-34997D01*
X53043Y-34987D01*
X53081Y-34987D01*
X53099Y-34997D01*
X53109Y-35006D01*
X53118Y-35025D01*
X53118Y-35062D01*
X53109Y-35081D01*
X53099Y-35090D01*
X53081Y-35100D01*
X53043Y-35100D01*
X53024Y-35090D01*
X53015Y-35081D01*
X53006Y-35062D01*
X52987Y-35184D02*
X53184Y-35184D01*
X52996Y-35184D02*
X52987Y-35203D01*
X52987Y-35241D01*
X52996Y-35259D01*
X53006Y-35269D01*
X53024Y-35278D01*
X53081Y-35278D01*
X53099Y-35269D01*
X53109Y-35259D01*
X53118Y-35241D01*
X53118Y-35203D01*
X53109Y-35184D01*
X56819Y-38559D02*
X56829Y-38549D01*
X56838Y-38521D01*
X56838Y-38502D01*
X56829Y-38474D01*
X56810Y-38455D01*
X56791Y-38446D01*
X56754Y-38437D01*
X56726Y-38437D01*
X56688Y-38446D01*
X56669Y-38455D01*
X56650Y-38474D01*
X56641Y-38502D01*
X56641Y-38521D01*
X56650Y-38549D01*
X56660Y-38559D01*
X56707Y-38727D02*
X56838Y-38727D01*
X56632Y-38681D02*
X56772Y-38634D01*
X56772Y-38756D01*
X56641Y-38868D02*
X56641Y-38887D01*
X56650Y-38906D01*
X56660Y-38915D01*
X56679Y-38924D01*
X56716Y-38934D01*
X56763Y-38934D01*
X56801Y-38924D01*
X56819Y-38915D01*
X56829Y-38906D01*
X56838Y-38887D01*
X56838Y-38868D01*
X56829Y-38849D01*
X56819Y-38840D01*
X56801Y-38831D01*
X56763Y-38821D01*
X56716Y-38821D01*
X56679Y-38831D01*
X56660Y-38840D01*
X56650Y-38849D01*
X56641Y-38868D01*
X56641Y-39112D02*
X56641Y-39018D01*
X56735Y-39009D01*
X56726Y-39018D01*
X56716Y-39037D01*
X56716Y-39084D01*
X56726Y-39103D01*
X56735Y-39112D01*
X56754Y-39121D01*
X56801Y-39121D01*
X56819Y-39112D01*
X56829Y-39103D01*
X56838Y-39084D01*
X56838Y-39037D01*
X56829Y-39018D01*
X56819Y-39009D01*
X56563Y-38559D02*
X56563Y-38446D01*
X56563Y-38502D02*
X56366Y-38502D01*
X56394Y-38484D01*
X56413Y-38465D01*
X56422Y-38446D01*
X56366Y-38681D02*
X56366Y-38699D01*
X56375Y-38718D01*
X56385Y-38727D01*
X56404Y-38737D01*
X56441Y-38746D01*
X56488Y-38746D01*
X56526Y-38737D01*
X56544Y-38727D01*
X56554Y-38718D01*
X56563Y-38699D01*
X56563Y-38681D01*
X56554Y-38662D01*
X56544Y-38652D01*
X56526Y-38643D01*
X56488Y-38634D01*
X56441Y-38634D01*
X56404Y-38643D01*
X56385Y-38652D01*
X56375Y-38662D01*
X56366Y-38681D01*
X56366Y-38868D02*
X56366Y-38887D01*
X56375Y-38906D01*
X56385Y-38915D01*
X56404Y-38924D01*
X56441Y-38934D01*
X56488Y-38934D01*
X56526Y-38924D01*
X56544Y-38915D01*
X56554Y-38906D01*
X56563Y-38887D01*
X56563Y-38868D01*
X56554Y-38849D01*
X56544Y-38840D01*
X56526Y-38831D01*
X56488Y-38821D01*
X56441Y-38821D01*
X56404Y-38831D01*
X56385Y-38840D01*
X56375Y-38849D01*
X56366Y-38868D01*
X56432Y-39018D02*
X56563Y-39018D01*
X56451Y-39018D02*
X56441Y-39028D01*
X56432Y-39046D01*
X56432Y-39075D01*
X56441Y-39093D01*
X56460Y-39103D01*
X56563Y-39103D01*
X52961Y-30704D02*
X52970Y-30695D01*
X52980Y-30667D01*
X52980Y-30648D01*
X52970Y-30620D01*
X52952Y-30601D01*
X52933Y-30592D01*
X52895Y-30582D01*
X52867Y-30582D01*
X52830Y-30592D01*
X52811Y-30601D01*
X52792Y-30620D01*
X52783Y-30648D01*
X52783Y-30667D01*
X52792Y-30695D01*
X52802Y-30704D01*
X52848Y-30873D02*
X52980Y-30873D01*
X52773Y-30826D02*
X52914Y-30779D01*
X52914Y-30901D01*
X52783Y-31014D02*
X52783Y-31033D01*
X52792Y-31051D01*
X52802Y-31061D01*
X52820Y-31070D01*
X52858Y-31079D01*
X52905Y-31079D01*
X52942Y-31070D01*
X52961Y-31061D01*
X52970Y-31051D01*
X52980Y-31033D01*
X52980Y-31014D01*
X52970Y-30995D01*
X52961Y-30986D01*
X52942Y-30976D01*
X52905Y-30967D01*
X52858Y-30967D01*
X52820Y-30976D01*
X52802Y-30986D01*
X52792Y-30995D01*
X52783Y-31014D01*
X52783Y-31248D02*
X52783Y-31211D01*
X52792Y-31192D01*
X52802Y-31183D01*
X52830Y-31164D01*
X52867Y-31155D01*
X52942Y-31155D01*
X52961Y-31164D01*
X52970Y-31173D01*
X52980Y-31192D01*
X52980Y-31230D01*
X52970Y-31248D01*
X52961Y-31258D01*
X52942Y-31267D01*
X52895Y-31267D01*
X52877Y-31258D01*
X52867Y-31248D01*
X52858Y-31230D01*
X52858Y-31192D01*
X52867Y-31173D01*
X52877Y-31164D01*
X52895Y-31155D01*
X52705Y-30704D02*
X52705Y-30592D01*
X52705Y-30648D02*
X52508Y-30648D01*
X52536Y-30629D01*
X52555Y-30610D01*
X52564Y-30592D01*
X52508Y-30826D02*
X52508Y-30845D01*
X52517Y-30864D01*
X52527Y-30873D01*
X52545Y-30882D01*
X52583Y-30892D01*
X52630Y-30892D01*
X52667Y-30882D01*
X52686Y-30873D01*
X52695Y-30864D01*
X52705Y-30845D01*
X52705Y-30826D01*
X52695Y-30807D01*
X52686Y-30798D01*
X52667Y-30789D01*
X52630Y-30779D01*
X52583Y-30779D01*
X52545Y-30789D01*
X52527Y-30798D01*
X52517Y-30807D01*
X52508Y-30826D01*
X52508Y-31014D02*
X52508Y-31033D01*
X52517Y-31051D01*
X52527Y-31061D01*
X52545Y-31070D01*
X52583Y-31079D01*
X52630Y-31079D01*
X52667Y-31070D01*
X52686Y-31061D01*
X52695Y-31051D01*
X52705Y-31033D01*
X52705Y-31014D01*
X52695Y-30995D01*
X52686Y-30986D01*
X52667Y-30976D01*
X52630Y-30967D01*
X52583Y-30967D01*
X52545Y-30976D01*
X52527Y-30986D01*
X52517Y-30995D01*
X52508Y-31014D01*
X52573Y-31164D02*
X52705Y-31164D01*
X52592Y-31164D02*
X52583Y-31173D01*
X52573Y-31192D01*
X52573Y-31220D01*
X52583Y-31239D01*
X52602Y-31248D01*
X52705Y-31248D01*
X50811Y-38689D02*
X50820Y-38699D01*
X50848Y-38708D01*
X50867Y-38708D01*
X50895Y-38699D01*
X50914Y-38680D01*
X50923Y-38661D01*
X50932Y-38624D01*
X50932Y-38596D01*
X50923Y-38558D01*
X50914Y-38539D01*
X50895Y-38521D01*
X50867Y-38511D01*
X50848Y-38511D01*
X50820Y-38521D01*
X50811Y-38530D01*
X50642Y-38577D02*
X50642Y-38708D01*
X50689Y-38502D02*
X50735Y-38643D01*
X50614Y-38643D01*
X50501Y-38511D02*
X50482Y-38511D01*
X50463Y-38521D01*
X50454Y-38530D01*
X50445Y-38549D01*
X50435Y-38586D01*
X50435Y-38633D01*
X50445Y-38671D01*
X50454Y-38689D01*
X50463Y-38699D01*
X50482Y-38708D01*
X50501Y-38708D01*
X50520Y-38699D01*
X50529Y-38689D01*
X50538Y-38671D01*
X50548Y-38633D01*
X50548Y-38586D01*
X50538Y-38549D01*
X50529Y-38530D01*
X50520Y-38521D01*
X50501Y-38511D01*
X50370Y-38511D02*
X50238Y-38511D01*
X50323Y-38708D01*
X50811Y-38433D02*
X50923Y-38433D01*
X50867Y-38433D02*
X50867Y-38236D01*
X50886Y-38264D01*
X50904Y-38283D01*
X50923Y-38292D01*
X50689Y-38236D02*
X50670Y-38236D01*
X50651Y-38246D01*
X50642Y-38255D01*
X50632Y-38274D01*
X50623Y-38311D01*
X50623Y-38358D01*
X50632Y-38396D01*
X50642Y-38414D01*
X50651Y-38424D01*
X50670Y-38433D01*
X50689Y-38433D01*
X50707Y-38424D01*
X50717Y-38414D01*
X50726Y-38396D01*
X50735Y-38358D01*
X50735Y-38311D01*
X50726Y-38274D01*
X50717Y-38255D01*
X50707Y-38246D01*
X50689Y-38236D01*
X50501Y-38236D02*
X50482Y-38236D01*
X50463Y-38246D01*
X50454Y-38255D01*
X50445Y-38274D01*
X50435Y-38311D01*
X50435Y-38358D01*
X50445Y-38396D01*
X50454Y-38414D01*
X50463Y-38424D01*
X50482Y-38433D01*
X50501Y-38433D01*
X50520Y-38424D01*
X50529Y-38414D01*
X50538Y-38396D01*
X50548Y-38358D01*
X50548Y-38311D01*
X50538Y-38274D01*
X50529Y-38255D01*
X50520Y-38246D01*
X50501Y-38236D01*
X50351Y-38302D02*
X50351Y-38433D01*
X50351Y-38321D02*
X50341Y-38311D01*
X50323Y-38302D01*
X50295Y-38302D01*
X50276Y-38311D01*
X50266Y-38330D01*
X50266Y-38433D01*
X58330Y-26937D02*
X58340Y-26947D01*
X58368Y-26956D01*
X58386Y-26956D01*
X58415Y-26947D01*
X58433Y-26928D01*
X58443Y-26909D01*
X58452Y-26872D01*
X58452Y-26844D01*
X58443Y-26806D01*
X58433Y-26787D01*
X58415Y-26769D01*
X58386Y-26759D01*
X58368Y-26759D01*
X58340Y-26769D01*
X58330Y-26778D01*
X58161Y-26825D02*
X58161Y-26956D01*
X58208Y-26750D02*
X58255Y-26891D01*
X58133Y-26891D01*
X58021Y-26759D02*
X58002Y-26759D01*
X57983Y-26769D01*
X57974Y-26778D01*
X57964Y-26797D01*
X57955Y-26834D01*
X57955Y-26881D01*
X57964Y-26919D01*
X57974Y-26937D01*
X57983Y-26947D01*
X58002Y-26956D01*
X58021Y-26956D01*
X58039Y-26947D01*
X58049Y-26937D01*
X58058Y-26919D01*
X58068Y-26881D01*
X58068Y-26834D01*
X58058Y-26797D01*
X58049Y-26778D01*
X58039Y-26769D01*
X58021Y-26759D01*
X57842Y-26844D02*
X57861Y-26834D01*
X57871Y-26825D01*
X57880Y-26806D01*
X57880Y-26797D01*
X57871Y-26778D01*
X57861Y-26769D01*
X57842Y-26759D01*
X57805Y-26759D01*
X57786Y-26769D01*
X57777Y-26778D01*
X57767Y-26797D01*
X57767Y-26806D01*
X57777Y-26825D01*
X57786Y-26834D01*
X57805Y-26844D01*
X57842Y-26844D01*
X57861Y-26853D01*
X57871Y-26862D01*
X57880Y-26881D01*
X57880Y-26919D01*
X57871Y-26937D01*
X57861Y-26947D01*
X57842Y-26956D01*
X57805Y-26956D01*
X57786Y-26947D01*
X57777Y-26937D01*
X57767Y-26919D01*
X57767Y-26881D01*
X57777Y-26862D01*
X57786Y-26853D01*
X57805Y-26844D01*
X58330Y-26681D02*
X58443Y-26681D01*
X58386Y-26681D02*
X58386Y-26484D01*
X58405Y-26512D01*
X58424Y-26531D01*
X58443Y-26540D01*
X58208Y-26484D02*
X58189Y-26484D01*
X58171Y-26494D01*
X58161Y-26503D01*
X58152Y-26522D01*
X58143Y-26559D01*
X58143Y-26606D01*
X58152Y-26644D01*
X58161Y-26662D01*
X58171Y-26672D01*
X58189Y-26681D01*
X58208Y-26681D01*
X58227Y-26672D01*
X58236Y-26662D01*
X58246Y-26644D01*
X58255Y-26606D01*
X58255Y-26559D01*
X58246Y-26522D01*
X58236Y-26503D01*
X58227Y-26494D01*
X58208Y-26484D01*
X58021Y-26484D02*
X58002Y-26484D01*
X57983Y-26494D01*
X57974Y-26503D01*
X57964Y-26522D01*
X57955Y-26559D01*
X57955Y-26606D01*
X57964Y-26644D01*
X57974Y-26662D01*
X57983Y-26672D01*
X58002Y-26681D01*
X58021Y-26681D01*
X58039Y-26672D01*
X58049Y-26662D01*
X58058Y-26644D01*
X58068Y-26606D01*
X58068Y-26559D01*
X58058Y-26522D01*
X58049Y-26503D01*
X58039Y-26494D01*
X58021Y-26484D01*
X57871Y-26550D02*
X57871Y-26681D01*
X57871Y-26569D02*
X57861Y-26559D01*
X57842Y-26550D01*
X57814Y-26550D01*
X57795Y-26559D01*
X57786Y-26578D01*
X57786Y-26681D01*
X59089Y-31118D02*
X59098Y-31108D01*
X59108Y-31080D01*
X59108Y-31061D01*
X59098Y-31033D01*
X59080Y-31014D01*
X59061Y-31005D01*
X59023Y-30996D01*
X58995Y-30996D01*
X58958Y-31005D01*
X58939Y-31014D01*
X58920Y-31033D01*
X58911Y-31061D01*
X58911Y-31080D01*
X58920Y-31108D01*
X58930Y-31118D01*
X58976Y-31286D02*
X59108Y-31286D01*
X58901Y-31240D02*
X59042Y-31193D01*
X59042Y-31315D01*
X58911Y-31427D02*
X58911Y-31446D01*
X58920Y-31465D01*
X58930Y-31474D01*
X58948Y-31483D01*
X58986Y-31493D01*
X59033Y-31493D01*
X59070Y-31483D01*
X59089Y-31474D01*
X59098Y-31465D01*
X59108Y-31446D01*
X59108Y-31427D01*
X59098Y-31408D01*
X59089Y-31399D01*
X59070Y-31390D01*
X59033Y-31380D01*
X58986Y-31380D01*
X58948Y-31390D01*
X58930Y-31399D01*
X58920Y-31408D01*
X58911Y-31427D01*
X59108Y-31587D02*
X59108Y-31624D01*
X59098Y-31643D01*
X59089Y-31652D01*
X59061Y-31671D01*
X59023Y-31680D01*
X58948Y-31680D01*
X58930Y-31671D01*
X58920Y-31662D01*
X58911Y-31643D01*
X58911Y-31605D01*
X58920Y-31587D01*
X58930Y-31577D01*
X58948Y-31568D01*
X58995Y-31568D01*
X59014Y-31577D01*
X59023Y-31587D01*
X59033Y-31605D01*
X59033Y-31643D01*
X59023Y-31662D01*
X59014Y-31671D01*
X58995Y-31680D01*
X59383Y-31118D02*
X59383Y-31005D01*
X59383Y-31061D02*
X59186Y-31061D01*
X59214Y-31043D01*
X59233Y-31024D01*
X59242Y-31005D01*
X59186Y-31240D02*
X59186Y-31258D01*
X59195Y-31277D01*
X59205Y-31286D01*
X59223Y-31296D01*
X59261Y-31305D01*
X59308Y-31305D01*
X59345Y-31296D01*
X59364Y-31286D01*
X59373Y-31277D01*
X59383Y-31258D01*
X59383Y-31240D01*
X59373Y-31221D01*
X59364Y-31211D01*
X59345Y-31202D01*
X59308Y-31193D01*
X59261Y-31193D01*
X59223Y-31202D01*
X59205Y-31211D01*
X59195Y-31221D01*
X59186Y-31240D01*
X59186Y-31427D02*
X59186Y-31446D01*
X59195Y-31465D01*
X59205Y-31474D01*
X59223Y-31483D01*
X59261Y-31493D01*
X59308Y-31493D01*
X59345Y-31483D01*
X59364Y-31474D01*
X59373Y-31465D01*
X59383Y-31446D01*
X59383Y-31427D01*
X59373Y-31408D01*
X59364Y-31399D01*
X59345Y-31390D01*
X59308Y-31380D01*
X59261Y-31380D01*
X59223Y-31390D01*
X59205Y-31399D01*
X59195Y-31408D01*
X59186Y-31427D01*
X59251Y-31577D02*
X59383Y-31577D01*
X59270Y-31577D02*
X59261Y-31587D01*
X59251Y-31605D01*
X59251Y-31634D01*
X59261Y-31652D01*
X59280Y-31662D01*
X59383Y-31662D01*
X51294Y-28539D02*
X51303Y-28530D01*
X51313Y-28501D01*
X51313Y-28483D01*
X51303Y-28454D01*
X51284Y-28436D01*
X51266Y-28426D01*
X51228Y-28417D01*
X51200Y-28417D01*
X51162Y-28426D01*
X51144Y-28436D01*
X51125Y-28454D01*
X51116Y-28483D01*
X51116Y-28501D01*
X51125Y-28530D01*
X51134Y-28539D01*
X51181Y-28708D02*
X51313Y-28708D01*
X51106Y-28661D02*
X51247Y-28614D01*
X51247Y-28736D01*
X51313Y-28914D02*
X51313Y-28802D01*
X51313Y-28858D02*
X51116Y-28858D01*
X51144Y-28839D01*
X51162Y-28820D01*
X51172Y-28802D01*
X51116Y-29036D02*
X51116Y-29055D01*
X51125Y-29074D01*
X51134Y-29083D01*
X51153Y-29092D01*
X51191Y-29102D01*
X51237Y-29102D01*
X51275Y-29092D01*
X51294Y-29083D01*
X51303Y-29074D01*
X51313Y-29055D01*
X51313Y-29036D01*
X51303Y-29017D01*
X51294Y-29008D01*
X51275Y-28999D01*
X51237Y-28989D01*
X51191Y-28989D01*
X51153Y-28999D01*
X51134Y-29008D01*
X51125Y-29017D01*
X51116Y-29036D01*
X51588Y-28539D02*
X51588Y-28426D01*
X51588Y-28483D02*
X51391Y-28483D01*
X51419Y-28464D01*
X51437Y-28445D01*
X51447Y-28426D01*
X51391Y-28661D02*
X51391Y-28680D01*
X51400Y-28698D01*
X51409Y-28708D01*
X51428Y-28717D01*
X51466Y-28727D01*
X51512Y-28727D01*
X51550Y-28717D01*
X51569Y-28708D01*
X51578Y-28698D01*
X51588Y-28680D01*
X51588Y-28661D01*
X51578Y-28642D01*
X51569Y-28633D01*
X51550Y-28623D01*
X51512Y-28614D01*
X51466Y-28614D01*
X51428Y-28623D01*
X51409Y-28633D01*
X51400Y-28642D01*
X51391Y-28661D01*
X51391Y-28848D02*
X51391Y-28867D01*
X51400Y-28886D01*
X51409Y-28895D01*
X51428Y-28905D01*
X51466Y-28914D01*
X51512Y-28914D01*
X51550Y-28905D01*
X51569Y-28895D01*
X51578Y-28886D01*
X51588Y-28867D01*
X51588Y-28848D01*
X51578Y-28830D01*
X51569Y-28820D01*
X51550Y-28811D01*
X51512Y-28802D01*
X51466Y-28802D01*
X51428Y-28811D01*
X51409Y-28820D01*
X51400Y-28830D01*
X51391Y-28848D01*
X51456Y-28999D02*
X51588Y-28999D01*
X51475Y-28999D02*
X51466Y-29008D01*
X51456Y-29027D01*
X51456Y-29055D01*
X51466Y-29074D01*
X51484Y-29083D01*
X51588Y-29083D01*
X48389Y-38715D02*
X48399Y-38724D01*
X48427Y-38734D01*
X48446Y-38734D01*
X48474Y-38724D01*
X48492Y-38706D01*
X48502Y-38687D01*
X48511Y-38649D01*
X48511Y-38621D01*
X48502Y-38584D01*
X48492Y-38565D01*
X48474Y-38546D01*
X48446Y-38537D01*
X48427Y-38537D01*
X48399Y-38546D01*
X48389Y-38556D01*
X48324Y-38537D02*
X48202Y-38537D01*
X48267Y-38612D01*
X48239Y-38612D01*
X48220Y-38621D01*
X48211Y-38631D01*
X48202Y-38649D01*
X48202Y-38696D01*
X48211Y-38715D01*
X48220Y-38724D01*
X48239Y-38734D01*
X48295Y-38734D01*
X48314Y-38724D01*
X48324Y-38715D01*
X48080Y-38537D02*
X48061Y-38537D01*
X48042Y-38546D01*
X48033Y-38556D01*
X48023Y-38574D01*
X48014Y-38612D01*
X48014Y-38659D01*
X48023Y-38696D01*
X48033Y-38715D01*
X48042Y-38724D01*
X48061Y-38734D01*
X48080Y-38734D01*
X48098Y-38724D01*
X48108Y-38715D01*
X48117Y-38696D01*
X48127Y-38659D01*
X48127Y-38612D01*
X48117Y-38574D01*
X48108Y-38556D01*
X48098Y-38546D01*
X48080Y-38537D01*
X47901Y-38621D02*
X47920Y-38612D01*
X47930Y-38602D01*
X47939Y-38584D01*
X47939Y-38574D01*
X47930Y-38556D01*
X47920Y-38546D01*
X47901Y-38537D01*
X47864Y-38537D01*
X47845Y-38546D01*
X47836Y-38556D01*
X47826Y-38574D01*
X47826Y-38584D01*
X47836Y-38602D01*
X47845Y-38612D01*
X47864Y-38621D01*
X47901Y-38621D01*
X47920Y-38631D01*
X47930Y-38640D01*
X47939Y-38659D01*
X47939Y-38696D01*
X47930Y-38715D01*
X47920Y-38724D01*
X47901Y-38734D01*
X47864Y-38734D01*
X47845Y-38724D01*
X47836Y-38715D01*
X47826Y-38696D01*
X47826Y-38659D01*
X47836Y-38640D01*
X47845Y-38631D01*
X47864Y-38621D01*
X48577Y-39009D02*
X48689Y-39009D01*
X48633Y-39009D02*
X48633Y-38812D01*
X48652Y-38840D01*
X48671Y-38859D01*
X48689Y-38868D01*
X48408Y-38877D02*
X48408Y-39009D01*
X48492Y-38877D02*
X48492Y-38981D01*
X48483Y-38999D01*
X48464Y-39009D01*
X48436Y-39009D01*
X48417Y-38999D01*
X48408Y-38990D01*
X48173Y-38802D02*
X48342Y-39056D01*
X48117Y-38831D02*
X48108Y-38821D01*
X48089Y-38812D01*
X48042Y-38812D01*
X48023Y-38821D01*
X48014Y-38831D01*
X48005Y-38849D01*
X48005Y-38868D01*
X48014Y-38896D01*
X48127Y-39009D01*
X48005Y-39009D01*
X47826Y-38812D02*
X47920Y-38812D01*
X47930Y-38906D01*
X47920Y-38896D01*
X47901Y-38887D01*
X47855Y-38887D01*
X47836Y-38896D01*
X47826Y-38906D01*
X47817Y-38924D01*
X47817Y-38971D01*
X47826Y-38990D01*
X47836Y-38999D01*
X47855Y-39009D01*
X47901Y-39009D01*
X47920Y-38999D01*
X47930Y-38990D01*
X47761Y-38812D02*
X47695Y-39009D01*
X47629Y-38812D01*
X48389Y-30447D02*
X48399Y-30457D01*
X48427Y-30466D01*
X48446Y-30466D01*
X48474Y-30457D01*
X48492Y-30438D01*
X48502Y-30419D01*
X48511Y-30382D01*
X48511Y-30353D01*
X48502Y-30316D01*
X48492Y-30297D01*
X48474Y-30278D01*
X48446Y-30269D01*
X48427Y-30269D01*
X48399Y-30278D01*
X48389Y-30288D01*
X48324Y-30269D02*
X48202Y-30269D01*
X48267Y-30344D01*
X48239Y-30344D01*
X48220Y-30353D01*
X48211Y-30363D01*
X48202Y-30382D01*
X48202Y-30429D01*
X48211Y-30447D01*
X48220Y-30457D01*
X48239Y-30466D01*
X48295Y-30466D01*
X48314Y-30457D01*
X48324Y-30447D01*
X48080Y-30269D02*
X48061Y-30269D01*
X48042Y-30278D01*
X48033Y-30288D01*
X48023Y-30307D01*
X48014Y-30344D01*
X48014Y-30391D01*
X48023Y-30429D01*
X48033Y-30447D01*
X48042Y-30457D01*
X48061Y-30466D01*
X48080Y-30466D01*
X48098Y-30457D01*
X48108Y-30447D01*
X48117Y-30429D01*
X48127Y-30391D01*
X48127Y-30344D01*
X48117Y-30307D01*
X48108Y-30288D01*
X48098Y-30278D01*
X48080Y-30269D01*
X47920Y-30466D02*
X47883Y-30466D01*
X47864Y-30457D01*
X47855Y-30447D01*
X47836Y-30419D01*
X47826Y-30382D01*
X47826Y-30307D01*
X47836Y-30288D01*
X47845Y-30278D01*
X47864Y-30269D01*
X47901Y-30269D01*
X47920Y-30278D01*
X47930Y-30288D01*
X47939Y-30307D01*
X47939Y-30353D01*
X47930Y-30372D01*
X47920Y-30382D01*
X47901Y-30391D01*
X47864Y-30391D01*
X47845Y-30382D01*
X47836Y-30372D01*
X47826Y-30353D01*
X48577Y-30741D02*
X48689Y-30741D01*
X48633Y-30741D02*
X48633Y-30544D01*
X48652Y-30572D01*
X48671Y-30591D01*
X48689Y-30600D01*
X48408Y-30610D02*
X48408Y-30741D01*
X48492Y-30610D02*
X48492Y-30713D01*
X48483Y-30732D01*
X48464Y-30741D01*
X48436Y-30741D01*
X48417Y-30732D01*
X48408Y-30722D01*
X48173Y-30535D02*
X48342Y-30788D01*
X48117Y-30563D02*
X48108Y-30553D01*
X48089Y-30544D01*
X48042Y-30544D01*
X48023Y-30553D01*
X48014Y-30563D01*
X48005Y-30582D01*
X48005Y-30600D01*
X48014Y-30628D01*
X48127Y-30741D01*
X48005Y-30741D01*
X47826Y-30544D02*
X47920Y-30544D01*
X47930Y-30638D01*
X47920Y-30628D01*
X47901Y-30619D01*
X47855Y-30619D01*
X47836Y-30628D01*
X47826Y-30638D01*
X47817Y-30657D01*
X47817Y-30704D01*
X47826Y-30722D01*
X47836Y-30732D01*
X47855Y-30741D01*
X47901Y-30741D01*
X47920Y-30732D01*
X47930Y-30722D01*
X47761Y-30544D02*
X47695Y-30741D01*
X47629Y-30544D01*
X48389Y-31235D02*
X48399Y-31244D01*
X48427Y-31253D01*
X48446Y-31253D01*
X48474Y-31244D01*
X48492Y-31225D01*
X48502Y-31207D01*
X48511Y-31169D01*
X48511Y-31141D01*
X48502Y-31103D01*
X48492Y-31085D01*
X48474Y-31066D01*
X48446Y-31056D01*
X48427Y-31056D01*
X48399Y-31066D01*
X48389Y-31075D01*
X48324Y-31056D02*
X48202Y-31056D01*
X48267Y-31131D01*
X48239Y-31131D01*
X48220Y-31141D01*
X48211Y-31150D01*
X48202Y-31169D01*
X48202Y-31216D01*
X48211Y-31235D01*
X48220Y-31244D01*
X48239Y-31253D01*
X48295Y-31253D01*
X48314Y-31244D01*
X48324Y-31235D01*
X48014Y-31253D02*
X48127Y-31253D01*
X48070Y-31253D02*
X48070Y-31056D01*
X48089Y-31085D01*
X48108Y-31103D01*
X48127Y-31113D01*
X47892Y-31056D02*
X47873Y-31056D01*
X47855Y-31066D01*
X47845Y-31075D01*
X47836Y-31094D01*
X47826Y-31131D01*
X47826Y-31178D01*
X47836Y-31216D01*
X47845Y-31235D01*
X47855Y-31244D01*
X47873Y-31253D01*
X47892Y-31253D01*
X47911Y-31244D01*
X47920Y-31235D01*
X47930Y-31216D01*
X47939Y-31178D01*
X47939Y-31131D01*
X47930Y-31094D01*
X47920Y-31075D01*
X47911Y-31066D01*
X47892Y-31056D01*
X48577Y-31528D02*
X48689Y-31528D01*
X48633Y-31528D02*
X48633Y-31331D01*
X48652Y-31360D01*
X48671Y-31378D01*
X48689Y-31388D01*
X48408Y-31397D02*
X48408Y-31528D01*
X48492Y-31397D02*
X48492Y-31500D01*
X48483Y-31519D01*
X48464Y-31528D01*
X48436Y-31528D01*
X48417Y-31519D01*
X48408Y-31510D01*
X48173Y-31322D02*
X48342Y-31575D01*
X48117Y-31350D02*
X48108Y-31341D01*
X48089Y-31331D01*
X48042Y-31331D01*
X48023Y-31341D01*
X48014Y-31350D01*
X48005Y-31369D01*
X48005Y-31388D01*
X48014Y-31416D01*
X48127Y-31528D01*
X48005Y-31528D01*
X47826Y-31331D02*
X47920Y-31331D01*
X47930Y-31425D01*
X47920Y-31416D01*
X47901Y-31406D01*
X47855Y-31406D01*
X47836Y-31416D01*
X47826Y-31425D01*
X47817Y-31444D01*
X47817Y-31491D01*
X47826Y-31510D01*
X47836Y-31519D01*
X47855Y-31528D01*
X47901Y-31528D01*
X47920Y-31519D01*
X47930Y-31510D01*
X47761Y-31331D02*
X47695Y-31528D01*
X47629Y-31331D01*
X48389Y-35762D02*
X48399Y-35772D01*
X48427Y-35781D01*
X48446Y-35781D01*
X48474Y-35772D01*
X48492Y-35753D01*
X48502Y-35734D01*
X48511Y-35697D01*
X48511Y-35668D01*
X48502Y-35631D01*
X48492Y-35612D01*
X48474Y-35593D01*
X48446Y-35584D01*
X48427Y-35584D01*
X48399Y-35593D01*
X48389Y-35603D01*
X48324Y-35584D02*
X48202Y-35584D01*
X48267Y-35659D01*
X48239Y-35659D01*
X48220Y-35668D01*
X48211Y-35678D01*
X48202Y-35697D01*
X48202Y-35743D01*
X48211Y-35762D01*
X48220Y-35772D01*
X48239Y-35781D01*
X48295Y-35781D01*
X48314Y-35772D01*
X48324Y-35762D01*
X48080Y-35584D02*
X48061Y-35584D01*
X48042Y-35593D01*
X48033Y-35603D01*
X48023Y-35622D01*
X48014Y-35659D01*
X48014Y-35706D01*
X48023Y-35743D01*
X48033Y-35762D01*
X48042Y-35772D01*
X48061Y-35781D01*
X48080Y-35781D01*
X48098Y-35772D01*
X48108Y-35762D01*
X48117Y-35743D01*
X48127Y-35706D01*
X48127Y-35659D01*
X48117Y-35622D01*
X48108Y-35603D01*
X48098Y-35593D01*
X48080Y-35584D01*
X47948Y-35584D02*
X47817Y-35584D01*
X47901Y-35781D01*
X48577Y-36056D02*
X48689Y-36056D01*
X48633Y-36056D02*
X48633Y-35859D01*
X48652Y-35887D01*
X48671Y-35906D01*
X48689Y-35915D01*
X48408Y-35925D02*
X48408Y-36056D01*
X48492Y-35925D02*
X48492Y-36028D01*
X48483Y-36047D01*
X48464Y-36056D01*
X48436Y-36056D01*
X48417Y-36047D01*
X48408Y-36037D01*
X48173Y-35850D02*
X48342Y-36103D01*
X48117Y-35878D02*
X48108Y-35868D01*
X48089Y-35859D01*
X48042Y-35859D01*
X48023Y-35868D01*
X48014Y-35878D01*
X48005Y-35897D01*
X48005Y-35915D01*
X48014Y-35943D01*
X48127Y-36056D01*
X48005Y-36056D01*
X47826Y-35859D02*
X47920Y-35859D01*
X47930Y-35953D01*
X47920Y-35943D01*
X47901Y-35934D01*
X47855Y-35934D01*
X47836Y-35943D01*
X47826Y-35953D01*
X47817Y-35972D01*
X47817Y-36018D01*
X47826Y-36037D01*
X47836Y-36047D01*
X47855Y-36056D01*
X47901Y-36056D01*
X47920Y-36047D01*
X47930Y-36037D01*
X47761Y-35859D02*
X47695Y-36056D01*
X47629Y-35859D01*
X48389Y-32809D02*
X48399Y-32819D01*
X48427Y-32828D01*
X48446Y-32828D01*
X48474Y-32819D01*
X48492Y-32800D01*
X48502Y-32781D01*
X48511Y-32744D01*
X48511Y-32716D01*
X48502Y-32678D01*
X48492Y-32659D01*
X48474Y-32641D01*
X48446Y-32631D01*
X48427Y-32631D01*
X48399Y-32641D01*
X48389Y-32650D01*
X48324Y-32631D02*
X48202Y-32631D01*
X48267Y-32706D01*
X48239Y-32706D01*
X48220Y-32716D01*
X48211Y-32725D01*
X48202Y-32744D01*
X48202Y-32791D01*
X48211Y-32809D01*
X48220Y-32819D01*
X48239Y-32828D01*
X48295Y-32828D01*
X48314Y-32819D01*
X48324Y-32809D01*
X48080Y-32631D02*
X48061Y-32631D01*
X48042Y-32641D01*
X48033Y-32650D01*
X48023Y-32669D01*
X48014Y-32706D01*
X48014Y-32753D01*
X48023Y-32791D01*
X48033Y-32809D01*
X48042Y-32819D01*
X48061Y-32828D01*
X48080Y-32828D01*
X48098Y-32819D01*
X48108Y-32809D01*
X48117Y-32791D01*
X48127Y-32753D01*
X48127Y-32706D01*
X48117Y-32669D01*
X48108Y-32650D01*
X48098Y-32641D01*
X48080Y-32631D01*
X47845Y-32631D02*
X47883Y-32631D01*
X47901Y-32641D01*
X47911Y-32650D01*
X47930Y-32678D01*
X47939Y-32716D01*
X47939Y-32791D01*
X47930Y-32809D01*
X47920Y-32819D01*
X47901Y-32828D01*
X47864Y-32828D01*
X47845Y-32819D01*
X47836Y-32809D01*
X47826Y-32791D01*
X47826Y-32744D01*
X47836Y-32725D01*
X47845Y-32716D01*
X47864Y-32706D01*
X47901Y-32706D01*
X47920Y-32716D01*
X47930Y-32725D01*
X47939Y-32744D01*
X48577Y-33103D02*
X48689Y-33103D01*
X48633Y-33103D02*
X48633Y-32906D01*
X48652Y-32934D01*
X48671Y-32953D01*
X48689Y-32963D01*
X48408Y-32972D02*
X48408Y-33103D01*
X48492Y-32972D02*
X48492Y-33075D01*
X48483Y-33094D01*
X48464Y-33103D01*
X48436Y-33103D01*
X48417Y-33094D01*
X48408Y-33084D01*
X48173Y-32897D02*
X48342Y-33150D01*
X48117Y-32925D02*
X48108Y-32916D01*
X48089Y-32906D01*
X48042Y-32906D01*
X48023Y-32916D01*
X48014Y-32925D01*
X48005Y-32944D01*
X48005Y-32963D01*
X48014Y-32991D01*
X48127Y-33103D01*
X48005Y-33103D01*
X47826Y-32906D02*
X47920Y-32906D01*
X47930Y-33000D01*
X47920Y-32991D01*
X47901Y-32981D01*
X47855Y-32981D01*
X47836Y-32991D01*
X47826Y-33000D01*
X47817Y-33019D01*
X47817Y-33066D01*
X47826Y-33084D01*
X47836Y-33094D01*
X47855Y-33103D01*
X47901Y-33103D01*
X47920Y-33094D01*
X47930Y-33084D01*
X47761Y-32906D02*
X47695Y-33103D01*
X47629Y-32906D01*
X48389Y-32022D02*
X48399Y-32031D01*
X48427Y-32041D01*
X48446Y-32041D01*
X48474Y-32031D01*
X48492Y-32013D01*
X48502Y-31994D01*
X48511Y-31956D01*
X48511Y-31928D01*
X48502Y-31891D01*
X48492Y-31872D01*
X48474Y-31853D01*
X48446Y-31844D01*
X48427Y-31844D01*
X48399Y-31853D01*
X48389Y-31863D01*
X48324Y-31844D02*
X48202Y-31844D01*
X48267Y-31919D01*
X48239Y-31919D01*
X48220Y-31928D01*
X48211Y-31938D01*
X48202Y-31956D01*
X48202Y-32003D01*
X48211Y-32022D01*
X48220Y-32031D01*
X48239Y-32041D01*
X48295Y-32041D01*
X48314Y-32031D01*
X48324Y-32022D01*
X48080Y-31844D02*
X48061Y-31844D01*
X48042Y-31853D01*
X48033Y-31863D01*
X48023Y-31881D01*
X48014Y-31919D01*
X48014Y-31966D01*
X48023Y-32003D01*
X48033Y-32022D01*
X48042Y-32031D01*
X48061Y-32041D01*
X48080Y-32041D01*
X48098Y-32031D01*
X48108Y-32022D01*
X48117Y-32003D01*
X48127Y-31966D01*
X48127Y-31919D01*
X48117Y-31881D01*
X48108Y-31863D01*
X48098Y-31853D01*
X48080Y-31844D01*
X47836Y-31844D02*
X47930Y-31844D01*
X47939Y-31938D01*
X47930Y-31928D01*
X47911Y-31919D01*
X47864Y-31919D01*
X47845Y-31928D01*
X47836Y-31938D01*
X47826Y-31956D01*
X47826Y-32003D01*
X47836Y-32022D01*
X47845Y-32031D01*
X47864Y-32041D01*
X47911Y-32041D01*
X47930Y-32031D01*
X47939Y-32022D01*
X48577Y-32316D02*
X48689Y-32316D01*
X48633Y-32316D02*
X48633Y-32119D01*
X48652Y-32147D01*
X48671Y-32166D01*
X48689Y-32175D01*
X48408Y-32185D02*
X48408Y-32316D01*
X48492Y-32185D02*
X48492Y-32288D01*
X48483Y-32306D01*
X48464Y-32316D01*
X48436Y-32316D01*
X48417Y-32306D01*
X48408Y-32297D01*
X48173Y-32109D02*
X48342Y-32363D01*
X48117Y-32138D02*
X48108Y-32128D01*
X48089Y-32119D01*
X48042Y-32119D01*
X48023Y-32128D01*
X48014Y-32138D01*
X48005Y-32156D01*
X48005Y-32175D01*
X48014Y-32203D01*
X48127Y-32316D01*
X48005Y-32316D01*
X47826Y-32119D02*
X47920Y-32119D01*
X47930Y-32213D01*
X47920Y-32203D01*
X47901Y-32194D01*
X47855Y-32194D01*
X47836Y-32203D01*
X47826Y-32213D01*
X47817Y-32231D01*
X47817Y-32278D01*
X47826Y-32297D01*
X47836Y-32306D01*
X47855Y-32316D01*
X47901Y-32316D01*
X47920Y-32306D01*
X47930Y-32297D01*
X47761Y-32119D02*
X47695Y-32316D01*
X47629Y-32119D01*
G54D19*
X69411Y-29129D02*
X69316Y-29069D01*
X69411Y-29026D02*
X69211Y-29026D01*
X69211Y-29094D01*
X69221Y-29112D01*
X69230Y-29120D01*
X69249Y-29129D01*
X69278Y-29129D01*
X69297Y-29120D01*
X69306Y-29112D01*
X69316Y-29094D01*
X69316Y-29026D01*
X69230Y-29197D02*
X69221Y-29206D01*
X69211Y-29223D01*
X69211Y-29266D01*
X69221Y-29283D01*
X69230Y-29292D01*
X69249Y-29300D01*
X69268Y-29300D01*
X69297Y-29292D01*
X69411Y-29189D01*
X69411Y-29300D01*
X69211Y-29412D02*
X69211Y-29429D01*
X69221Y-29446D01*
X69230Y-29454D01*
X69249Y-29463D01*
X69287Y-29472D01*
X69335Y-29472D01*
X69373Y-29463D01*
X69392Y-29454D01*
X69402Y-29446D01*
X69411Y-29429D01*
X69411Y-29412D01*
X69402Y-29394D01*
X69392Y-29386D01*
X69373Y-29377D01*
X69335Y-29369D01*
X69287Y-29369D01*
X69249Y-29377D01*
X69230Y-29386D01*
X69221Y-29394D01*
X69211Y-29412D01*
X69211Y-29634D02*
X69211Y-29549D01*
X69306Y-29540D01*
X69297Y-29549D01*
X69287Y-29566D01*
X69287Y-29609D01*
X69297Y-29626D01*
X69306Y-29634D01*
X69325Y-29643D01*
X69373Y-29643D01*
X69392Y-29634D01*
X69402Y-29626D01*
X69411Y-29609D01*
X69411Y-29566D01*
X69402Y-29549D01*
X69392Y-29540D01*
X69925Y-28624D02*
X69985Y-28529D01*
X70028Y-28624D02*
X70028Y-28424D01*
X69960Y-28424D01*
X69942Y-28433D01*
X69934Y-28443D01*
X69925Y-28462D01*
X69925Y-28490D01*
X69934Y-28509D01*
X69942Y-28519D01*
X69960Y-28529D01*
X70028Y-28529D01*
X69857Y-28443D02*
X69848Y-28433D01*
X69831Y-28424D01*
X69788Y-28424D01*
X69771Y-28433D01*
X69762Y-28443D01*
X69754Y-28462D01*
X69754Y-28481D01*
X69762Y-28509D01*
X69865Y-28624D01*
X69754Y-28624D01*
X69642Y-28424D02*
X69625Y-28424D01*
X69608Y-28433D01*
X69600Y-28443D01*
X69591Y-28462D01*
X69582Y-28500D01*
X69582Y-28548D01*
X69591Y-28586D01*
X69600Y-28605D01*
X69608Y-28614D01*
X69625Y-28624D01*
X69642Y-28624D01*
X69660Y-28614D01*
X69668Y-28605D01*
X69677Y-28586D01*
X69685Y-28548D01*
X69685Y-28500D01*
X69677Y-28462D01*
X69668Y-28443D01*
X69660Y-28433D01*
X69642Y-28424D01*
X69428Y-28424D02*
X69462Y-28424D01*
X69480Y-28433D01*
X69488Y-28443D01*
X69505Y-28471D01*
X69514Y-28509D01*
X69514Y-28586D01*
X69505Y-28605D01*
X69497Y-28614D01*
X69480Y-28624D01*
X69445Y-28624D01*
X69428Y-28614D01*
X69420Y-28605D01*
X69411Y-28586D01*
X69411Y-28538D01*
X69420Y-28519D01*
X69428Y-28509D01*
X69445Y-28500D01*
X69480Y-28500D01*
X69497Y-28509D01*
X69505Y-28519D01*
X69514Y-28538D01*
X68410Y-39136D02*
X68470Y-39040D01*
X68512Y-39136D02*
X68512Y-38936D01*
X68444Y-38936D01*
X68427Y-38945D01*
X68418Y-38955D01*
X68410Y-38974D01*
X68410Y-39002D01*
X68418Y-39021D01*
X68427Y-39031D01*
X68444Y-39040D01*
X68512Y-39040D01*
X68255Y-39002D02*
X68255Y-39136D01*
X68298Y-38926D02*
X68341Y-39069D01*
X68230Y-39069D01*
X68127Y-38936D02*
X68110Y-38936D01*
X68092Y-38945D01*
X68084Y-38955D01*
X68075Y-38974D01*
X68067Y-39012D01*
X68067Y-39059D01*
X68075Y-39097D01*
X68084Y-39117D01*
X68092Y-39126D01*
X68110Y-39136D01*
X68127Y-39136D01*
X68144Y-39126D01*
X68152Y-39117D01*
X68161Y-39097D01*
X68170Y-39059D01*
X68170Y-39012D01*
X68161Y-38974D01*
X68152Y-38955D01*
X68144Y-38945D01*
X68127Y-38936D01*
X67998Y-38955D02*
X67990Y-38945D01*
X67972Y-38936D01*
X67930Y-38936D01*
X67912Y-38945D01*
X67904Y-38955D01*
X67895Y-38974D01*
X67895Y-38993D01*
X67904Y-39021D01*
X68007Y-39136D01*
X67895Y-39136D01*
X60021Y-31708D02*
X59926Y-31648D01*
X60021Y-31605D02*
X59821Y-31605D01*
X59821Y-31673D01*
X59831Y-31690D01*
X59840Y-31699D01*
X59859Y-31708D01*
X59888Y-31708D01*
X59907Y-31699D01*
X59917Y-31690D01*
X59926Y-31673D01*
X59926Y-31605D01*
X59888Y-31862D02*
X60021Y-31862D01*
X59812Y-31819D02*
X59955Y-31776D01*
X59955Y-31888D01*
X59821Y-31990D02*
X59821Y-32008D01*
X59831Y-32025D01*
X59840Y-32033D01*
X59859Y-32042D01*
X59898Y-32050D01*
X59945Y-32050D01*
X59983Y-32042D01*
X60002Y-32033D01*
X60012Y-32025D01*
X60021Y-32008D01*
X60021Y-31990D01*
X60012Y-31973D01*
X60002Y-31965D01*
X59983Y-31956D01*
X59945Y-31948D01*
X59898Y-31948D01*
X59859Y-31956D01*
X59840Y-31965D01*
X59831Y-31973D01*
X59821Y-31990D01*
X60021Y-32222D02*
X60021Y-32119D01*
X60021Y-32170D02*
X59821Y-32170D01*
X59850Y-32153D01*
X59869Y-32136D01*
X59879Y-32119D01*
X50612Y-31786D02*
X50517Y-31726D01*
X50612Y-31683D02*
X50412Y-31683D01*
X50412Y-31752D01*
X50421Y-31769D01*
X50431Y-31778D01*
X50450Y-31786D01*
X50479Y-31786D01*
X50498Y-31778D01*
X50507Y-31769D01*
X50517Y-31752D01*
X50517Y-31683D01*
X50412Y-31846D02*
X50412Y-31958D01*
X50488Y-31898D01*
X50488Y-31923D01*
X50498Y-31941D01*
X50507Y-31949D01*
X50526Y-31958D01*
X50574Y-31958D01*
X50593Y-31949D01*
X50602Y-31941D01*
X50612Y-31923D01*
X50612Y-31872D01*
X50602Y-31855D01*
X50593Y-31846D01*
X50412Y-32069D02*
X50412Y-32086D01*
X50421Y-32103D01*
X50431Y-32112D01*
X50450Y-32121D01*
X50488Y-32129D01*
X50536Y-32129D01*
X50574Y-32121D01*
X50593Y-32112D01*
X50602Y-32103D01*
X50612Y-32086D01*
X50612Y-32069D01*
X50602Y-32052D01*
X50593Y-32043D01*
X50574Y-32035D01*
X50536Y-32026D01*
X50488Y-32026D01*
X50450Y-32035D01*
X50431Y-32043D01*
X50421Y-32052D01*
X50412Y-32069D01*
X50612Y-32301D02*
X50612Y-32198D01*
X50612Y-32249D02*
X50412Y-32249D01*
X50441Y-32232D01*
X50460Y-32215D01*
X50469Y-32198D01*
X73939Y-35625D02*
X73843Y-35565D01*
X73939Y-35522D02*
X73739Y-35522D01*
X73739Y-35591D01*
X73748Y-35608D01*
X73758Y-35616D01*
X73777Y-35625D01*
X73805Y-35625D01*
X73824Y-35616D01*
X73834Y-35608D01*
X73843Y-35591D01*
X73843Y-35522D01*
X73758Y-35693D02*
X73748Y-35702D01*
X73739Y-35719D01*
X73739Y-35762D01*
X73748Y-35779D01*
X73758Y-35788D01*
X73777Y-35796D01*
X73796Y-35796D01*
X73824Y-35788D01*
X73939Y-35685D01*
X73939Y-35796D01*
X73739Y-35908D02*
X73739Y-35925D01*
X73748Y-35942D01*
X73758Y-35951D01*
X73777Y-35959D01*
X73815Y-35968D01*
X73863Y-35968D01*
X73901Y-35959D01*
X73920Y-35951D01*
X73929Y-35942D01*
X73939Y-35925D01*
X73939Y-35908D01*
X73929Y-35891D01*
X73920Y-35882D01*
X73901Y-35873D01*
X73863Y-35865D01*
X73815Y-35865D01*
X73777Y-35873D01*
X73758Y-35882D01*
X73748Y-35891D01*
X73739Y-35908D01*
X73805Y-36122D02*
X73939Y-36122D01*
X73729Y-36079D02*
X73872Y-36036D01*
X73872Y-36148D01*
G54D14*
X49670Y-32866D02*
X49682Y-32860D01*
X49693Y-32849D01*
X49710Y-32832D01*
X49721Y-32826D01*
X49732Y-32826D01*
X49727Y-32854D02*
X49738Y-32849D01*
X49749Y-32838D01*
X49755Y-32815D01*
X49755Y-32776D01*
X49749Y-32753D01*
X49738Y-32742D01*
X49727Y-32736D01*
X49704Y-32736D01*
X49693Y-32742D01*
X49682Y-32753D01*
X49676Y-32776D01*
X49676Y-32815D01*
X49682Y-32838D01*
X49693Y-32849D01*
X49704Y-32854D01*
X49727Y-32854D01*
X49637Y-32736D02*
X49564Y-32736D01*
X49603Y-32781D01*
X49586Y-32781D01*
X49575Y-32787D01*
X49569Y-32793D01*
X49564Y-32804D01*
X49564Y-32832D01*
X49569Y-32843D01*
X49575Y-32849D01*
X49586Y-32854D01*
X49620Y-32854D01*
X49631Y-32849D01*
X49637Y-32843D01*
X49491Y-32736D02*
X49479Y-32736D01*
X49468Y-32742D01*
X49462Y-32748D01*
X49457Y-32759D01*
X49451Y-32781D01*
X49451Y-32809D01*
X49457Y-32832D01*
X49462Y-32843D01*
X49468Y-32849D01*
X49479Y-32854D01*
X49491Y-32854D01*
X49502Y-32849D01*
X49507Y-32843D01*
X49513Y-32832D01*
X49519Y-32809D01*
X49519Y-32781D01*
X49513Y-32759D01*
X49507Y-32748D01*
X49502Y-32742D01*
X49491Y-32736D01*
X49339Y-32854D02*
X49406Y-32854D01*
X49373Y-32854D02*
X49373Y-32736D01*
X49384Y-32753D01*
X49395Y-32765D01*
X49406Y-32770D01*
G54D10*
X55368Y-38920D02*
X55312Y-38938D01*
X55218Y-38938D01*
X55180Y-38920D01*
X55162Y-38901D01*
X55143Y-38863D01*
X55143Y-38826D01*
X55162Y-38788D01*
X55180Y-38770D01*
X55218Y-38751D01*
X55293Y-38732D01*
X55330Y-38713D01*
X55349Y-38695D01*
X55368Y-38657D01*
X55368Y-38620D01*
X55349Y-38582D01*
X55330Y-38563D01*
X55293Y-38545D01*
X55199Y-38545D01*
X55143Y-38563D01*
X55012Y-38545D02*
X54918Y-38938D01*
X54843Y-38657D01*
X54768Y-38938D01*
X54674Y-38545D01*
X54356Y-38676D02*
X54356Y-38938D01*
X54449Y-38526D02*
X54543Y-38807D01*
X54299Y-38807D01*
X54074Y-38545D02*
X54037Y-38545D01*
X53999Y-38563D01*
X53981Y-38582D01*
X53962Y-38620D01*
X53943Y-38695D01*
X53943Y-38788D01*
X53962Y-38863D01*
X53981Y-38901D01*
X53999Y-38920D01*
X54037Y-38938D01*
X54074Y-38938D01*
X54112Y-38920D01*
X54131Y-38901D01*
X54149Y-38863D01*
X54168Y-38788D01*
X54168Y-38695D01*
X54149Y-38620D01*
X54131Y-38582D01*
X54112Y-38563D01*
X54074Y-38545D01*
X53568Y-38938D02*
X53793Y-38938D01*
X53681Y-38938D02*
X53681Y-38545D01*
X53718Y-38601D01*
X53756Y-38638D01*
X53793Y-38657D01*
G54D20*
X44447Y-32739D02*
X44747Y-32939D01*
X44447Y-32939D02*
X44747Y-32739D01*
X44447Y-33024D02*
X44447Y-33210D01*
X44561Y-33110D01*
X44561Y-33153D01*
X44575Y-33182D01*
X44590Y-33196D01*
X44618Y-33210D01*
X44690Y-33210D01*
X44718Y-33196D01*
X44733Y-33182D01*
X44747Y-33153D01*
X44747Y-33067D01*
X44733Y-33039D01*
X44718Y-33024D01*
X44447Y-33396D02*
X44447Y-33424D01*
X44461Y-33453D01*
X44475Y-33467D01*
X44504Y-33482D01*
X44561Y-33496D01*
X44633Y-33496D01*
X44690Y-33482D01*
X44718Y-33467D01*
X44733Y-33453D01*
X44747Y-33424D01*
X44747Y-33396D01*
X44733Y-33367D01*
X44718Y-33353D01*
X44690Y-33339D01*
X44633Y-33324D01*
X44561Y-33324D01*
X44504Y-33339D01*
X44475Y-33353D01*
X44461Y-33367D01*
X44447Y-33396D01*
X44747Y-33782D02*
X44747Y-33610D01*
X44747Y-33696D02*
X44447Y-33696D01*
X44490Y-33667D01*
X44518Y-33639D01*
X44533Y-33610D01*
G54D15*
X74274Y-28696D02*
X74274Y-28939D01*
X74259Y-28967D01*
X74245Y-28981D01*
X74216Y-28996D01*
X74159Y-28996D01*
X74131Y-28981D01*
X74116Y-28967D01*
X74102Y-28939D01*
X74102Y-28696D01*
X73974Y-28724D02*
X73959Y-28710D01*
X73931Y-28696D01*
X73859Y-28696D01*
X73831Y-28710D01*
X73816Y-28724D01*
X73802Y-28753D01*
X73802Y-28781D01*
X73816Y-28824D01*
X73988Y-28996D01*
X73802Y-28996D01*
X73616Y-28696D02*
X73588Y-28696D01*
X73559Y-28710D01*
X73545Y-28724D01*
X73531Y-28753D01*
X73516Y-28810D01*
X73516Y-28881D01*
X73531Y-28939D01*
X73545Y-28967D01*
X73559Y-28981D01*
X73588Y-28996D01*
X73616Y-28996D01*
X73645Y-28981D01*
X73659Y-28967D01*
X73674Y-28939D01*
X73688Y-28881D01*
X73688Y-28810D01*
X73674Y-28753D01*
X73659Y-28724D01*
X73645Y-28710D01*
X73616Y-28696D01*
X73231Y-28996D02*
X73402Y-28996D01*
X73316Y-28996D02*
X73316Y-28696D01*
X73345Y-28739D01*
X73374Y-28767D01*
X73402Y-28781D01*
G54D21*
X76777Y-25754D02*
X76777Y-25154D01*
X76577Y-25583D01*
X76377Y-25154D01*
X76377Y-25754D01*
X76092Y-25754D02*
X76092Y-25154D01*
X75463Y-25697D02*
X75492Y-25726D01*
X75577Y-25754D01*
X75635Y-25754D01*
X75720Y-25726D01*
X75777Y-25668D01*
X75806Y-25611D01*
X75835Y-25497D01*
X75835Y-25411D01*
X75806Y-25297D01*
X75777Y-25240D01*
X75720Y-25183D01*
X75635Y-25154D01*
X75577Y-25154D01*
X75492Y-25183D01*
X75463Y-25211D01*
X74863Y-25754D02*
X75063Y-25468D01*
X75206Y-25754D02*
X75206Y-25154D01*
X74977Y-25154D01*
X74920Y-25183D01*
X74892Y-25211D01*
X74863Y-25268D01*
X74863Y-25354D01*
X74892Y-25411D01*
X74920Y-25440D01*
X74977Y-25468D01*
X75206Y-25468D01*
X74492Y-25154D02*
X74377Y-25154D01*
X74320Y-25183D01*
X74263Y-25240D01*
X74235Y-25354D01*
X74235Y-25554D01*
X74263Y-25668D01*
X74320Y-25726D01*
X74377Y-25754D01*
X74492Y-25754D01*
X74549Y-25726D01*
X74606Y-25668D01*
X74635Y-25554D01*
X74635Y-25354D01*
X74606Y-25240D01*
X74549Y-25183D01*
X74492Y-25154D01*
X73977Y-25526D02*
X73520Y-25526D01*
X73035Y-25440D02*
X72949Y-25468D01*
X72920Y-25497D01*
X72892Y-25554D01*
X72892Y-25640D01*
X72920Y-25697D01*
X72949Y-25726D01*
X73006Y-25754D01*
X73235Y-25754D01*
X73235Y-25154D01*
X73035Y-25154D01*
X72977Y-25183D01*
X72949Y-25211D01*
X72920Y-25268D01*
X72920Y-25326D01*
X72949Y-25383D01*
X72977Y-25411D01*
X73035Y-25440D01*
X73235Y-25440D01*
X72777Y-25811D02*
X72320Y-25811D01*
X72177Y-25154D02*
X72177Y-25640D01*
X72149Y-25697D01*
X72120Y-25726D01*
X72063Y-25754D01*
X71949Y-25754D01*
X71892Y-25726D01*
X71863Y-25697D01*
X71835Y-25640D01*
X71835Y-25154D01*
X71577Y-25726D02*
X71492Y-25754D01*
X71349Y-25754D01*
X71292Y-25726D01*
X71263Y-25697D01*
X71235Y-25640D01*
X71235Y-25583D01*
X71263Y-25526D01*
X71292Y-25497D01*
X71349Y-25468D01*
X71463Y-25440D01*
X71520Y-25411D01*
X71549Y-25383D01*
X71577Y-25326D01*
X71577Y-25268D01*
X71549Y-25211D01*
X71520Y-25183D01*
X71463Y-25154D01*
X71320Y-25154D01*
X71235Y-25183D01*
X70777Y-25440D02*
X70692Y-25468D01*
X70663Y-25497D01*
X70635Y-25554D01*
X70635Y-25640D01*
X70663Y-25697D01*
X70692Y-25726D01*
X70749Y-25754D01*
X70977Y-25754D01*
X70977Y-25154D01*
X70777Y-25154D01*
X70720Y-25183D01*
X70692Y-25211D01*
X70663Y-25268D01*
X70663Y-25326D01*
X70692Y-25383D01*
X70720Y-25411D01*
X70777Y-25440D01*
X70977Y-25440D01*
G54D13*
X56352Y-29900D02*
X56352Y-30139D01*
X56338Y-30167D01*
X56324Y-30181D01*
X56295Y-30195D01*
X56239Y-30195D01*
X56211Y-30181D01*
X56197Y-30167D01*
X56183Y-30139D01*
X56183Y-29900D01*
X55916Y-29998D02*
X55916Y-30195D01*
X55986Y-29886D02*
X56057Y-30097D01*
X55874Y-30097D01*
X55705Y-29900D02*
X55677Y-29900D01*
X55649Y-29914D01*
X55635Y-29928D01*
X55621Y-29956D01*
X55607Y-30012D01*
X55607Y-30083D01*
X55621Y-30139D01*
X55635Y-30167D01*
X55649Y-30181D01*
X55677Y-30195D01*
X55705Y-30195D01*
X55734Y-30181D01*
X55748Y-30167D01*
X55762Y-30139D01*
X55776Y-30083D01*
X55776Y-30012D01*
X55762Y-29956D01*
X55748Y-29928D01*
X55734Y-29914D01*
X55705Y-29900D01*
X55326Y-30195D02*
X55495Y-30195D01*
X55410Y-30195D02*
X55410Y-29900D01*
X55439Y-29942D01*
X55467Y-29970D01*
X55495Y-29984D01*
X57440Y-29281D02*
X57398Y-29295D01*
X57328Y-29295D01*
X57300Y-29281D01*
X57286Y-29267D01*
X57272Y-29239D01*
X57272Y-29211D01*
X57286Y-29183D01*
X57300Y-29168D01*
X57328Y-29154D01*
X57384Y-29140D01*
X57412Y-29126D01*
X57426Y-29112D01*
X57440Y-29084D01*
X57440Y-29056D01*
X57426Y-29028D01*
X57412Y-29014D01*
X57384Y-29000D01*
X57314Y-29000D01*
X57272Y-29014D01*
X57188Y-29000D02*
X57019Y-29000D01*
X57103Y-29295D02*
X57103Y-29000D01*
X56921Y-29295D02*
X56921Y-29000D01*
X56822Y-29211D01*
X56724Y-29000D01*
X56724Y-29295D01*
X56612Y-29000D02*
X56429Y-29000D01*
X56527Y-29112D01*
X56485Y-29112D01*
X56457Y-29126D01*
X56443Y-29140D01*
X56429Y-29168D01*
X56429Y-29239D01*
X56443Y-29267D01*
X56457Y-29281D01*
X56485Y-29295D01*
X56569Y-29295D01*
X56598Y-29281D01*
X56612Y-29267D01*
X56317Y-29028D02*
X56303Y-29014D01*
X56274Y-29000D01*
X56204Y-29000D01*
X56176Y-29014D01*
X56162Y-29028D01*
X56148Y-29056D01*
X56148Y-29084D01*
X56162Y-29126D01*
X56331Y-29295D01*
X56148Y-29295D01*
X55923Y-29140D02*
X56022Y-29140D01*
X56022Y-29295D02*
X56022Y-29000D01*
X55881Y-29000D01*
X55614Y-29295D02*
X55783Y-29295D01*
X55698Y-29295D02*
X55698Y-29000D01*
X55727Y-29042D01*
X55755Y-29070D01*
X55783Y-29084D01*
X55432Y-29000D02*
X55403Y-29000D01*
X55375Y-29014D01*
X55361Y-29028D01*
X55347Y-29056D01*
X55333Y-29112D01*
X55333Y-29183D01*
X55347Y-29239D01*
X55361Y-29267D01*
X55375Y-29281D01*
X55403Y-29295D01*
X55432Y-29295D01*
X55460Y-29281D01*
X55474Y-29267D01*
X55488Y-29239D01*
X55502Y-29183D01*
X55502Y-29112D01*
X55488Y-29056D01*
X55474Y-29028D01*
X55460Y-29014D01*
X55432Y-29000D01*
X55235Y-29000D02*
X55052Y-29000D01*
X55151Y-29112D01*
X55108Y-29112D01*
X55080Y-29126D01*
X55066Y-29140D01*
X55052Y-29168D01*
X55052Y-29239D01*
X55066Y-29267D01*
X55080Y-29281D01*
X55108Y-29295D01*
X55193Y-29295D01*
X55221Y-29281D01*
X55235Y-29267D01*
X54757Y-29295D02*
X54856Y-29154D01*
X54926Y-29295D02*
X54926Y-29000D01*
X54813Y-29000D01*
X54785Y-29014D01*
X54771Y-29028D01*
X54757Y-29056D01*
X54757Y-29098D01*
X54771Y-29126D01*
X54785Y-29140D01*
X54813Y-29154D01*
X54926Y-29154D01*
X54659Y-29000D02*
X54462Y-29295D01*
X54462Y-29000D02*
X54659Y-29295D01*
X54392Y-29000D02*
X54223Y-29000D01*
X54308Y-29295D02*
X54308Y-29000D01*
G54D22*
X70643Y-27535D02*
X70615Y-27544D01*
X70605Y-27554D01*
X70596Y-27572D01*
X70596Y-27601D01*
X70605Y-27619D01*
X70615Y-27629D01*
X70633Y-27638D01*
X70709Y-27638D01*
X70709Y-27441D01*
X70643Y-27441D01*
X70624Y-27450D01*
X70615Y-27460D01*
X70605Y-27479D01*
X70605Y-27497D01*
X70615Y-27516D01*
X70624Y-27525D01*
X70643Y-27535D01*
X70709Y-27535D01*
X70521Y-27582D02*
X70427Y-27582D01*
X70540Y-27638D02*
X70474Y-27441D01*
X70408Y-27638D01*
X70371Y-27441D02*
X70258Y-27441D01*
X70315Y-27638D02*
X70315Y-27441D01*
X70202Y-27460D02*
X70193Y-27450D01*
X70174Y-27441D01*
X70127Y-27441D01*
X70108Y-27450D01*
X70099Y-27460D01*
X70089Y-27479D01*
X70089Y-27497D01*
X70099Y-27525D01*
X70211Y-27638D01*
X70089Y-27638D01*
X69967Y-27441D02*
X69949Y-27441D01*
X69930Y-27450D01*
X69921Y-27460D01*
X69911Y-27479D01*
X69902Y-27516D01*
X69902Y-27563D01*
X69911Y-27601D01*
X69921Y-27619D01*
X69930Y-27629D01*
X69949Y-27638D01*
X69967Y-27638D01*
X69986Y-27629D01*
X69996Y-27619D01*
X70005Y-27601D01*
X70014Y-27563D01*
X70014Y-27516D01*
X70005Y-27479D01*
X69996Y-27460D01*
X69986Y-27450D01*
X69967Y-27441D01*
X69714Y-27638D02*
X69827Y-27638D01*
X69770Y-27638D02*
X69770Y-27441D01*
X69789Y-27469D01*
X69808Y-27488D01*
X69827Y-27497D01*
X74863Y-30239D02*
X74469Y-30239D01*
X74469Y-30333D01*
X74488Y-30389D01*
X74526Y-30427D01*
X74563Y-30445D01*
X74638Y-30464D01*
X74694Y-30464D01*
X74770Y-30445D01*
X74807Y-30427D01*
X74845Y-30389D01*
X74863Y-30333D01*
X74863Y-30239D01*
X74507Y-30614D02*
X74488Y-30633D01*
X74469Y-30670D01*
X74469Y-30764D01*
X74488Y-30802D01*
X74507Y-30821D01*
X74544Y-30839D01*
X74582Y-30839D01*
X74638Y-30821D01*
X74863Y-30595D01*
X74863Y-30839D01*
X74469Y-31083D02*
X74469Y-31121D01*
X74488Y-31158D01*
X74507Y-31177D01*
X74544Y-31196D01*
X74619Y-31215D01*
X74713Y-31215D01*
X74788Y-31196D01*
X74826Y-31177D01*
X74845Y-31158D01*
X74863Y-31121D01*
X74863Y-31083D01*
X74845Y-31046D01*
X74826Y-31027D01*
X74788Y-31008D01*
X74713Y-30989D01*
X74619Y-30989D01*
X74544Y-31008D01*
X74507Y-31027D01*
X74488Y-31046D01*
X74469Y-31083D01*
X74507Y-31365D02*
X74488Y-31383D01*
X74469Y-31421D01*
X74469Y-31515D01*
X74488Y-31552D01*
X74507Y-31571D01*
X74544Y-31590D01*
X74582Y-31590D01*
X74638Y-31571D01*
X74863Y-31346D01*
X74863Y-31590D01*
X76971Y-29329D02*
X76989Y-29385D01*
X76989Y-29479D01*
X76971Y-29517D01*
X76952Y-29535D01*
X76914Y-29554D01*
X76877Y-29554D01*
X76839Y-29535D01*
X76820Y-29517D01*
X76802Y-29479D01*
X76783Y-29404D01*
X76764Y-29367D01*
X76745Y-29348D01*
X76708Y-29329D01*
X76670Y-29329D01*
X76633Y-29348D01*
X76614Y-29367D01*
X76595Y-29404D01*
X76595Y-29498D01*
X76614Y-29554D01*
X76595Y-29667D02*
X76595Y-29892D01*
X76989Y-29779D02*
X76595Y-29779D01*
X76989Y-30023D02*
X76595Y-30023D01*
X76595Y-30173D01*
X76614Y-30211D01*
X76633Y-30230D01*
X76670Y-30248D01*
X76727Y-30248D01*
X76764Y-30230D01*
X76783Y-30211D01*
X76802Y-30173D01*
X76802Y-30023D01*
X76971Y-30398D02*
X76989Y-30455D01*
X76989Y-30549D01*
X76971Y-30586D01*
X76952Y-30605D01*
X76914Y-30624D01*
X76877Y-30624D01*
X76839Y-30605D01*
X76820Y-30586D01*
X76802Y-30549D01*
X76783Y-30473D01*
X76764Y-30436D01*
X76745Y-30417D01*
X76708Y-30398D01*
X76670Y-30398D01*
X76633Y-30417D01*
X76614Y-30436D01*
X76595Y-30473D01*
X76595Y-30567D01*
X76614Y-30624D01*
X76989Y-30999D02*
X76989Y-30774D01*
X76989Y-30886D02*
X76595Y-30886D01*
X76652Y-30849D01*
X76689Y-30811D01*
X76708Y-30774D01*
X76989Y-31355D02*
X76989Y-31168D01*
X76595Y-31168D01*
X76595Y-31449D02*
X76595Y-31693D01*
X76745Y-31562D01*
X76745Y-31618D01*
X76764Y-31655D01*
X76783Y-31674D01*
X76820Y-31693D01*
X76914Y-31693D01*
X76952Y-31674D01*
X76971Y-31655D01*
X76989Y-31618D01*
X76989Y-31505D01*
X76971Y-31468D01*
X76952Y-31449D01*
X76595Y-31937D02*
X76595Y-31974D01*
X76614Y-32012D01*
X76633Y-32031D01*
X76670Y-32049D01*
X76745Y-32068D01*
X76839Y-32068D01*
X76914Y-32049D01*
X76952Y-32031D01*
X76971Y-32012D01*
X76989Y-31974D01*
X76989Y-31937D01*
X76971Y-31899D01*
X76952Y-31881D01*
X76914Y-31862D01*
X76839Y-31843D01*
X76745Y-31843D01*
X76670Y-31862D01*
X76633Y-31881D01*
X76614Y-31899D01*
X76595Y-31937D01*
X76595Y-32237D02*
X76914Y-32237D01*
X76952Y-32256D01*
X76971Y-32275D01*
X76989Y-32312D01*
X76989Y-32387D01*
X76971Y-32425D01*
X76952Y-32443D01*
X76914Y-32462D01*
X76595Y-32462D01*
X75803Y-34844D02*
X75803Y-34450D01*
X75710Y-34450D01*
X75653Y-34469D01*
X75616Y-34507D01*
X75597Y-34544D01*
X75578Y-34619D01*
X75578Y-34676D01*
X75597Y-34751D01*
X75616Y-34788D01*
X75653Y-34826D01*
X75710Y-34844D01*
X75803Y-34844D01*
X75428Y-34488D02*
X75409Y-34469D01*
X75372Y-34450D01*
X75278Y-34450D01*
X75240Y-34469D01*
X75222Y-34488D01*
X75203Y-34525D01*
X75203Y-34563D01*
X75222Y-34619D01*
X75447Y-34844D01*
X75203Y-34844D01*
X74959Y-34450D02*
X74922Y-34450D01*
X74884Y-34469D01*
X74865Y-34488D01*
X74846Y-34525D01*
X74828Y-34600D01*
X74828Y-34694D01*
X74846Y-34769D01*
X74865Y-34807D01*
X74884Y-34826D01*
X74922Y-34844D01*
X74959Y-34844D01*
X74997Y-34826D01*
X75015Y-34807D01*
X75034Y-34769D01*
X75053Y-34694D01*
X75053Y-34600D01*
X75034Y-34525D01*
X75015Y-34488D01*
X74997Y-34469D01*
X74959Y-34450D01*
X74696Y-34450D02*
X74452Y-34450D01*
X74584Y-34600D01*
X74528Y-34600D01*
X74490Y-34619D01*
X74471Y-34638D01*
X74452Y-34676D01*
X74452Y-34769D01*
X74471Y-34807D01*
X74490Y-34826D01*
X74528Y-34844D01*
X74640Y-34844D01*
X74678Y-34826D01*
X74696Y-34807D01*
X76713Y-32700D02*
X76657Y-32718D01*
X76563Y-32718D01*
X76526Y-32700D01*
X76507Y-32681D01*
X76488Y-32643D01*
X76488Y-32606D01*
X76507Y-32568D01*
X76526Y-32550D01*
X76563Y-32531D01*
X76638Y-32512D01*
X76676Y-32493D01*
X76695Y-32474D01*
X76713Y-32437D01*
X76713Y-32399D01*
X76695Y-32362D01*
X76676Y-32343D01*
X76638Y-32324D01*
X76544Y-32324D01*
X76488Y-32343D01*
X76376Y-32324D02*
X76150Y-32324D01*
X76263Y-32718D02*
X76263Y-32324D01*
X76019Y-32718D02*
X76019Y-32324D01*
X75869Y-32324D01*
X75831Y-32343D01*
X75813Y-32362D01*
X75794Y-32399D01*
X75794Y-32456D01*
X75813Y-32493D01*
X75831Y-32512D01*
X75869Y-32531D01*
X76019Y-32531D01*
X75644Y-32700D02*
X75588Y-32718D01*
X75494Y-32718D01*
X75456Y-32700D01*
X75437Y-32681D01*
X75419Y-32643D01*
X75419Y-32606D01*
X75437Y-32568D01*
X75456Y-32550D01*
X75494Y-32531D01*
X75569Y-32512D01*
X75606Y-32493D01*
X75625Y-32474D01*
X75644Y-32437D01*
X75644Y-32399D01*
X75625Y-32362D01*
X75606Y-32343D01*
X75569Y-32324D01*
X75475Y-32324D01*
X75419Y-32343D01*
X75043Y-32718D02*
X75269Y-32718D01*
X75156Y-32718D02*
X75156Y-32324D01*
X75194Y-32381D01*
X75231Y-32418D01*
X75269Y-32437D01*
X74687Y-32718D02*
X74875Y-32718D01*
X74875Y-32324D01*
X74593Y-32324D02*
X74349Y-32324D01*
X74481Y-32474D01*
X74424Y-32474D01*
X74387Y-32493D01*
X74368Y-32512D01*
X74349Y-32550D01*
X74349Y-32643D01*
X74368Y-32681D01*
X74387Y-32700D01*
X74424Y-32718D01*
X74537Y-32718D01*
X74574Y-32700D01*
X74593Y-32681D01*
X74105Y-32324D02*
X74068Y-32324D01*
X74030Y-32343D01*
X74012Y-32362D01*
X73993Y-32399D01*
X73974Y-32474D01*
X73974Y-32568D01*
X73993Y-32643D01*
X74012Y-32681D01*
X74030Y-32700D01*
X74068Y-32718D01*
X74105Y-32718D01*
X74143Y-32700D01*
X74162Y-32681D01*
X74180Y-32643D01*
X74199Y-32568D01*
X74199Y-32474D01*
X74180Y-32399D01*
X74162Y-32362D01*
X74143Y-32343D01*
X74105Y-32324D01*
X73805Y-32324D02*
X73805Y-32643D01*
X73786Y-32681D01*
X73768Y-32700D01*
X73730Y-32718D01*
X73655Y-32718D01*
X73618Y-32700D01*
X73599Y-32681D01*
X73580Y-32643D01*
X73580Y-32324D01*
G54D10*
X64962Y-29640D02*
X65281Y-29640D01*
X65318Y-29658D01*
X65337Y-29677D01*
X65356Y-29715D01*
X65356Y-29790D01*
X65337Y-29827D01*
X65318Y-29846D01*
X65281Y-29865D01*
X64962Y-29865D01*
X64962Y-30239D02*
X64962Y-30052D01*
X65149Y-30033D01*
X65131Y-30052D01*
X65112Y-30089D01*
X65112Y-30183D01*
X65131Y-30221D01*
X65149Y-30239D01*
X65187Y-30258D01*
X65281Y-30258D01*
X65318Y-30239D01*
X65337Y-30221D01*
X65356Y-30183D01*
X65356Y-30089D01*
X65337Y-30052D01*
X65318Y-30033D01*
X64962Y-30502D02*
X64962Y-30539D01*
X64981Y-30577D01*
X65000Y-30596D01*
X65037Y-30614D01*
X65112Y-30633D01*
X65206Y-30633D01*
X65281Y-30614D01*
X65318Y-30596D01*
X65337Y-30577D01*
X65356Y-30539D01*
X65356Y-30502D01*
X65337Y-30464D01*
X65318Y-30446D01*
X65281Y-30427D01*
X65206Y-30408D01*
X65112Y-30408D01*
X65037Y-30427D01*
X65000Y-30446D01*
X64981Y-30464D01*
X64962Y-30502D01*
X65356Y-31008D02*
X65356Y-30783D01*
X65356Y-30896D02*
X64962Y-30896D01*
X65018Y-30858D01*
X65056Y-30821D01*
X65074Y-30783D01*
X49838Y-28013D02*
X49838Y-27619D01*
X49688Y-27619D01*
X49651Y-27638D01*
X49632Y-27657D01*
X49613Y-27694D01*
X49613Y-27751D01*
X49632Y-27788D01*
X49651Y-27807D01*
X49688Y-27826D01*
X49838Y-27826D01*
X49276Y-27751D02*
X49276Y-28013D01*
X49370Y-27601D02*
X49463Y-27882D01*
X49220Y-27882D01*
X48995Y-27619D02*
X48957Y-27619D01*
X48920Y-27638D01*
X48901Y-27657D01*
X48882Y-27694D01*
X48863Y-27769D01*
X48863Y-27863D01*
X48882Y-27938D01*
X48901Y-27976D01*
X48920Y-27994D01*
X48957Y-28013D01*
X48995Y-28013D01*
X49032Y-27994D01*
X49051Y-27976D01*
X49070Y-27938D01*
X49088Y-27863D01*
X49088Y-27769D01*
X49070Y-27694D01*
X49051Y-27657D01*
X49032Y-27638D01*
X48995Y-27619D01*
X48732Y-27619D02*
X48488Y-27619D01*
X48620Y-27769D01*
X48563Y-27769D01*
X48526Y-27788D01*
X48507Y-27807D01*
X48488Y-27844D01*
X48488Y-27938D01*
X48507Y-27976D01*
X48526Y-27994D01*
X48563Y-28013D01*
X48676Y-28013D01*
X48713Y-27994D01*
X48732Y-27976D01*
X61175Y-38861D02*
X61119Y-38879D01*
X61025Y-38879D01*
X60988Y-38861D01*
X60969Y-38842D01*
X60950Y-38804D01*
X60950Y-38767D01*
X60969Y-38729D01*
X60988Y-38711D01*
X61025Y-38692D01*
X61100Y-38673D01*
X61137Y-38654D01*
X61156Y-38636D01*
X61175Y-38598D01*
X61175Y-38561D01*
X61156Y-38523D01*
X61137Y-38504D01*
X61100Y-38486D01*
X61006Y-38486D01*
X60950Y-38504D01*
X60819Y-38486D02*
X60725Y-38879D01*
X60650Y-38598D01*
X60575Y-38879D01*
X60481Y-38486D01*
X60163Y-38617D02*
X60163Y-38879D01*
X60256Y-38467D02*
X60350Y-38748D01*
X60106Y-38748D01*
X59881Y-38486D02*
X59844Y-38486D01*
X59806Y-38504D01*
X59788Y-38523D01*
X59769Y-38561D01*
X59750Y-38636D01*
X59750Y-38729D01*
X59769Y-38804D01*
X59788Y-38842D01*
X59806Y-38861D01*
X59844Y-38879D01*
X59881Y-38879D01*
X59919Y-38861D01*
X59938Y-38842D01*
X59956Y-38804D01*
X59975Y-38729D01*
X59975Y-38636D01*
X59956Y-38561D01*
X59938Y-38523D01*
X59919Y-38504D01*
X59881Y-38486D01*
X59394Y-38486D02*
X59581Y-38486D01*
X59600Y-38673D01*
X59581Y-38654D01*
X59544Y-38636D01*
X59450Y-38636D01*
X59413Y-38654D01*
X59394Y-38673D01*
X59375Y-38711D01*
X59375Y-38804D01*
X59394Y-38842D01*
X59413Y-38861D01*
X59450Y-38879D01*
X59544Y-38879D01*
X59581Y-38861D01*
X59600Y-38842D01*
G54D22*
X70569Y-38150D02*
X70569Y-37953D01*
X70494Y-37953D01*
X70475Y-37963D01*
X70466Y-37972D01*
X70456Y-37991D01*
X70456Y-38019D01*
X70466Y-38038D01*
X70475Y-38047D01*
X70494Y-38057D01*
X70569Y-38057D01*
X70287Y-38019D02*
X70287Y-38150D01*
X70334Y-37944D02*
X70381Y-38085D01*
X70259Y-38085D01*
X70147Y-37953D02*
X70128Y-37953D01*
X70109Y-37963D01*
X70100Y-37972D01*
X70090Y-37991D01*
X70081Y-38028D01*
X70081Y-38075D01*
X70090Y-38113D01*
X70100Y-38132D01*
X70109Y-38141D01*
X70128Y-38150D01*
X70147Y-38150D01*
X70165Y-38141D01*
X70175Y-38132D01*
X70184Y-38113D01*
X70194Y-38075D01*
X70194Y-38028D01*
X70184Y-37991D01*
X70175Y-37972D01*
X70165Y-37963D01*
X70147Y-37953D01*
X70006Y-37972D02*
X69997Y-37963D01*
X69978Y-37953D01*
X69931Y-37953D01*
X69912Y-37963D01*
X69903Y-37972D01*
X69893Y-37991D01*
X69893Y-38010D01*
X69903Y-38038D01*
X70015Y-38150D01*
X69893Y-38150D01*
M02*
