G04 (created by PCBNEW (2013-june-11)-stable) date St 3. září 2014, 22:49:41 CEST*
%MOIN*%
G04 Gerber Fmt 3.4, Leading zero omitted, Abs format*
%FSLAX34Y34*%
G01*
G70*
G90*
G04 APERTURE LIST*
%ADD10C,0.00590551*%
%ADD11R,0.0590551X0.0354331*%
%ADD12R,0.055X0.035*%
%ADD13R,0.035X0.055*%
%ADD14R,0.025X0.045*%
%ADD15R,0.045X0.025*%
%ADD16C,0.0393701*%
%ADD17R,0.0826772X0.0551181*%
%ADD18R,0.0787402X0.0787402*%
G04 APERTURE END LIST*
G54D10*
G54D11*
X71043Y-36496D03*
X71043Y-37125D03*
X69783Y-36496D03*
X69783Y-37125D03*
X71043Y-32755D03*
X71043Y-33385D03*
X69783Y-32755D03*
X69783Y-33385D03*
X71043Y-29212D03*
X71043Y-29842D03*
X69783Y-29212D03*
X69783Y-29842D03*
X71043Y-26850D03*
X71043Y-27480D03*
X69783Y-26850D03*
X69783Y-27480D03*
G54D12*
X72185Y-26790D03*
X72185Y-27540D03*
G54D13*
X72006Y-35039D03*
X72756Y-35039D03*
X73384Y-38818D03*
X74134Y-38818D03*
G54D14*
X68223Y-29389D03*
X68823Y-29389D03*
X70310Y-26377D03*
X70910Y-26377D03*
G54D15*
X69133Y-26865D03*
X69133Y-27465D03*
X71003Y-27948D03*
X71003Y-28548D03*
G54D14*
X68223Y-29980D03*
X68823Y-29980D03*
X69089Y-30590D03*
X69689Y-30590D03*
G54D16*
X54468Y-38228D03*
X54468Y-39330D03*
G54D17*
X72185Y-36102D03*
X75728Y-36102D03*
X72185Y-37913D03*
X75728Y-37913D03*
X72185Y-32362D03*
X75728Y-32362D03*
X72185Y-34173D03*
X75728Y-34173D03*
X72185Y-28622D03*
X75728Y-28622D03*
X72185Y-30433D03*
X75728Y-30433D03*
G54D18*
X72381Y-38838D03*
X69429Y-38838D03*
M02*
